SplineFontDB: 3.0
FontName: Hack-Regular
FullName: Hack Regular
FamilyName: Hack
Weight: Book
Copyright: Copyright (c) 2015 Christopher Simpkins / Copyright (c) 2003 by Bitstream, Inc. All Rights Reserved.
Version: 2.015; ttfautohint (v1.3) -l 4 -r 80 -G 350 -x 0 -H 181 -D latn -f latn -w G -W -t -X ""
ItalicAngle: 0
UnderlinePosition: -265
UnderlineWidth: 90
Ascent: 1556
Descent: 492
InvalidEm: 0
sfntRevision: 0x000203d7
LayerCount: 2
Layer: 0 1 "Back" 1
Layer: 1 1 "Fore" 0
XUID: [1021 339 290093688 16501641]
StyleMap: 0x0040
FSType: 8
OS2Version: 3
OS2_WeightWidthSlopeOnly: 0
OS2_UseTypoMetrics: 0
CreationTime: -768973576
ModificationTime: 1561906634
PfmFamily: 17
TTFWeight: 400
TTFWidth: 5
LineGap: 0
VLineGap: 0
Panose: 2 11 6 9 3 2 2 2 2 4
OS2TypoAscent: 1556
OS2TypoAOffset: 0
OS2TypoDescent: -492
OS2TypoDOffset: 0
OS2TypoLinegap: 410
OS2WinAscent: 1901
OS2WinAOffset: 0
OS2WinDescent: 483
OS2WinDOffset: 0
HheadAscent: 1901
HheadAOffset: 0
HheadDescent: -483
HheadDOffset: 0
OS2SubXSize: 1331
OS2SubYSize: 1228
OS2SubXOff: 0
OS2SubYOff: 153
OS2SupXSize: 1331
OS2SupYSize: 1228
OS2SupXOff: 0
OS2SupYOff: 716
OS2StrikeYSize: 102
OS2StrikeYPos: 530
OS2CapHeight: 1493
OS2XHeight: 1120
OS2Vendor: 'simp'
OS2CodePages: 2000019f.dfd70000
OS2UnicodeRanges: a50006ef.1000b8fb.00000020.00000000
Lookup: 1 0 0 "'aalt' Access All Alternates in Latin lookup 0" { "'aalt' Access All Alternates in Latin lookup 0 subtable"  } ['aalt' ('DFLT' <'dflt' > 'latn' <'MOL ' 'ROM ' 'dflt' > ) ]
Lookup: 3 0 0 "'aalt' Access All Alternates in Latin lookup 1" { "'aalt' Access All Alternates in Latin lookup 1 subtable"  } ['aalt' ('DFLT' <'dflt' > 'latn' <'MOL ' 'ROM ' 'dflt' > ) ]
Lookup: 1 0 0 "'locl' Localized Forms in Latin lookup 2" { "'locl' Localized Forms in Latin lookup 2 subtable"  } ['locl' ('latn' <'MOL ' > ) ]
Lookup: 1 0 0 "'locl' Localized Forms in Latin lookup 3" { "'locl' Localized Forms in Latin lookup 3 subtable"  } ['locl' ('latn' <'ROM ' > ) ]

StartChar: .notdef
Encoding: 65536 -1 0
Width: 1233
Flags: W
LayerCount: 2
Fore
SplineSet
1128 1444 m 1,0,-1
 1128 -362 l 1,1,-1
 104 -362 l 1,2,-1
 104 1444 l 1,3,-1
 1128 1444 l 1,0,-1
1014 1329 m 1,4,-1
 219 1329 l 1,5,-1
 219 -248 l 1,6,-1
 1014 -248 l 1,7,-1
 1014 1329 l 1,4,-1
EndSplineSet
Validated: 1
EndChar

StartChar: Abreve
Encoding: 258 258 4
Width: 1233
Flags: W
LayerCount: 2
Fore
SplineSet
616 1589 m 0,0,1
 326 1589 326 1589 303 1831 c 1,2,-1
 422 1831 l 1,3,4
 434 1777 434 1777 483.5 1748.5 c 128,-1,5
 533 1720 533 1720 618 1720 c 0,6,7
 781 1720 781 1720 811 1831 c 1,8,-1
 930 1831 l 1,9,10
 919 1711 919 1711 840 1650 c 128,-1,11
 761 1589 761 1589 616 1589 c 0,0,1
494 1493 m 1,12,-1
 739 1493 l 1,13,-1
 1196 0 l 1,14,-1
 987 0 l 1,15,-1
 877 389 l 1,16,-1
 354 389 l 1,17,-1
 246 0 l 1,18,-1
 37 0 l 1,19,-1
 494 1493 l 1,12,-1
829 551 m 1,20,-1
 616 1315 l 1,21,-1
 403 551 l 1,22,-1
 829 551 l 1,20,-1
EndSplineSet
Validated: 1
EndChar

StartChar: Acircumflex
Encoding: 194 194 5
Width: 1233
Flags: W
LayerCount: 2
Fore
SplineSet
522 1852 m 1,0,-1
 711 1852 l 1,1,-1
 922 1586 l 1,2,-1
 782 1586 l 1,3,-1
 616 1764 l 1,4,-1
 451 1586 l 1,5,-1
 311 1586 l 1,6,-1
 522 1852 l 1,0,-1
494 1493 m 1,7,-1
 739 1493 l 1,8,-1
 1196 0 l 1,9,-1
 987 0 l 1,10,-1
 877 389 l 1,11,-1
 354 389 l 1,12,-1
 246 0 l 1,13,-1
 37 0 l 1,14,-1
 494 1493 l 1,7,-1
829 551 m 1,15,-1
 616 1315 l 1,16,-1
 403 551 l 1,17,-1
 829 551 l 1,15,-1
EndSplineSet
Validated: 1
EndChar

StartChar: Adieresis
Encoding: 196 196 6
Width: 1233
Flags: W
LayerCount: 2
Fore
SplineSet
349 1647 m 2,0,1
 319 1647 319 1647 319 1677 c 2,2,-1
 319 1820 l 2,3,4
 319 1850 319 1850 349 1850 c 2,5,-1
 492 1850 l 2,6,7
 522 1850 522 1850 522 1820 c 2,8,-1
 522 1677 l 2,9,10
 522 1647 522 1647 492 1647 c 2,11,-1
 349 1647 l 2,0,1
741 1647 m 2,12,13
 711 1647 711 1647 711 1677 c 2,14,-1
 711 1820 l 2,15,16
 711 1850 711 1850 741 1850 c 2,17,-1
 883 1850 l 2,18,19
 913 1850 913 1850 913 1820 c 2,20,-1
 913 1677 l 2,21,22
 913 1647 913 1647 883 1647 c 2,23,-1
 741 1647 l 2,12,13
494 1493 m 1,24,-1
 739 1493 l 1,25,-1
 1196 0 l 1,26,-1
 987 0 l 1,27,-1
 877 389 l 1,28,-1
 354 389 l 1,29,-1
 246 0 l 1,30,-1
 37 0 l 1,31,-1
 494 1493 l 1,24,-1
829 551 m 1,32,-1
 616 1315 l 1,33,-1
 403 551 l 1,34,-1
 829 551 l 1,32,-1
EndSplineSet
Validated: 1
EndChar

StartChar: Agrave
Encoding: 192 192 7
Width: 1233
Flags: W
LayerCount: 2
Fore
SplineSet
358 1849 m 1,0,-1
 542 1849 l 1,1,-1
 739 1585 l 1,2,-1
 585 1585 l 1,3,-1
 358 1849 l 1,0,-1
494 1493 m 1,4,-1
 739 1493 l 1,5,-1
 1196 0 l 1,6,-1
 987 0 l 1,7,-1
 877 389 l 1,8,-1
 354 389 l 1,9,-1
 246 0 l 1,10,-1
 37 0 l 1,11,-1
 494 1493 l 1,4,-1
829 551 m 1,12,-1
 616 1315 l 1,13,-1
 403 551 l 1,14,-1
 829 551 l 1,12,-1
EndSplineSet
Validated: 1
EndChar

StartChar: Amacron
Encoding: 256 256 8
Width: 1233
Flags: W
LayerCount: 2
Fore
SplineSet
317 1800 m 1,0,-1
 915 1800 l 1,1,-1
 915 1652 l 1,2,-1
 317 1652 l 1,3,-1
 317 1800 l 1,0,-1
494 1493 m 1,4,-1
 739 1493 l 1,5,-1
 1196 0 l 1,6,-1
 987 0 l 1,7,-1
 877 389 l 1,8,-1
 354 389 l 1,9,-1
 246 0 l 1,10,-1
 37 0 l 1,11,-1
 494 1493 l 1,4,-1
829 551 m 1,12,-1
 616 1315 l 1,13,-1
 403 551 l 1,14,-1
 829 551 l 1,12,-1
EndSplineSet
Validated: 1
EndChar

StartChar: Aogonek
Encoding: 260 260 9
Width: 1233
Flags: W
LayerCount: 2
Fore
SplineSet
1124 -272 m 0,0,1
 1155 -272 1155 -272 1178.5 -264.5 c 128,-1,2
 1202 -257 1202 -257 1233 -242 c 1,3,-1
 1233 -375 l 1,4,5
 1211 -381 1211 -381 1194.5 -384.5 c 128,-1,6
 1178 -388 1178 -388 1164 -390.5 c 128,-1,7
 1150 -393 1150 -393 1136.5 -394 c 128,-1,8
 1123 -395 1123 -395 1106 -395 c 0,9,10
 993 -395 993 -395 934 -352.5 c 128,-1,11
 875 -310 875 -310 875 -222 c 0,12,13
 875 -197 875 -197 880.5 -172.5 c 128,-1,14
 886 -148 886 -148 898.5 -121.5 c 128,-1,15
 911 -95 911 -95 931.5 -65 c 128,-1,16
 952 -35 952 -35 983 0 c 1,17,-1
 987 0 l 1,18,-1
 877 389 l 1,19,-1
 354 389 l 1,20,-1
 246 0 l 1,21,-1
 37 0 l 1,22,-1
 494 1493 l 1,23,-1
 739 1493 l 1,24,-1
 1196 0 l 1,25,-1
 1102 0 l 1,26,27
 1054 -65 1054 -65 1034 -107.5 c 128,-1,28
 1014 -150 1014 -150 1014 -184 c 0,29,30
 1014 -226 1014 -226 1042 -249 c 128,-1,31
 1070 -272 1070 -272 1124 -272 c 0,0,1
829 551 m 1,32,-1
 616 1315 l 1,33,-1
 403 551 l 1,34,-1
 829 551 l 1,32,-1
EndSplineSet
Validated: 1
EndChar

StartChar: Aring
Encoding: 197 197 10
Width: 1233
Flags: W
LayerCount: 2
Fore
SplineSet
465 1399 m 1,0,1
 435 1416 435 1416 412.5 1440 c 128,-1,2
 390 1464 390 1464 375 1492 c 0,3,4
 358 1523 358 1523 350 1556.5 c 128,-1,5
 342 1590 342 1590 342 1625 c 0,6,7
 342 1684 342 1684 363.5 1734.5 c 128,-1,8
 385 1785 385 1785 422 1822 c 256,9,10
 459 1859 459 1859 509 1880 c 128,-1,11
 559 1901 559 1901 616 1901 c 0,12,13
 674 1901 674 1901 724.5 1879.5 c 128,-1,14
 775 1858 775 1858 812 1821 c 0,15,16
 847 1786 847 1786 869 1736 c 128,-1,17
 891 1686 891 1686 891 1625 c 0,18,19
 891 1553 891 1553 859 1494 c 0,20,21
 828 1436 828 1436 768 1399 c 1,22,-1
 1196 0 l 1,23,-1
 987 0 l 1,24,-1
 877 389 l 1,25,-1
 354 389 l 1,26,-1
 246 0 l 1,27,-1
 37 0 l 1,28,-1
 465 1399 l 1,0,1
616 1475 m 0,29,30
 650 1475 650 1475 677 1487 c 128,-1,31
 704 1499 704 1499 724 1519 c 0,32,33
 768 1563 768 1563 768 1626 c 0,34,35
 768 1660 768 1660 756 1687 c 128,-1,36
 744 1714 744 1714 724 1734 c 0,37,38
 701 1757 701 1757 672.5 1767.5 c 128,-1,39
 644 1778 644 1778 615 1778 c 0,40,41
 552 1778 552 1778 509 1735 c 0,42,43
 465 1691 465 1691 465 1626 c 0,44,45
 465 1563 465 1563 509 1519 c 256,46,47
 553 1475 553 1475 616 1475 c 0,29,30
829 551 m 1,48,-1
 616 1311 l 1,49,-1
 403 551 l 1,50,-1
 829 551 l 1,48,-1
EndSplineSet
Validated: 1
EndChar

StartChar: Atilde
Encoding: 195 195 11
Width: 1233
Flags: W
LayerCount: 2
Fore
SplineSet
287 1587 m 1,0,1
 287 1635 287 1635 299 1675 c 128,-1,2
 311 1715 311 1715 339 1747 c 0,3,4
 390 1806 390 1806 476 1806 c 0,5,6
 508 1806 508 1806 542 1798 c 0,7,8
 557 1794 557 1794 576 1785.5 c 128,-1,9
 595 1777 595 1777 621 1763 c 2,10,-1
 678 1733 l 2,11,12
 699 1720 699 1720 718 1714 c 0,13,14
 734 1708 734 1708 750 1708 c 0,15,16
 781 1708 781 1708 801 1734 c 256,17,18
 821 1760 821 1760 821 1800 c 2,19,-1
 821 1806 l 1,20,-1
 946 1806 l 1,21,22
 945 1707 945 1707 893 1647 c 0,23,24
 842 1587 842 1587 757 1587 c 0,25,26
 726 1587 726 1587 694 1595 c 0,27,28
 680 1599 680 1599 661.5 1606.5 c 128,-1,29
 643 1614 643 1614 612 1630 c 2,30,-1
 555 1663 l 2,31,32
 532 1676 532 1676 514 1683 c 0,33,34
 506 1686 506 1686 498 1687 c 128,-1,35
 490 1688 490 1688 485 1688 c 0,36,37
 470 1688 470 1688 456 1682 c 128,-1,38
 442 1676 442 1676 432 1663 c 0,39,40
 412 1637 412 1637 412 1593 c 2,41,-1
 412 1587 l 1,42,-1
 287 1587 l 1,0,1
494 1493 m 1,43,-1
 739 1493 l 1,44,-1
 1196 0 l 1,45,-1
 987 0 l 1,46,-1
 877 389 l 1,47,-1
 354 389 l 1,48,-1
 246 0 l 1,49,-1
 37 0 l 1,50,-1
 494 1493 l 1,43,-1
829 551 m 1,51,-1
 616 1315 l 1,52,-1
 403 551 l 1,53,-1
 829 551 l 1,51,-1
EndSplineSet
Validated: 1
EndChar

StartChar: AE
Encoding: 198 198 12
Width: 1233
Flags: W
LayerCount: 2
Fore
SplineSet
410 1493 m 1,0,-1
 1161 1493 l 1,1,-1
 1161 1323 l 1,2,-1
 823 1323 l 1,3,-1
 823 881 l 1,4,-1
 1130 881 l 1,5,-1
 1130 711 l 1,6,-1
 823 711 l 1,7,-1
 823 170 l 1,8,-1
 1180 170 l 1,9,-1
 1180 0 l 1,10,-1
 637 0 l 1,11,-1
 637 383 l 1,12,-1
 285 383 l 1,13,-1
 184 0 l 1,14,-1
 0 0 l 1,15,-1
 410 1493 l 1,0,-1
637 551 m 1,16,-1
 637 1323 l 1,17,-1
 530 1323 l 1,18,-1
 328 551 l 1,19,-1
 637 551 l 1,16,-1
EndSplineSet
Validated: 1
EndChar

StartChar: B
Encoding: 66 66 13
Width: 1233
Flags: W
LayerCount: 2
Fore
SplineSet
166 1493 m 1,0,-1
 608 1493 l 2,1,2
 836 1493 836 1493 961 1394 c 0,3,4
 1085 1295 1085 1295 1085 1113 c 0,5,6
 1085 1043 1085 1043 1068 989.5 c 128,-1,7
 1051 936 1051 936 1020 898 c 0,8,9
 988 860 988 860 939 834.5 c 128,-1,10
 890 809 890 809 823 799 c 1,11,12
 971 776 971 776 1054 674 c 0,13,14
 1095 623 1095 623 1116 557 c 128,-1,15
 1137 491 1137 491 1137 409 c 0,16,17
 1137 207 1137 207 1004 104 c 0,18,19
 870 0 870 0 608 0 c 2,20,-1
 166 0 l 1,21,-1
 166 1493 l 1,0,-1
604 877 m 2,22,23
 680 877 680 877 731.5 891 c 128,-1,24
 783 905 783 905 816 934 c 0,25,26
 881 990 881 990 881 1111 c 0,27,28
 881 1171 881 1171 865 1211.5 c 128,-1,29
 849 1252 849 1252 817 1277 c 0,30,31
 752 1327 752 1327 604 1327 c 2,32,-1
 369 1327 l 1,33,-1
 369 877 l 1,34,-1
 604 877 l 2,22,23
608 166 m 2,35,36
 783 166 783 166 859 228 c 0,37,38
 934 289 934 289 934 430 c 0,39,40
 934 576 934 576 855 645 c 0,41,42
 775 713 775 713 608 713 c 2,43,-1
 369 713 l 1,44,-1
 369 166 l 1,45,-1
 608 166 l 2,35,36
EndSplineSet
Validated: 1
EndChar

StartChar: C
Encoding: 67 67 14
Width: 1233
Flags: W
LayerCount: 2
Fore
SplineSet
742 -29 m 0,0,1
 602 -29 602 -29 489.5 21 c 128,-1,2
 377 71 377 71 297 174 c 0,3,4
 218 276 218 276 178.5 419.5 c 128,-1,5
 139 563 139 563 139 744 c 256,6,7
 139 925 139 925 178.5 1069 c 128,-1,8
 218 1213 218 1213 298 1316 c 256,9,10
 378 1419 378 1419 490 1469.5 c 128,-1,11
 602 1520 602 1520 742 1520 c 0,12,13
 790 1520 790 1520 834.5 1514.5 c 128,-1,14
 879 1509 879 1509 915 1500 c 256,15,16
 951 1491 951 1491 994 1474.5 c 128,-1,17
 1037 1458 1037 1458 1073 1438 c 1,18,-1
 1073 1231 l 1,19,20
 1000 1292 1000 1292 914 1324 c 0,21,22
 871 1340 871 1340 828.5 1348 c 128,-1,23
 786 1356 786 1356 741 1356 c 0,24,25
 644 1356 644 1356 570.5 1318 c 128,-1,26
 497 1280 497 1280 448 1204 c 0,27,28
 350 1052 350 1052 350 745 c 0,29,30
 350 439 350 439 448 287 c 256,31,32
 546 135 546 135 743 135 c 0,33,34
 788 135 788 135 830.5 143 c 128,-1,35
 873 151 873 151 916 167 c 0,36,37
 999 198 999 198 1073 260 c 1,38,-1
 1073 53 l 1,39,40
 995 12 995 12 915 -9 c 0,41,42
 876 -19 876 -19 831.5 -24 c 128,-1,43
 787 -29 787 -29 742 -29 c 0,0,1
EndSplineSet
Validated: 1
EndChar

StartChar: Cacute
Encoding: 262 262 15
Width: 1233
Flags: W
LayerCount: 2
Fore
SplineSet
762 1852 m 1,0,-1
 948 1852 l 1,1,-1
 719 1588 l 1,2,-1
 565 1588 l 1,3,-1
 762 1852 l 1,0,-1
742 -29 m 0,4,5
 599 -29 599 -29 487 22.5 c 128,-1,6
 375 74 375 74 297 174 c 0,7,8
 218 276 218 276 178.5 419.5 c 128,-1,9
 139 563 139 563 139 744 c 256,10,11
 139 925 139 925 178.5 1069 c 128,-1,12
 218 1213 218 1213 298 1316 c 0,13,14
 376 1416 376 1416 487.5 1468 c 128,-1,15
 599 1520 599 1520 742 1520 c 0,16,17
 787 1520 787 1520 831.5 1515 c 128,-1,18
 876 1510 876 1510 915 1500 c 0,19,20
 953 1490 953 1490 994 1474 c 128,-1,21
 1035 1458 1035 1458 1073 1438 c 1,22,-1
 1073 1231 l 1,23,24
 1000 1292 1000 1292 914 1324 c 0,25,26
 871 1340 871 1340 828.5 1348 c 128,-1,27
 786 1356 786 1356 741 1356 c 0,28,29
 644 1356 644 1356 570.5 1318 c 128,-1,30
 497 1280 497 1280 448 1204 c 0,31,32
 350 1052 350 1052 350 745 c 0,33,34
 350 439 350 439 448 287 c 0,35,36
 495 215 495 215 567.5 175 c 128,-1,37
 640 135 640 135 742 135 c 0,38,39
 831 135 831 135 916 167 c 0,40,41
 999 198 999 198 1073 260 c 1,42,-1
 1073 53 l 1,43,44
 995 12 995 12 915 -9 c 0,45,46
 876 -19 876 -19 831.5 -24 c 128,-1,47
 787 -29 787 -29 742 -29 c 0,4,5
EndSplineSet
Validated: 1
EndChar

StartChar: Ccaron
Encoding: 268 268 16
Width: 1233
Flags: W
LayerCount: 2
Fore
SplineSet
401 1852 m 1,0,-1
 541 1852 l 1,1,-1
 706 1674 l 1,2,-1
 872 1852 l 1,3,-1
 1012 1852 l 1,4,-1
 801 1586 l 1,5,-1
 612 1586 l 1,6,-1
 401 1852 l 1,0,-1
742 -29 m 0,7,8
 599 -29 599 -29 487 22.5 c 128,-1,9
 375 74 375 74 297 174 c 0,10,11
 218 276 218 276 178.5 419.5 c 128,-1,12
 139 563 139 563 139 744 c 256,13,14
 139 925 139 925 178.5 1069 c 128,-1,15
 218 1213 218 1213 298 1316 c 0,16,17
 376 1416 376 1416 487.5 1468 c 128,-1,18
 599 1520 599 1520 742 1520 c 0,19,20
 787 1520 787 1520 831.5 1515 c 128,-1,21
 876 1510 876 1510 915 1500 c 0,22,23
 953 1490 953 1490 994 1474 c 128,-1,24
 1035 1458 1035 1458 1073 1438 c 1,25,-1
 1073 1231 l 1,26,27
 1000 1292 1000 1292 914 1324 c 0,28,29
 871 1340 871 1340 828.5 1348 c 128,-1,30
 786 1356 786 1356 741 1356 c 0,31,32
 644 1356 644 1356 570.5 1318 c 128,-1,33
 497 1280 497 1280 448 1204 c 0,34,35
 350 1052 350 1052 350 745 c 0,36,37
 350 439 350 439 448 287 c 0,38,39
 495 215 495 215 567.5 175 c 128,-1,40
 640 135 640 135 742 135 c 0,41,42
 831 135 831 135 916 167 c 0,43,44
 999 198 999 198 1073 260 c 1,45,-1
 1073 53 l 1,46,47
 995 12 995 12 915 -9 c 0,48,49
 876 -19 876 -19 831.5 -24 c 128,-1,50
 787 -29 787 -29 742 -29 c 0,7,8
EndSplineSet
Validated: 1
EndChar

StartChar: Ccedilla
Encoding: 199 199 17
Width: 1233
Flags: W
LayerCount: 2
Fore
SplineSet
741 1356 m 0,0,1
 644 1356 644 1356 570.5 1318 c 128,-1,2
 497 1280 497 1280 448 1204 c 0,3,4
 350 1052 350 1052 350 745 c 0,5,6
 350 439 350 439 448 287 c 0,7,8
 495 215 495 215 567.5 175 c 128,-1,9
 640 135 640 135 742 135 c 0,10,11
 831 135 831 135 916 167 c 0,12,13
 999 198 999 198 1073 260 c 1,14,-1
 1073 53 l 1,15,16
 995 12 995 12 915 -9 c 0,17,18
 893 -14 893 -14 869.5 -18.5 c 128,-1,19
 846 -23 846 -23 822 -25 c 1,20,21
 863 -75 863 -75 883 -115 c 0,22,23
 894 -138 894 -138 901.5 -163.5 c 128,-1,24
 909 -189 909 -189 909 -219 c 0,25,26
 909 -259 909 -259 894 -293 c 128,-1,27
 879 -327 879 -327 849 -350 c 0,28,29
 820 -372 820 -372 776 -383.5 c 128,-1,30
 732 -395 732 -395 670 -395 c 0,31,32
 626 -395 626 -395 583 -389 c 0,33,34
 537 -383 537 -383 495 -371 c 1,35,-1
 495 -240 l 1,36,37
 512 -248 512 -248 530 -254.5 c 128,-1,38
 548 -261 548 -261 567 -265 c 256,39,40
 586 -269 586 -269 607.5 -270.5 c 128,-1,41
 629 -272 629 -272 646 -272 c 0,42,43
 710 -272 710 -272 740 -248 c 256,44,45
 770 -224 770 -224 770 -180 c 0,46,47
 770 -148 770 -148 748 -105 c 0,48,49
 732 -73 732 -73 701 -28 c 1,50,51
 572 -20 572 -20 470.5 31 c 128,-1,52
 369 82 369 82 297 174 c 0,53,54
 218 276 218 276 178.5 419.5 c 128,-1,55
 139 563 139 563 139 744 c 256,56,57
 139 925 139 925 178.5 1069 c 128,-1,58
 218 1213 218 1213 298 1316 c 0,59,60
 376 1416 376 1416 487.5 1468 c 128,-1,61
 599 1520 599 1520 742 1520 c 0,62,63
 787 1520 787 1520 831.5 1515 c 128,-1,64
 876 1510 876 1510 915 1500 c 0,65,66
 953 1490 953 1490 994 1474 c 128,-1,67
 1035 1458 1035 1458 1073 1438 c 1,68,-1
 1073 1231 l 1,69,70
 1000 1292 1000 1292 914 1324 c 0,71,72
 871 1340 871 1340 828.5 1348 c 128,-1,73
 786 1356 786 1356 741 1356 c 0,0,1
EndSplineSet
Validated: 1
EndChar

StartChar: Cdotaccent
Encoding: 266 266 18
Width: 1233
Flags: W
LayerCount: 2
Fore
SplineSet
618 1647 m 2,0,1
 588 1647 588 1647 588 1677 c 2,2,-1
 588 1822 l 2,3,4
 588 1852 588 1852 618 1852 c 2,5,-1
 763 1852 l 2,6,7
 793 1852 793 1852 793 1822 c 2,8,-1
 793 1677 l 2,9,10
 793 1647 793 1647 763 1647 c 2,11,-1
 618 1647 l 2,0,1
744 -29 m 0,12,13
 600 -29 600 -29 487.5 23 c 128,-1,14
 375 75 375 75 297.5 174 c 128,-1,15
 220 273 220 273 179.5 416.5 c 128,-1,16
 139 560 139 560 139 743 c 0,17,18
 139 927 139 927 179.5 1071 c 128,-1,19
 220 1215 220 1215 298 1315 c 128,-1,20
 376 1415 376 1415 488.5 1467.5 c 128,-1,21
 601 1520 601 1520 745 1520 c 0,22,23
 834 1520 834 1520 914.5 1500 c 128,-1,24
 995 1480 995 1480 1073 1438 c 1,25,-1
 1073 1231 l 1,26,27
 1000 1291 1000 1291 916.5 1323.5 c 128,-1,28
 833 1356 833 1356 740 1356 c 0,29,30
 546 1356 546 1356 448 1204 c 128,-1,31
 350 1052 350 1052 350 745 c 0,32,33
 350 135 350 135 740 135 c 0,34,35
 831 135 831 135 915.5 167 c 128,-1,36
 1000 199 1000 199 1073 260 c 1,37,-1
 1073 53 l 1,38,39
 995 11 995 11 914.5 -9 c 128,-1,40
 834 -29 834 -29 744 -29 c 0,12,13
EndSplineSet
Validated: 1
EndChar

StartChar: D
Encoding: 68 68 19
Width: 1233
Flags: W
LayerCount: 2
Fore
SplineSet
137 1493 m 1,0,-1
 440 1493 l 2,1,2
 782 1493 782 1493 944 1311 c 256,3,4
 1106 1129 1106 1129 1106 745 c 0,5,6
 1106 363 1106 363 944 182 c 0,7,8
 782 0 782 0 440 0 c 2,9,-1
 137 0 l 1,10,-1
 137 1493 l 1,0,-1
436 166 m 2,11,12
 691 166 691 166 792 292 c 0,13,14
 843 355 843 355 868 467 c 128,-1,15
 893 579 893 579 893 747 c 0,16,17
 893 912 893 912 868.5 1025.5 c 128,-1,18
 844 1139 844 1139 793 1202 c 0,19,20
 742 1266 742 1266 651.5 1296.5 c 128,-1,21
 561 1327 561 1327 436 1327 c 2,22,-1
 340 1327 l 1,23,-1
 340 166 l 1,24,-1
 436 166 l 2,11,12
EndSplineSet
Validated: 1
EndChar

StartChar: Eth
Encoding: 208 208 20
Width: 1233
Flags: W
LayerCount: 2
Fore
SplineSet
133 709 m 1,0,-1
 8 709 l 1,1,-1
 8 858 l 1,2,-1
 133 858 l 1,3,-1
 133 1493 l 1,4,-1
 436 1493 l 2,5,6
 778 1493 778 1493 940 1311 c 256,7,8
 1102 1129 1102 1129 1102 746 c 256,9,10
 1102 363 1102 363 940 182 c 0,11,12
 857 89 857 89 730.5 44.5 c 128,-1,13
 604 0 604 0 436 0 c 2,14,-1
 133 0 l 1,15,-1
 133 709 l 1,0,-1
436 166 m 2,16,17
 505 166 505 166 560 174.5 c 128,-1,18
 615 183 615 183 658 199 c 128,-1,19
 701 215 701 215 733.5 238.5 c 128,-1,20
 766 262 766 262 791 293 c 0,21,22
 843 358 843 358 868 468 c 128,-1,23
 893 578 893 578 893 748 c 0,24,25
 893 835 893 835 886.5 905 c 128,-1,26
 880 975 880 975 867.5 1030 c 128,-1,27
 855 1085 855 1085 836 1126.5 c 128,-1,28
 817 1168 817 1168 792 1200 c 0,29,30
 739 1267 739 1267 652.5 1297 c 128,-1,31
 566 1327 566 1327 436 1327 c 2,32,-1
 340 1327 l 1,33,-1
 340 858 l 1,34,-1
 604 858 l 1,35,-1
 604 709 l 1,36,-1
 340 709 l 1,37,-1
 340 166 l 1,38,-1
 436 166 l 2,16,17
EndSplineSet
Validated: 1
EndChar

StartChar: Dcaron
Encoding: 270 270 21
Width: 1233
Flags: W
LayerCount: 2
Fore
SplineSet
233 1852 m 1,0,-1
 373 1852 l 1,1,-1
 538 1674 l 1,2,-1
 704 1852 l 1,3,-1
 844 1852 l 1,4,-1
 633 1586 l 1,5,-1
 444 1586 l 1,6,-1
 233 1852 l 1,0,-1
137 1493 m 1,7,-1
 440 1493 l 2,8,9
 611 1493 611 1493 736.5 1448 c 128,-1,10
 862 1403 862 1403 944 1311 c 128,-1,11
 1026 1219 1026 1219 1066 1078.5 c 128,-1,12
 1106 938 1106 938 1106 747 c 0,13,14
 1106 555 1106 555 1066 414.5 c 128,-1,15
 1026 274 1026 274 944 182 c 128,-1,16
 862 90 862 90 736.5 45 c 128,-1,17
 611 0 611 0 440 0 c 2,18,-1
 137 0 l 1,19,-1
 137 1493 l 1,7,-1
436 166 m 2,20,21
 564 166 564 166 651.5 195 c 128,-1,22
 739 224 739 224 792.5 291.5 c 128,-1,23
 846 359 846 359 869.5 470.5 c 128,-1,24
 893 582 893 582 893 746 c 0,25,26
 893 911 893 911 869.5 1022.5 c 128,-1,27
 846 1134 846 1134 792 1201.5 c 128,-1,28
 738 1269 738 1269 650.5 1298 c 128,-1,29
 563 1327 563 1327 436 1327 c 2,30,-1
 340 1327 l 1,31,-1
 340 166 l 1,32,-1
 436 166 l 2,20,21
EndSplineSet
Validated: 1
EndChar

StartChar: Dcroat
Encoding: 272 272 22
Width: 1233
Flags: W
LayerCount: 2
Fore
SplineSet
133 709 m 1,0,-1
 8 709 l 1,1,-1
 8 858 l 1,2,-1
 133 858 l 1,3,-1
 133 1493 l 1,4,-1
 436 1493 l 2,5,6
 607 1493 607 1493 732 1448 c 128,-1,7
 857 1403 857 1403 939.5 1311 c 128,-1,8
 1022 1219 1022 1219 1062 1078.5 c 128,-1,9
 1102 938 1102 938 1102 746 c 0,10,11
 1102 555 1102 555 1062 414.5 c 128,-1,12
 1022 274 1022 274 940 182 c 128,-1,13
 858 90 858 90 732.5 45 c 128,-1,14
 607 0 607 0 436 0 c 2,15,-1
 133 0 l 1,16,-1
 133 709 l 1,0,-1
436 166 m 2,17,18
 564 166 564 166 651.5 195 c 128,-1,19
 739 224 739 224 792.5 291.5 c 128,-1,20
 846 359 846 359 869.5 470.5 c 128,-1,21
 893 582 893 582 893 746 c 0,22,23
 893 911 893 911 869.5 1022.5 c 128,-1,24
 846 1134 846 1134 792 1201.5 c 128,-1,25
 738 1269 738 1269 650.5 1298 c 128,-1,26
 563 1327 563 1327 436 1327 c 2,27,-1
 340 1327 l 1,28,-1
 340 858 l 1,29,-1
 604 858 l 1,30,-1
 604 709 l 1,31,-1
 340 709 l 1,32,-1
 340 166 l 1,33,-1
 436 166 l 2,17,18
EndSplineSet
Validated: 1
EndChar

StartChar: E
Encoding: 69 69 23
Width: 1233
Flags: W
LayerCount: 2
Fore
SplineSet
197 1493 m 1,0,-1
 1083 1493 l 1,1,-1
 1083 1323 l 1,2,-1
 399 1323 l 1,3,-1
 399 881 l 1,4,-1
 1053 881 l 1,5,-1
 1053 711 l 1,6,-1
 399 711 l 1,7,-1
 399 170 l 1,8,-1
 1102 170 l 1,9,-1
 1102 0 l 1,10,-1
 197 0 l 1,11,-1
 197 1493 l 1,0,-1
EndSplineSet
Validated: 1
EndChar

StartChar: Eacute
Encoding: 201 201 24
Width: 1233
Flags: W
LayerCount: 2
Fore
SplineSet
690 1856 m 1,0,-1
 876 1856 l 1,1,-1
 647 1592 l 1,2,-1
 493 1592 l 1,3,-1
 690 1856 l 1,0,-1
197 1493 m 1,4,-1
 1083 1493 l 1,5,-1
 1083 1323 l 1,6,-1
 399 1323 l 1,7,-1
 399 881 l 1,8,-1
 1053 881 l 1,9,-1
 1053 711 l 1,10,-1
 399 711 l 1,11,-1
 399 170 l 1,12,-1
 1102 170 l 1,13,-1
 1102 0 l 1,14,-1
 197 0 l 1,15,-1
 197 1493 l 1,4,-1
EndSplineSet
Validated: 1
EndChar

StartChar: Ecaron
Encoding: 282 282 25
Width: 1233
Flags: W
LayerCount: 2
Fore
SplineSet
347 1852 m 1,0,-1
 487 1852 l 1,1,-1
 652 1674 l 1,2,-1
 818 1852 l 1,3,-1
 958 1852 l 1,4,-1
 747 1586 l 1,5,-1
 558 1586 l 1,6,-1
 347 1852 l 1,0,-1
197 1493 m 1,7,-1
 1083 1493 l 1,8,-1
 1083 1323 l 1,9,-1
 399 1323 l 1,10,-1
 399 881 l 1,11,-1
 1053 881 l 1,12,-1
 1053 711 l 1,13,-1
 399 711 l 1,14,-1
 399 170 l 1,15,-1
 1102 170 l 1,16,-1
 1102 0 l 1,17,-1
 197 0 l 1,18,-1
 197 1493 l 1,7,-1
EndSplineSet
Validated: 1
EndChar

StartChar: Ecircumflex
Encoding: 202 202 26
Width: 1233
Flags: W
LayerCount: 2
Fore
SplineSet
540 1852 m 1,0,-1
 729 1852 l 1,1,-1
 940 1586 l 1,2,-1
 800 1586 l 1,3,-1
 634 1764 l 1,4,-1
 469 1586 l 1,5,-1
 329 1586 l 1,6,-1
 540 1852 l 1,0,-1
197 1493 m 1,7,-1
 1083 1493 l 1,8,-1
 1083 1323 l 1,9,-1
 399 1323 l 1,10,-1
 399 881 l 1,11,-1
 1053 881 l 1,12,-1
 1053 711 l 1,13,-1
 399 711 l 1,14,-1
 399 170 l 1,15,-1
 1102 170 l 1,16,-1
 1102 0 l 1,17,-1
 197 0 l 1,18,-1
 197 1493 l 1,7,-1
EndSplineSet
Validated: 1
EndChar

StartChar: Edieresis
Encoding: 203 203 27
Width: 1233
Flags: W
LayerCount: 2
Fore
SplineSet
367 1647 m 2,0,1
 337 1647 337 1647 337 1677 c 2,2,-1
 337 1820 l 2,3,4
 337 1850 337 1850 367 1850 c 2,5,-1
 510 1850 l 2,6,7
 540 1850 540 1850 540 1820 c 2,8,-1
 540 1677 l 2,9,10
 540 1647 540 1647 510 1647 c 2,11,-1
 367 1647 l 2,0,1
759 1647 m 2,12,13
 729 1647 729 1647 729 1677 c 2,14,-1
 729 1820 l 2,15,16
 729 1850 729 1850 759 1850 c 2,17,-1
 901 1850 l 2,18,19
 931 1850 931 1850 931 1820 c 2,20,-1
 931 1677 l 2,21,22
 931 1647 931 1647 901 1647 c 2,23,-1
 759 1647 l 2,12,13
197 1493 m 1,24,-1
 1083 1493 l 1,25,-1
 1083 1323 l 1,26,-1
 399 1323 l 1,27,-1
 399 881 l 1,28,-1
 1053 881 l 1,29,-1
 1053 711 l 1,30,-1
 399 711 l 1,31,-1
 399 170 l 1,32,-1
 1102 170 l 1,33,-1
 1102 0 l 1,34,-1
 197 0 l 1,35,-1
 197 1493 l 1,24,-1
EndSplineSet
Validated: 1
EndChar

StartChar: Edotaccent
Encoding: 278 278 28
Width: 1233
Flags: W
LayerCount: 2
Fore
SplineSet
561 1647 m 2,0,1
 531 1647 531 1647 531 1677 c 2,2,-1
 531 1822 l 2,3,4
 531 1852 531 1852 561 1852 c 2,5,-1
 706 1852 l 2,6,7
 736 1852 736 1852 736 1822 c 2,8,-1
 736 1677 l 2,9,10
 736 1647 736 1647 706 1647 c 2,11,-1
 561 1647 l 2,0,1
197 1493 m 1,12,-1
 1083 1493 l 1,13,-1
 1083 1323 l 1,14,-1
 399 1323 l 1,15,-1
 399 881 l 1,16,-1
 1053 881 l 1,17,-1
 1053 711 l 1,18,-1
 399 711 l 1,19,-1
 399 170 l 1,20,-1
 1102 170 l 1,21,-1
 1102 0 l 1,22,-1
 197 0 l 1,23,-1
 197 1493 l 1,12,-1
EndSplineSet
Validated: 1
EndChar

StartChar: Egrave
Encoding: 200 200 29
Width: 1233
Flags: W
LayerCount: 2
Fore
SplineSet
395 1856 m 1,0,-1
 579 1856 l 1,1,-1
 776 1592 l 1,2,-1
 622 1592 l 1,3,-1
 395 1856 l 1,0,-1
197 1493 m 1,4,-1
 1083 1493 l 1,5,-1
 1083 1323 l 1,6,-1
 399 1323 l 1,7,-1
 399 881 l 1,8,-1
 1053 881 l 1,9,-1
 1053 711 l 1,10,-1
 399 711 l 1,11,-1
 399 170 l 1,12,-1
 1102 170 l 1,13,-1
 1102 0 l 1,14,-1
 197 0 l 1,15,-1
 197 1493 l 1,4,-1
EndSplineSet
Validated: 1
EndChar

StartChar: Emacron
Encoding: 274 274 30
Width: 1233
Flags: W
LayerCount: 2
Fore
SplineSet
335 1800 m 1,0,-1
 933 1800 l 1,1,-1
 933 1652 l 1,2,-1
 335 1652 l 1,3,-1
 335 1800 l 1,0,-1
197 1493 m 1,4,-1
 1083 1493 l 1,5,-1
 1083 1323 l 1,6,-1
 399 1323 l 1,7,-1
 399 881 l 1,8,-1
 1053 881 l 1,9,-1
 1053 711 l 1,10,-1
 399 711 l 1,11,-1
 399 170 l 1,12,-1
 1102 170 l 1,13,-1
 1102 0 l 1,14,-1
 197 0 l 1,15,-1
 197 1493 l 1,4,-1
EndSplineSet
Validated: 1
EndChar

StartChar: Eogonek
Encoding: 280 280 31
Width: 1233
Flags: W
LayerCount: 2
Fore
SplineSet
952 0 m 1,0,1
 904 -65 904 -65 884 -107.5 c 128,-1,2
 864 -150 864 -150 864 -184 c 0,3,4
 864 -226 864 -226 892 -249 c 128,-1,5
 920 -272 920 -272 974 -272 c 0,6,7
 1036 -272 1036 -272 1098 -242 c 1,8,-1
 1098 -375 l 1,9,10
 1056 -386 1056 -386 1024 -390.5 c 128,-1,11
 992 -395 992 -395 955 -395 c 0,12,13
 843 -395 843 -395 784 -352.5 c 128,-1,14
 725 -310 725 -310 725 -221 c 0,15,16
 725 -196 725 -196 730.5 -171.5 c 128,-1,17
 736 -147 736 -147 748.5 -121 c 128,-1,18
 761 -95 761 -95 781.5 -65 c 128,-1,19
 802 -35 802 -35 833 0 c 1,20,-1
 197 0 l 1,21,-1
 197 1493 l 1,22,-1
 1083 1493 l 1,23,-1
 1083 1323 l 1,24,-1
 399 1323 l 1,25,-1
 399 881 l 1,26,-1
 1053 881 l 1,27,-1
 1053 711 l 1,28,-1
 399 711 l 1,29,-1
 399 170 l 1,30,-1
 1102 170 l 1,31,-1
 1102 0 l 1,32,-1
 952 0 l 1,0,1
EndSplineSet
Validated: 1
EndChar

StartChar: F
Encoding: 70 70 32
Width: 1233
Flags: W
LayerCount: 2
Fore
SplineSet
233 1493 m 1,0,-1
 1112 1493 l 1,1,-1
 1112 1323 l 1,2,-1
 436 1323 l 1,3,-1
 436 863 l 1,4,-1
 1049 863 l 1,5,-1
 1049 693 l 1,6,-1
 436 693 l 1,7,-1
 436 0 l 1,8,-1
 233 0 l 1,9,-1
 233 1493 l 1,0,-1
EndSplineSet
Validated: 1
EndChar

StartChar: G
Encoding: 71 71 33
Width: 1233
Flags: W
LayerCount: 2
Fore
SplineSet
700 -29 m 0,0,1
 557 -29 557 -29 446.5 23 c 128,-1,2
 336 75 336 75 259 175 c 0,3,4
 181 277 181 277 141.5 420 c 128,-1,5
 102 563 102 563 102 744 c 0,6,7
 102 930 102 930 143 1073.5 c 128,-1,8
 184 1217 184 1217 262 1317 c 256,9,10
 340 1417 340 1417 451.5 1468.5 c 128,-1,11
 563 1520 563 1520 703 1520 c 0,12,13
 803 1520 803 1520 887 1494 c 0,14,15
 931 1480 931 1480 972.5 1459.5 c 128,-1,16
 1014 1439 1014 1439 1053 1413 c 1,17,-1
 1053 1206 l 1,18,19
 1010 1247 1010 1247 967.5 1275 c 128,-1,20
 925 1303 925 1303 887 1320 c 0,21,22
 843 1339 843 1339 797 1347.5 c 128,-1,23
 751 1356 751 1356 706 1356 c 0,24,25
 609 1356 609 1356 536 1319 c 128,-1,26
 463 1282 463 1282 412 1204 c 0,27,28
 362 1127 362 1127 337.5 1013.5 c 128,-1,29
 313 900 313 900 313 743 c 0,30,31
 313 585 313 585 337 472.5 c 128,-1,32
 361 360 361 360 409 285 c 0,33,34
 503 135 503 135 703 135 c 0,35,36
 735 135 735 135 764.5 139 c 128,-1,37
 794 143 794 143 820 151 c 0,38,39
 844 159 844 159 867 170.5 c 128,-1,40
 890 182 890 182 911 199 c 1,41,-1
 911 600 l 1,42,-1
 694 600 l 1,43,-1
 694 766 l 1,44,-1
 1104 766 l 1,45,-1
 1104 123 l 1,46,47
 1023 48 1023 48 922 10 c 0,48,49
 820 -29 820 -29 700 -29 c 0,0,1
EndSplineSet
Validated: 1
EndChar

StartChar: Gbreve
Encoding: 286 286 34
Width: 1233
Flags: W
LayerCount: 2
Fore
SplineSet
656 1589 m 0,0,1
 366 1589 366 1589 343 1831 c 1,2,-1
 462 1831 l 1,3,4
 474 1777 474 1777 523.5 1748.5 c 128,-1,5
 573 1720 573 1720 658 1720 c 0,6,7
 821 1720 821 1720 851 1831 c 1,8,-1
 970 1831 l 1,9,10
 959 1711 959 1711 880 1650 c 128,-1,11
 801 1589 801 1589 656 1589 c 0,0,1
700 -29 m 0,12,13
 557 -29 557 -29 446.5 23 c 128,-1,14
 336 75 336 75 259 175 c 0,15,16
 181 277 181 277 141.5 420 c 128,-1,17
 102 563 102 563 102 744 c 256,18,19
 102 925 102 925 141.5 1069 c 128,-1,20
 181 1213 181 1213 261 1316 c 0,21,22
 337 1413 337 1413 448 1466.5 c 128,-1,23
 559 1520 559 1520 702 1520 c 0,24,25
 749 1520 749 1520 796 1514 c 128,-1,26
 843 1508 843 1508 887 1494 c 256,27,28
 931 1480 931 1480 974 1459 c 128,-1,29
 1017 1438 1017 1438 1053 1413 c 1,30,-1
 1053 1206 l 1,31,32
 1010 1247 1010 1247 967.5 1275 c 128,-1,33
 925 1303 925 1303 887 1320 c 0,34,35
 843 1339 843 1339 797 1347.5 c 128,-1,36
 751 1356 751 1356 706 1356 c 0,37,38
 609 1356 609 1356 536 1319 c 128,-1,39
 463 1282 463 1282 412 1204 c 0,40,41
 362 1127 362 1127 337.5 1013.5 c 128,-1,42
 313 900 313 900 313 743 c 0,43,44
 313 585 313 585 337 472.5 c 128,-1,45
 361 360 361 360 409 285 c 0,46,47
 459 207 459 207 531.5 171 c 128,-1,48
 604 135 604 135 703 135 c 0,49,50
 738 135 738 135 767 139 c 128,-1,51
 796 143 796 143 820 151 c 256,52,53
 844 159 844 159 867 170.5 c 128,-1,54
 890 182 890 182 911 199 c 1,55,-1
 911 600 l 1,56,-1
 694 600 l 1,57,-1
 694 766 l 1,58,-1
 1104 766 l 1,59,-1
 1104 123 l 1,60,61
 1023 48 1023 48 922 10 c 0,62,63
 820 -29 820 -29 700 -29 c 0,12,13
EndSplineSet
Validated: 1
EndChar

StartChar: Gcaron
Encoding: 486 486 35
Width: 1233
Flags: W
LayerCount: 2
Fore
SplineSet
401 1852 m 1,0,-1
 541 1852 l 1,1,-1
 706 1674 l 1,2,-1
 872 1852 l 1,3,-1
 1012 1852 l 1,4,-1
 801 1586 l 1,5,-1
 612 1586 l 1,6,-1
 401 1852 l 1,0,-1
700 -29 m 0,7,8
 559 -29 559 -29 448 23 c 128,-1,9
 337 75 337 75 260 174 c 128,-1,10
 183 273 183 273 142.5 416.5 c 128,-1,11
 102 560 102 560 102 743 c 0,12,13
 102 927 102 927 143 1071 c 128,-1,14
 184 1215 184 1215 261.5 1315 c 128,-1,15
 339 1415 339 1415 450.5 1467.5 c 128,-1,16
 562 1520 562 1520 703 1520 c 0,17,18
 802 1520 802 1520 887 1493.5 c 128,-1,19
 972 1467 972 1467 1053 1413 c 1,20,-1
 1053 1206 l 1,21,22
 972 1284 972 1284 887.5 1320 c 128,-1,23
 803 1356 803 1356 707 1356 c 0,24,25
 507 1356 507 1356 410 1203.5 c 128,-1,26
 313 1051 313 1051 313 739 c 0,27,28
 313 432 313 432 409 283.5 c 128,-1,29
 505 135 505 135 705 135 c 0,30,31
 769 135 769 135 819 150.5 c 128,-1,32
 869 166 869 166 911 199 c 1,33,-1
 911 600 l 1,34,-1
 694 600 l 1,35,-1
 694 766 l 1,36,-1
 1104 766 l 1,37,-1
 1104 123 l 1,38,39
 1023 48 1023 48 922 9.5 c 128,-1,40
 821 -29 821 -29 700 -29 c 0,7,8
EndSplineSet
Validated: 1
EndChar

StartChar: uni0122
Encoding: 290 290 36
Width: 1233
Flags: W
LayerCount: 2
Fore
SplineSet
700 -29 m 0,0,1
 559 -29 559 -29 448 23 c 128,-1,2
 337 75 337 75 260 174 c 128,-1,3
 183 273 183 273 142.5 416.5 c 128,-1,4
 102 560 102 560 102 743 c 0,5,6
 102 927 102 927 143 1071 c 128,-1,7
 184 1215 184 1215 261.5 1315 c 128,-1,8
 339 1415 339 1415 450.5 1467.5 c 128,-1,9
 562 1520 562 1520 703 1520 c 0,10,11
 802 1520 802 1520 887 1493.5 c 128,-1,12
 972 1467 972 1467 1053 1413 c 1,13,-1
 1053 1206 l 1,14,15
 972 1284 972 1284 887.5 1320 c 128,-1,16
 803 1356 803 1356 707 1356 c 0,17,18
 507 1356 507 1356 410 1203.5 c 128,-1,19
 313 1051 313 1051 313 739 c 0,20,21
 313 432 313 432 409 283.5 c 128,-1,22
 505 135 505 135 705 135 c 0,23,24
 769 135 769 135 819 150.5 c 128,-1,25
 869 166 869 166 911 199 c 1,26,-1
 911 600 l 1,27,-1
 694 600 l 1,28,-1
 694 766 l 1,29,-1
 1104 766 l 1,30,-1
 1104 123 l 1,31,32
 1023 48 1023 48 922 9.5 c 128,-1,33
 821 -29 821 -29 700 -29 c 0,0,1
630 -228 m 1,34,-1
 869 -228 l 1,35,-1
 682 -573 l 1,36,-1
 536 -573 l 1,37,-1
 630 -228 l 1,34,-1
EndSplineSet
Validated: 1
EndChar

StartChar: Gdotaccent
Encoding: 288 288 37
Width: 1233
Flags: W
LayerCount: 2
Fore
SplineSet
618 1647 m 2,0,1
 588 1647 588 1647 588 1677 c 2,2,-1
 588 1822 l 2,3,4
 588 1852 588 1852 618 1852 c 2,5,-1
 763 1852 l 2,6,7
 793 1852 793 1852 793 1822 c 2,8,-1
 793 1677 l 2,9,10
 793 1647 793 1647 763 1647 c 2,11,-1
 618 1647 l 2,0,1
700 -29 m 0,12,13
 559 -29 559 -29 448 23 c 128,-1,14
 337 75 337 75 260 174 c 128,-1,15
 183 273 183 273 142.5 416.5 c 128,-1,16
 102 560 102 560 102 743 c 0,17,18
 102 927 102 927 143 1071 c 128,-1,19
 184 1215 184 1215 261.5 1315 c 128,-1,20
 339 1415 339 1415 450.5 1467.5 c 128,-1,21
 562 1520 562 1520 703 1520 c 0,22,23
 802 1520 802 1520 887 1493.5 c 128,-1,24
 972 1467 972 1467 1053 1413 c 1,25,-1
 1053 1206 l 1,26,27
 972 1284 972 1284 887.5 1320 c 128,-1,28
 803 1356 803 1356 707 1356 c 0,29,30
 507 1356 507 1356 410 1203.5 c 128,-1,31
 313 1051 313 1051 313 739 c 0,32,33
 313 432 313 432 409 283.5 c 128,-1,34
 505 135 505 135 705 135 c 0,35,36
 769 135 769 135 819 150.5 c 128,-1,37
 869 166 869 166 911 199 c 1,38,-1
 911 600 l 1,39,-1
 694 600 l 1,40,-1
 694 766 l 1,41,-1
 1104 766 l 1,42,-1
 1104 123 l 1,43,44
 1023 48 1023 48 922 9.5 c 128,-1,45
 821 -29 821 -29 700 -29 c 0,12,13
EndSplineSet
Validated: 1
EndChar

StartChar: H
Encoding: 72 72 38
Width: 1233
Flags: W
LayerCount: 2
Fore
SplineSet
137 1493 m 1,0,-1
 340 1493 l 1,1,-1
 340 881 l 1,2,-1
 893 881 l 1,3,-1
 893 1493 l 1,4,-1
 1096 1493 l 1,5,-1
 1096 0 l 1,6,-1
 893 0 l 1,7,-1
 893 711 l 1,8,-1
 340 711 l 1,9,-1
 340 0 l 1,10,-1
 137 0 l 1,11,-1
 137 1493 l 1,0,-1
EndSplineSet
Validated: 1
EndChar

StartChar: Hbar
Encoding: 294 294 39
Width: 1233
Flags: W
LayerCount: 2
Fore
SplineSet
137 1105 m 1,0,-1
 3 1105 l 1,1,-1
 3 1269 l 1,2,-1
 137 1269 l 1,3,-1
 137 1493 l 1,4,-1
 339 1493 l 1,5,-1
 339 1269 l 1,6,-1
 893 1269 l 1,7,-1
 893 1493 l 1,8,-1
 1095 1493 l 1,9,-1
 1095 1269 l 1,10,-1
 1230 1269 l 1,11,-1
 1230 1105 l 1,12,-1
 1095 1105 l 1,13,-1
 1095 0 l 1,14,-1
 893 0 l 1,15,-1
 893 711 l 1,16,-1
 339 711 l 1,17,-1
 339 0 l 1,18,-1
 137 0 l 1,19,-1
 137 1105 l 1,0,-1
893 881 m 1,20,-1
 893 1105 l 1,21,-1
 339 1105 l 1,22,-1
 339 881 l 1,23,-1
 893 881 l 1,20,-1
EndSplineSet
Validated: 1
EndChar

StartChar: I
Encoding: 73 73 40
Width: 1233
Flags: W
LayerCount: 2
Fore
SplineSet
201 170 m 1,0,-1
 514 170 l 1,1,-1
 514 1323 l 1,2,-1
 201 1323 l 1,3,-1
 201 1493 l 1,4,-1
 1030 1493 l 1,5,-1
 1030 1323 l 1,6,-1
 717 1323 l 1,7,-1
 717 170 l 1,8,-1
 1030 170 l 1,9,-1
 1030 0 l 1,10,-1
 201 0 l 1,11,-1
 201 170 l 1,0,-1
EndSplineSet
Validated: 1
EndChar

StartChar: Iacute
Encoding: 205 205 41
Width: 1233
Flags: W
LayerCount: 2
Fore
SplineSet
691 1856 m 1,0,-1
 877 1856 l 1,1,-1
 648 1592 l 1,2,-1
 494 1592 l 1,3,-1
 691 1856 l 1,0,-1
201 170 m 1,4,-1
 514 170 l 1,5,-1
 514 1323 l 1,6,-1
 201 1323 l 1,7,-1
 201 1493 l 1,8,-1
 1030 1493 l 1,9,-1
 1030 1323 l 1,10,-1
 717 1323 l 1,11,-1
 717 170 l 1,12,-1
 1030 170 l 1,13,-1
 1030 0 l 1,14,-1
 201 0 l 1,15,-1
 201 170 l 1,4,-1
EndSplineSet
Validated: 1
EndChar

StartChar: Icircumflex
Encoding: 206 206 42
Width: 1233
Flags: W
LayerCount: 2
Fore
SplineSet
521 1852 m 1,0,-1
 710 1852 l 1,1,-1
 921 1586 l 1,2,-1
 781 1586 l 1,3,-1
 615 1764 l 1,4,-1
 450 1586 l 1,5,-1
 310 1586 l 1,6,-1
 521 1852 l 1,0,-1
201 170 m 1,7,-1
 514 170 l 1,8,-1
 514 1323 l 1,9,-1
 201 1323 l 1,10,-1
 201 1493 l 1,11,-1
 1030 1493 l 1,12,-1
 1030 1323 l 1,13,-1
 717 1323 l 1,14,-1
 717 170 l 1,15,-1
 1030 170 l 1,16,-1
 1030 0 l 1,17,-1
 201 0 l 1,18,-1
 201 170 l 1,7,-1
EndSplineSet
Validated: 1
EndChar

StartChar: Idieresis
Encoding: 207 207 43
Width: 1233
Flags: W
LayerCount: 2
Fore
SplineSet
349 1647 m 2,0,1
 319 1647 319 1647 319 1677 c 2,2,-1
 319 1820 l 2,3,4
 319 1850 319 1850 349 1850 c 2,5,-1
 492 1850 l 2,6,7
 522 1850 522 1850 522 1820 c 2,8,-1
 522 1677 l 2,9,10
 522 1647 522 1647 492 1647 c 2,11,-1
 349 1647 l 2,0,1
741 1647 m 2,12,13
 711 1647 711 1647 711 1677 c 2,14,-1
 711 1820 l 2,15,16
 711 1850 711 1850 741 1850 c 2,17,-1
 883 1850 l 2,18,19
 913 1850 913 1850 913 1820 c 2,20,-1
 913 1677 l 2,21,22
 913 1647 913 1647 883 1647 c 2,23,-1
 741 1647 l 2,12,13
201 170 m 1,24,-1
 514 170 l 1,25,-1
 514 1323 l 1,26,-1
 201 1323 l 1,27,-1
 201 1493 l 1,28,-1
 1030 1493 l 1,29,-1
 1030 1323 l 1,30,-1
 717 1323 l 1,31,-1
 717 170 l 1,32,-1
 1030 170 l 1,33,-1
 1030 0 l 1,34,-1
 201 0 l 1,35,-1
 201 170 l 1,24,-1
EndSplineSet
Validated: 1
EndChar

StartChar: Idotaccent
Encoding: 304 304 44
Width: 1233
Flags: W
LayerCount: 2
Fore
SplineSet
543 1647 m 2,0,1
 513 1647 513 1647 513 1677 c 2,2,-1
 513 1822 l 2,3,4
 513 1852 513 1852 543 1852 c 2,5,-1
 688 1852 l 2,6,7
 718 1852 718 1852 718 1822 c 2,8,-1
 718 1677 l 2,9,10
 718 1647 718 1647 688 1647 c 2,11,-1
 543 1647 l 2,0,1
201 170 m 1,12,-1
 514 170 l 1,13,-1
 514 1323 l 1,14,-1
 201 1323 l 1,15,-1
 201 1493 l 1,16,-1
 1030 1493 l 1,17,-1
 1030 1323 l 1,18,-1
 717 1323 l 1,19,-1
 717 170 l 1,20,-1
 1030 170 l 1,21,-1
 1030 0 l 1,22,-1
 201 0 l 1,23,-1
 201 170 l 1,12,-1
EndSplineSet
Validated: 1
EndChar

StartChar: Igrave
Encoding: 204 204 45
Width: 1233
Flags: W
LayerCount: 2
Fore
SplineSet
372 1856 m 1,0,-1
 556 1856 l 1,1,-1
 753 1592 l 1,2,-1
 599 1592 l 1,3,-1
 372 1856 l 1,0,-1
201 170 m 1,4,-1
 514 170 l 1,5,-1
 514 1323 l 1,6,-1
 201 1323 l 1,7,-1
 201 1493 l 1,8,-1
 1030 1493 l 1,9,-1
 1030 1323 l 1,10,-1
 717 1323 l 1,11,-1
 717 170 l 1,12,-1
 1030 170 l 1,13,-1
 1030 0 l 1,14,-1
 201 0 l 1,15,-1
 201 170 l 1,4,-1
EndSplineSet
Validated: 1
EndChar

StartChar: Imacron
Encoding: 298 298 46
Width: 1233
Flags: W
LayerCount: 2
Fore
SplineSet
335 1800 m 1,0,-1
 933 1800 l 1,1,-1
 933 1652 l 1,2,-1
 335 1652 l 1,3,-1
 335 1800 l 1,0,-1
201 170 m 1,4,-1
 514 170 l 1,5,-1
 514 1323 l 1,6,-1
 201 1323 l 1,7,-1
 201 1493 l 1,8,-1
 1030 1493 l 1,9,-1
 1030 1323 l 1,10,-1
 717 1323 l 1,11,-1
 717 170 l 1,12,-1
 1030 170 l 1,13,-1
 1030 0 l 1,14,-1
 201 0 l 1,15,-1
 201 170 l 1,4,-1
EndSplineSet
Validated: 1
EndChar

StartChar: Iogonek
Encoding: 302 302 47
Width: 1233
Flags: W
LayerCount: 2
Fore
SplineSet
717 1323 m 1,0,-1
 717 170 l 1,1,-1
 1030 170 l 1,2,-1
 1030 0 l 1,3,-1
 717 0 l 1,4,5
 669 -65 669 -65 649 -107.5 c 128,-1,6
 629 -150 629 -150 629 -184 c 0,7,8
 629 -226 629 -226 657 -249 c 128,-1,9
 685 -272 685 -272 739 -272 c 0,10,11
 801 -272 801 -272 863 -242 c 1,12,-1
 863 -375 l 1,13,14
 821 -386 821 -386 789 -390.5 c 128,-1,15
 757 -395 757 -395 720 -395 c 0,16,17
 608 -395 608 -395 549 -352.5 c 128,-1,18
 490 -310 490 -310 490 -221 c 0,19,20
 490 -196 490 -196 495.5 -171.5 c 128,-1,21
 501 -147 501 -147 513.5 -121 c 128,-1,22
 526 -95 526 -95 546.5 -65 c 128,-1,23
 567 -35 567 -35 598 0 c 1,24,-1
 201 0 l 1,25,-1
 201 170 l 1,26,-1
 514 170 l 1,27,-1
 514 1323 l 1,28,-1
 201 1323 l 1,29,-1
 201 1493 l 1,30,-1
 1030 1493 l 1,31,-1
 1030 1323 l 1,32,-1
 717 1323 l 1,0,-1
EndSplineSet
Validated: 1
EndChar

StartChar: Itilde
Encoding: 296 296 48
Width: 1233
Flags: W
LayerCount: 2
Fore
SplineSet
287 1633 m 1,0,1
 287 1681 287 1681 299 1721 c 128,-1,2
 311 1761 311 1761 339 1793 c 0,3,4
 390 1852 390 1852 476 1852 c 0,5,6
 508 1852 508 1852 542 1844 c 0,7,8
 557 1840 557 1840 576 1831.5 c 128,-1,9
 595 1823 595 1823 621 1809 c 2,10,-1
 678 1779 l 2,11,12
 699 1766 699 1766 718 1760 c 0,13,14
 734 1754 734 1754 750 1754 c 0,15,16
 781 1754 781 1754 801 1780 c 256,17,18
 821 1806 821 1806 821 1846 c 2,19,-1
 821 1852 l 1,20,-1
 946 1852 l 1,21,22
 945 1753 945 1753 893 1693 c 0,23,24
 842 1633 842 1633 757 1633 c 0,25,26
 726 1633 726 1633 694 1641 c 0,27,28
 680 1645 680 1645 661.5 1652.5 c 128,-1,29
 643 1660 643 1660 612 1676 c 2,30,-1
 555 1709 l 2,31,32
 532 1722 532 1722 514 1729 c 0,33,34
 506 1732 506 1732 498 1733 c 128,-1,35
 490 1734 490 1734 485 1734 c 0,36,37
 470 1734 470 1734 456 1728 c 128,-1,38
 442 1722 442 1722 432 1709 c 0,39,40
 412 1683 412 1683 412 1639 c 2,41,-1
 412 1633 l 1,42,-1
 287 1633 l 1,0,1
201 170 m 1,43,-1
 514 170 l 1,44,-1
 514 1323 l 1,45,-1
 201 1323 l 1,46,-1
 201 1493 l 1,47,-1
 1030 1493 l 1,48,-1
 1030 1323 l 1,49,-1
 717 1323 l 1,50,-1
 717 170 l 1,51,-1
 1030 170 l 1,52,-1
 1030 0 l 1,53,-1
 201 0 l 1,54,-1
 201 170 l 1,43,-1
EndSplineSet
Validated: 1
EndChar

StartChar: J
Encoding: 74 74 49
Width: 1233
Flags: W
LayerCount: 2
Fore
SplineSet
502 -29 m 0,0,1
 399 -29 399 -29 307 -7 c 0,2,3
 210 16 210 16 109 61 c 1,4,-1
 109 297 l 1,5,6
 200 216 200 216 297 176 c 0,7,8
 396 135 396 135 499 135 c 0,9,10
 566 135 566 135 617.5 153 c 128,-1,11
 669 171 669 171 698 210 c 0,12,13
 754 284 754 284 754 487 c 2,14,-1
 754 1323 l 1,15,-1
 373 1323 l 1,16,-1
 373 1493 l 1,17,-1
 956 1493 l 1,18,-1
 956 487 l 2,19,20
 956 343 956 343 930.5 246.5 c 128,-1,21
 905 150 905 150 850 89 c 256,22,23
 795 28 795 28 709.5 -0.5 c 128,-1,24
 624 -29 624 -29 502 -29 c 0,0,1
EndSplineSet
Validated: 1
EndChar

StartChar: K
Encoding: 75 75 50
Width: 1233
Flags: W
LayerCount: 2
Fore
SplineSet
137 1493 m 1,0,-1
 340 1493 l 1,1,-1
 340 829 l 1,2,-1
 971 1493 l 1,3,-1
 1208 1493 l 1,4,-1
 627 883 l 1,5,-1
 1225 0 l 1,6,-1
 981 0 l 1,7,-1
 494 748 l 1,8,-1
 340 584 l 1,9,-1
 340 0 l 1,10,-1
 137 0 l 1,11,-1
 137 1493 l 1,0,-1
EndSplineSet
Validated: 1
EndChar

StartChar: uni0136
Encoding: 310 310 51
Width: 1233
Flags: W
LayerCount: 2
Fore
SplineSet
137 1493 m 1,0,-1
 340 1493 l 1,1,-1
 340 829 l 1,2,-1
 971 1493 l 1,3,-1
 1208 1493 l 1,4,-1
 627 883 l 1,5,-1
 1225 0 l 1,6,-1
 981 0 l 1,7,-1
 494 748 l 1,8,-1
 340 584 l 1,9,-1
 340 0 l 1,10,-1
 137 0 l 1,11,-1
 137 1493 l 1,0,-1
608 -199 m 1,12,-1
 847 -199 l 1,13,-1
 660 -544 l 1,14,-1
 514 -544 l 1,15,-1
 608 -199 l 1,12,-1
EndSplineSet
Validated: 1
EndChar

StartChar: L
Encoding: 76 76 52
Width: 1233
Flags: W
LayerCount: 2
Fore
SplineSet
215 1493 m 1,0,-1
 418 1493 l 1,1,-1
 418 170 l 1,2,-1
 1139 170 l 1,3,-1
 1139 0 l 1,4,-1
 215 0 l 1,5,-1
 215 1493 l 1,0,-1
EndSplineSet
Validated: 1
EndChar

StartChar: Lacute
Encoding: 313 313 53
Width: 1233
Flags: W
LayerCount: 2
Fore
SplineSet
412 1856 m 1,0,-1
 598 1856 l 1,1,-1
 369 1592 l 1,2,-1
 215 1592 l 1,3,-1
 412 1856 l 1,0,-1
215 1493 m 1,4,-1
 418 1493 l 1,5,-1
 418 170 l 1,6,-1
 1139 170 l 1,7,-1
 1139 0 l 1,8,-1
 215 0 l 1,9,-1
 215 1493 l 1,4,-1
EndSplineSet
Validated: 1
EndChar

StartChar: Lcaron
Encoding: 317 317 54
Width: 1233
Flags: W
LayerCount: 2
Fore
SplineSet
215 1493 m 1,0,-1
 418 1493 l 1,1,-1
 418 170 l 1,2,-1
 1139 170 l 1,3,-1
 1139 0 l 1,4,-1
 215 0 l 1,5,-1
 215 1493 l 1,0,-1
718 1491 m 1,6,-1
 916 1491 l 1,7,-1
 803 1115 l 1,8,-1
 649 1115 l 1,9,-1
 718 1491 l 1,6,-1
EndSplineSet
Validated: 1
EndChar

StartChar: uni013B
Encoding: 315 315 55
Width: 1233
Flags: W
LayerCount: 2
Fore
SplineSet
215 1493 m 1,0,-1
 418 1493 l 1,1,-1
 418 170 l 1,2,-1
 1139 170 l 1,3,-1
 1139 0 l 1,4,-1
 215 0 l 1,5,-1
 215 1493 l 1,0,-1
604 -199 m 1,6,-1
 843 -199 l 1,7,-1
 656 -544 l 1,8,-1
 510 -544 l 1,9,-1
 604 -199 l 1,6,-1
EndSplineSet
Validated: 1
EndChar

StartChar: Lslash
Encoding: 321 321 56
Width: 1233
Flags: W
LayerCount: 2
Fore
SplineSet
215 571 m 1,0,-1
 70 465 l 1,1,-1
 -10 575 l 1,2,-1
 215 733 l 1,3,-1
 215 1493 l 1,4,-1
 418 1493 l 1,5,-1
 418 877 l 1,6,-1
 733 1096 l 1,7,-1
 811 985 l 1,8,-1
 418 711 l 1,9,-1
 418 170 l 1,10,-1
 1139 170 l 1,11,-1
 1139 0 l 1,12,-1
 215 0 l 1,13,-1
 215 571 l 1,0,-1
EndSplineSet
Validated: 1
EndChar

StartChar: M
Encoding: 77 77 57
Width: 1233
Flags: W
LayerCount: 2
Fore
SplineSet
86 1493 m 1,0,-1
 356 1493 l 1,1,-1
 614 733 l 1,2,-1
 874 1493 l 1,3,-1
 1145 1493 l 1,4,-1
 1145 0 l 1,5,-1
 958 0 l 1,6,-1
 958 1319 l 1,7,-1
 692 532 l 1,8,-1
 539 532 l 1,9,-1
 272 1319 l 1,10,-1
 272 0 l 1,11,-1
 86 0 l 1,12,-1
 86 1493 l 1,0,-1
EndSplineSet
Validated: 1
EndChar

StartChar: N
Encoding: 78 78 58
Width: 1233
Flags: W
LayerCount: 2
Fore
SplineSet
139 1493 m 1,0,-1
 395 1493 l 1,1,-1
 899 264 l 1,2,-1
 899 1493 l 1,3,-1
 1094 1493 l 1,4,-1
 1094 0 l 1,5,-1
 838 0 l 1,6,-1
 334 1229 l 1,7,-1
 334 0 l 1,8,-1
 139 0 l 1,9,-1
 139 1493 l 1,0,-1
EndSplineSet
Validated: 1
EndChar

StartChar: Nacute
Encoding: 323 323 59
Width: 1233
Flags: W
LayerCount: 2
Fore
SplineSet
731 1856 m 1,0,-1
 917 1856 l 1,1,-1
 688 1592 l 1,2,-1
 534 1592 l 1,3,-1
 731 1856 l 1,0,-1
139 1493 m 1,4,-1
 395 1493 l 1,5,-1
 899 264 l 1,6,-1
 899 1493 l 1,7,-1
 1094 1493 l 1,8,-1
 1094 0 l 1,9,-1
 838 0 l 1,10,-1
 334 1229 l 1,11,-1
 334 0 l 1,12,-1
 139 0 l 1,13,-1
 139 1493 l 1,4,-1
EndSplineSet
Validated: 1
EndChar

StartChar: Ncaron
Encoding: 327 327 60
Width: 1233
Flags: W
LayerCount: 2
Fore
SplineSet
347 1852 m 1,0,-1
 487 1852 l 1,1,-1
 652 1674 l 1,2,-1
 818 1852 l 1,3,-1
 958 1852 l 1,4,-1
 747 1586 l 1,5,-1
 558 1586 l 1,6,-1
 347 1852 l 1,0,-1
139 1493 m 1,7,-1
 395 1493 l 1,8,-1
 899 264 l 1,9,-1
 899 1493 l 1,10,-1
 1094 1493 l 1,11,-1
 1094 0 l 1,12,-1
 838 0 l 1,13,-1
 334 1229 l 1,14,-1
 334 0 l 1,15,-1
 139 0 l 1,16,-1
 139 1493 l 1,7,-1
EndSplineSet
Validated: 1
EndChar

StartChar: uni0145
Encoding: 325 325 61
Width: 1233
Flags: W
LayerCount: 2
Fore
SplineSet
139 1493 m 1,0,-1
 395 1493 l 1,1,-1
 899 264 l 1,2,-1
 899 1493 l 1,3,-1
 1094 1493 l 1,4,-1
 1094 0 l 1,5,-1
 838 0 l 1,6,-1
 334 1229 l 1,7,-1
 334 0 l 1,8,-1
 139 0 l 1,9,-1
 139 1493 l 1,0,-1
544 -199 m 1,10,-1
 783 -199 l 1,11,-1
 596 -544 l 1,12,-1
 450 -544 l 1,13,-1
 544 -199 l 1,10,-1
EndSplineSet
Validated: 1
EndChar

StartChar: Eng
Encoding: 330 330 62
Width: 1233
Flags: W
LayerCount: 2
Fore
SplineSet
536 -270 m 1,0,-1
 703 -270 l 2,1,2
 748 -270 748 -270 781.5 -255 c 128,-1,3
 815 -240 815 -240 837.5 -208 c 128,-1,4
 860 -176 860 -176 871 -124.5 c 128,-1,5
 882 -73 882 -73 882 0 c 2,6,-1
 882 1009 l 2,7,8
 882 1189 882 1189 824 1273.5 c 128,-1,9
 766 1358 766 1358 642 1358 c 0,10,11
 500 1358 500 1358 424.5 1249.5 c 128,-1,12
 349 1141 349 1141 349 937 c 2,13,-1
 349 0 l 1,14,-1
 147 0 l 1,15,-1
 147 1493 l 1,16,-1
 331 1493 l 1,17,-1
 349 1295 l 1,18,19
 403 1407 403 1407 494.5 1464.5 c 128,-1,20
 586 1522 586 1522 713 1522 c 0,21,22
 1085 1522 1085 1522 1085 999 c 2,23,-1
 1085 -20 l 2,24,25
 1085 -216 1085 -216 996 -321 c 128,-1,26
 907 -426 907 -426 741 -426 c 2,27,-1
 536 -426 l 1,28,-1
 536 -270 l 1,0,-1
EndSplineSet
Validated: 1
EndChar

StartChar: Ntilde
Encoding: 209 209 63
Width: 1233
Flags: W
LayerCount: 2
Fore
SplineSet
287 1633 m 1,0,1
 287 1681 287 1681 299 1721 c 128,-1,2
 311 1761 311 1761 339 1793 c 0,3,4
 390 1852 390 1852 476 1852 c 0,5,6
 508 1852 508 1852 542 1844 c 0,7,8
 557 1840 557 1840 576 1831.5 c 128,-1,9
 595 1823 595 1823 621 1809 c 2,10,-1
 678 1779 l 2,11,12
 699 1766 699 1766 718 1760 c 0,13,14
 734 1754 734 1754 750 1754 c 0,15,16
 781 1754 781 1754 801 1780 c 256,17,18
 821 1806 821 1806 821 1846 c 2,19,-1
 821 1852 l 1,20,-1
 946 1852 l 1,21,22
 945 1753 945 1753 893 1693 c 0,23,24
 842 1633 842 1633 757 1633 c 0,25,26
 726 1633 726 1633 694 1641 c 0,27,28
 680 1645 680 1645 661.5 1652.5 c 128,-1,29
 643 1660 643 1660 612 1676 c 2,30,-1
 555 1709 l 2,31,32
 532 1722 532 1722 514 1729 c 0,33,34
 506 1732 506 1732 498 1733 c 128,-1,35
 490 1734 490 1734 485 1734 c 0,36,37
 470 1734 470 1734 456 1728 c 128,-1,38
 442 1722 442 1722 432 1709 c 0,39,40
 412 1683 412 1683 412 1639 c 2,41,-1
 412 1633 l 1,42,-1
 287 1633 l 1,0,1
139 1493 m 1,43,-1
 395 1493 l 1,44,-1
 899 264 l 1,45,-1
 899 1493 l 1,46,-1
 1094 1493 l 1,47,-1
 1094 0 l 1,48,-1
 838 0 l 1,49,-1
 334 1229 l 1,50,-1
 334 0 l 1,51,-1
 139 0 l 1,52,-1
 139 1493 l 1,43,-1
EndSplineSet
Validated: 1
EndChar

StartChar: O
Encoding: 79 79 64
Width: 1233
Flags: W
LayerCount: 2
Fore
SplineSet
616 -29 m 0,0,1
 363 -29 363 -29 240 162 c 0,2,3
 117 352 117 352 117 745 c 0,4,5
 117 1137 117 1137 241 1328 c 0,6,7
 303 1424 303 1424 395.5 1472 c 128,-1,8
 488 1520 488 1520 616 1520 c 0,9,10
 739 1520 739 1520 834 1474 c 128,-1,11
 929 1428 929 1428 993 1328 c 0,12,13
 1116 1136 1116 1136 1116 745 c 0,14,15
 1116 355 1116 355 993 163 c 0,16,17
 929 63 929 63 834 17 c 128,-1,18
 739 -29 739 -29 616 -29 c 0,0,1
616 135 m 0,19,20
 770 135 770 135 838 276 c 0,21,22
 905 414 905 414 905 745 c 0,23,24
 905 1075 905 1075 838 1215 c 0,25,26
 770 1356 770 1356 616 1356 c 0,27,28
 463 1356 463 1356 396 1215 c 0,29,30
 328 1073 328 1073 328 745 c 0,31,32
 328 418 328 418 396 276 c 0,33,34
 463 135 463 135 616 135 c 0,19,20
EndSplineSet
Validated: 1
Substitution2: "Single Substitution lookup 16 subtable" ordmasculine
Substitution2: "'aalt' Access All Alternates in Latin lookup 0 subtable" ordmasculine
EndChar

StartChar: Oacute
Encoding: 211 211 65
Width: 1233
Flags: W
LayerCount: 2
Fore
SplineSet
701 1856 m 1,0,-1
 887 1856 l 1,1,-1
 658 1592 l 1,2,-1
 504 1592 l 1,3,-1
 701 1856 l 1,0,-1
616 -29 m 0,4,5
 363 -29 363 -29 240 162 c 0,6,7
 117 352 117 352 117 745 c 0,8,9
 117 1137 117 1137 241 1328 c 0,10,11
 303 1424 303 1424 395.5 1472 c 128,-1,12
 488 1520 488 1520 616 1520 c 0,13,14
 739 1520 739 1520 834 1474 c 128,-1,15
 929 1428 929 1428 993 1328 c 0,16,17
 1116 1136 1116 1136 1116 745 c 0,18,19
 1116 355 1116 355 993 163 c 0,20,21
 929 63 929 63 834 17 c 128,-1,22
 739 -29 739 -29 616 -29 c 0,4,5
616 135 m 0,23,24
 770 135 770 135 838 276 c 0,25,26
 905 414 905 414 905 745 c 0,27,28
 905 1075 905 1075 838 1215 c 0,29,30
 770 1356 770 1356 616 1356 c 0,31,32
 463 1356 463 1356 396 1215 c 0,33,34
 328 1073 328 1073 328 745 c 0,35,36
 328 418 328 418 396 276 c 0,37,38
 463 135 463 135 616 135 c 0,23,24
EndSplineSet
Validated: 1
EndChar

StartChar: Ocircumflex
Encoding: 212 212 66
Width: 1233
Flags: W
LayerCount: 2
Fore
SplineSet
540 1852 m 1,0,-1
 729 1852 l 1,1,-1
 940 1586 l 1,2,-1
 800 1586 l 1,3,-1
 634 1764 l 1,4,-1
 469 1586 l 1,5,-1
 329 1586 l 1,6,-1
 540 1852 l 1,0,-1
616 -29 m 0,7,8
 363 -29 363 -29 240 162 c 0,9,10
 117 352 117 352 117 745 c 0,11,12
 117 1137 117 1137 241 1328 c 0,13,14
 303 1424 303 1424 395.5 1472 c 128,-1,15
 488 1520 488 1520 616 1520 c 0,16,17
 739 1520 739 1520 834 1474 c 128,-1,18
 929 1428 929 1428 993 1328 c 0,19,20
 1116 1136 1116 1136 1116 745 c 0,21,22
 1116 355 1116 355 993 163 c 0,23,24
 929 63 929 63 834 17 c 128,-1,25
 739 -29 739 -29 616 -29 c 0,7,8
616 135 m 0,26,27
 770 135 770 135 838 276 c 0,28,29
 905 414 905 414 905 745 c 0,30,31
 905 1075 905 1075 838 1215 c 0,32,33
 770 1356 770 1356 616 1356 c 0,34,35
 463 1356 463 1356 396 1215 c 0,36,37
 328 1073 328 1073 328 745 c 0,38,39
 328 418 328 418 396 276 c 0,40,41
 463 135 463 135 616 135 c 0,26,27
EndSplineSet
Validated: 1
EndChar

StartChar: Odieresis
Encoding: 214 214 67
Width: 1233
Flags: W
LayerCount: 2
Fore
SplineSet
349 1647 m 2,0,1
 319 1647 319 1647 319 1677 c 2,2,-1
 319 1820 l 2,3,4
 319 1850 319 1850 349 1850 c 2,5,-1
 492 1850 l 2,6,7
 522 1850 522 1850 522 1820 c 2,8,-1
 522 1677 l 2,9,10
 522 1647 522 1647 492 1647 c 2,11,-1
 349 1647 l 2,0,1
741 1647 m 2,12,13
 711 1647 711 1647 711 1677 c 2,14,-1
 711 1820 l 2,15,16
 711 1850 711 1850 741 1850 c 2,17,-1
 883 1850 l 2,18,19
 913 1850 913 1850 913 1820 c 2,20,-1
 913 1677 l 2,21,22
 913 1647 913 1647 883 1647 c 2,23,-1
 741 1647 l 2,12,13
616 -29 m 0,24,25
 363 -29 363 -29 240 162 c 0,26,27
 117 352 117 352 117 745 c 0,28,29
 117 1137 117 1137 241 1328 c 0,30,31
 303 1424 303 1424 395.5 1472 c 128,-1,32
 488 1520 488 1520 616 1520 c 0,33,34
 739 1520 739 1520 834 1474 c 128,-1,35
 929 1428 929 1428 993 1328 c 0,36,37
 1116 1136 1116 1136 1116 745 c 0,38,39
 1116 355 1116 355 993 163 c 0,40,41
 929 63 929 63 834 17 c 128,-1,42
 739 -29 739 -29 616 -29 c 0,24,25
616 135 m 0,43,44
 770 135 770 135 838 276 c 0,45,46
 905 414 905 414 905 745 c 0,47,48
 905 1075 905 1075 838 1215 c 0,49,50
 770 1356 770 1356 616 1356 c 0,51,52
 463 1356 463 1356 396 1215 c 0,53,54
 328 1073 328 1073 328 745 c 0,55,56
 328 418 328 418 396 276 c 0,57,58
 463 135 463 135 616 135 c 0,43,44
EndSplineSet
Validated: 1
EndChar

StartChar: Ograve
Encoding: 210 210 68
Width: 1233
Flags: W
LayerCount: 2
Fore
SplineSet
382 1856 m 1,0,-1
 566 1856 l 1,1,-1
 763 1592 l 1,2,-1
 609 1592 l 1,3,-1
 382 1856 l 1,0,-1
616 -29 m 0,4,5
 363 -29 363 -29 240 162 c 0,6,7
 117 352 117 352 117 745 c 0,8,9
 117 1137 117 1137 241 1328 c 0,10,11
 303 1424 303 1424 395.5 1472 c 128,-1,12
 488 1520 488 1520 616 1520 c 0,13,14
 739 1520 739 1520 834 1474 c 128,-1,15
 929 1428 929 1428 993 1328 c 0,16,17
 1116 1136 1116 1136 1116 745 c 0,18,19
 1116 355 1116 355 993 163 c 0,20,21
 929 63 929 63 834 17 c 128,-1,22
 739 -29 739 -29 616 -29 c 0,4,5
616 135 m 0,23,24
 770 135 770 135 838 276 c 0,25,26
 905 414 905 414 905 745 c 0,27,28
 905 1075 905 1075 838 1215 c 0,29,30
 770 1356 770 1356 616 1356 c 0,31,32
 463 1356 463 1356 396 1215 c 0,33,34
 328 1073 328 1073 328 745 c 0,35,36
 328 418 328 418 396 276 c 0,37,38
 463 135 463 135 616 135 c 0,23,24
EndSplineSet
Validated: 1
EndChar

StartChar: Ohorn
Encoding: 416 416 69
Width: 1233
Flags: W
LayerCount: 2
Fore
SplineSet
1171 1557 m 1,0,1
 1182 1515 1182 1515 1186.5 1483 c 128,-1,2
 1191 1451 1191 1451 1191 1414 c 0,3,4
 1191 1302 1191 1302 1148.5 1243 c 128,-1,5
 1106 1184 1106 1184 1017 1184 c 0,6,7
 981 1184 981 1184 944 1196 c 1,8,9
 1005 1020 1005 1020 1005 745 c 0,10,11
 1005 355 1005 355 881 163 c 128,-1,12
 757 -29 757 -29 504 -29 c 0,13,14
 253 -29 253 -29 129.5 161.5 c 128,-1,15
 6 352 6 352 6 744 c 256,16,17
 6 1136 6 1136 129.5 1328 c 128,-1,18
 253 1520 253 1520 505 1520 c 0,19,20
 725 1520 725 1520 845 1376 c 1,21,22
 890 1347 890 1347 921.5 1335 c 128,-1,23
 953 1323 953 1323 980 1323 c 0,24,25
 1022 1323 1022 1323 1045 1351 c 128,-1,26
 1068 1379 1068 1379 1068 1433 c 0,27,28
 1068 1495 1068 1495 1038 1557 c 1,29,-1
 1171 1557 l 1,0,1
727 276 m 0,30,31
 794 414 794 414 794 745 c 0,32,33
 794 1075 794 1075 727 1215 c 0,34,35
 659 1356 659 1356 505 1356 c 0,36,37
 352 1356 352 1356 285 1215 c 0,38,39
 217 1073 217 1073 217 745 c 0,40,41
 217 418 217 418 285 276 c 0,42,43
 352 135 352 135 505 135 c 0,44,45
 659 135 659 135 727 276 c 0,30,31
EndSplineSet
Validated: 1
EndChar

StartChar: Ohungarumlaut
Encoding: 336 336 70
Width: 1233
Flags: W
LayerCount: 2
Fore
SplineSet
541 1859 m 1,0,-1
 727 1859 l 1,1,-1
 498 1595 l 1,2,-1
 344 1595 l 1,3,-1
 541 1859 l 1,0,-1
860 1859 m 1,4,-1
 1046 1859 l 1,5,-1
 817 1595 l 1,6,-1
 663 1595 l 1,7,-1
 860 1859 l 1,4,-1
615 -29 m 0,8,9
 364 -29 364 -29 240.5 161.5 c 128,-1,10
 117 352 117 352 117 744 c 256,11,12
 117 1136 117 1136 240.5 1328 c 128,-1,13
 364 1520 364 1520 616 1520 c 0,14,15
 869 1520 869 1520 992.5 1328 c 128,-1,16
 1116 1136 1116 1136 1116 745 c 0,17,18
 1116 355 1116 355 992 163 c 128,-1,19
 868 -29 868 -29 615 -29 c 0,8,9
616 135 m 0,20,21
 770 135 770 135 838 276 c 0,22,23
 905 414 905 414 905 745 c 0,24,25
 905 1075 905 1075 838 1215 c 0,26,27
 770 1356 770 1356 616 1356 c 0,28,29
 463 1356 463 1356 396 1215 c 0,30,31
 328 1073 328 1073 328 745 c 0,32,33
 328 418 328 418 396 276 c 0,34,35
 463 135 463 135 616 135 c 0,20,21
EndSplineSet
Validated: 1
EndChar

StartChar: Omacron
Encoding: 332 332 71
Width: 1233
Flags: W
LayerCount: 2
Fore
SplineSet
317 1800 m 1,0,-1
 915 1800 l 1,1,-1
 915 1652 l 1,2,-1
 317 1652 l 1,3,-1
 317 1800 l 1,0,-1
615 -29 m 0,4,5
 364 -29 364 -29 240.5 161.5 c 128,-1,6
 117 352 117 352 117 744 c 256,7,8
 117 1136 117 1136 240.5 1328 c 128,-1,9
 364 1520 364 1520 616 1520 c 0,10,11
 869 1520 869 1520 992.5 1328 c 128,-1,12
 1116 1136 1116 1136 1116 745 c 0,13,14
 1116 355 1116 355 992 163 c 128,-1,15
 868 -29 868 -29 615 -29 c 0,4,5
616 135 m 0,16,17
 770 135 770 135 838 276 c 0,18,19
 905 414 905 414 905 745 c 0,20,21
 905 1075 905 1075 838 1215 c 0,22,23
 770 1356 770 1356 616 1356 c 0,24,25
 463 1356 463 1356 396 1215 c 0,26,27
 328 1073 328 1073 328 745 c 0,28,29
 328 418 328 418 396 276 c 0,30,31
 463 135 463 135 616 135 c 0,16,17
EndSplineSet
Validated: 1
EndChar

StartChar: Oslash
Encoding: 216 216 72
Width: 1233
Flags: W
LayerCount: 2
Fore
SplineSet
8 0 m 1,0,-1
 186 252 l 1,1,2
 169 291 169 291 157.5 339 c 128,-1,3
 146 387 146 387 136 456 c 0,4,5
 127 519 127 519 122 587.5 c 128,-1,6
 117 656 117 656 117 740 c 0,7,8
 117 943 117 943 147.5 1087 c 128,-1,9
 178 1231 178 1231 241 1328 c 0,10,11
 305 1427 305 1427 398 1473.5 c 128,-1,12
 491 1520 491 1520 615 1520 c 0,13,14
 675 1520 675 1520 724.5 1509.5 c 128,-1,15
 774 1499 774 1499 818 1479 c 0,16,17
 903 1439 903 1439 961 1358 c 1,18,-1
 1100 1559 l 1,19,-1
 1200 1485 l 1,20,-1
 1032 1247 l 1,21,22
 1053 1206 1053 1206 1068.5 1152 c 128,-1,23
 1084 1098 1084 1098 1095 1037 c 0,24,25
 1105 979 1105 979 1110.5 904.5 c 128,-1,26
 1116 830 1116 830 1116 744 c 0,27,28
 1116 355 1116 355 993 163 c 0,29,30
 933 69 933 69 839.5 20 c 128,-1,31
 746 -29 746 -29 612 -29 c 0,32,33
 555 -29 555 -29 504 -19.5 c 128,-1,34
 453 -10 453 -10 405 12 c 0,35,36
 315 52 315 52 254 133 c 1,37,-1
 111 -70 l 1,38,-1
 8 0 l 1,0,-1
842 1190 m 1,39,40
 829 1232 829 1232 807.5 1263 c 128,-1,41
 786 1294 786 1294 760 1314 c 0,42,43
 731 1336 731 1336 694 1346 c 128,-1,44
 657 1356 657 1356 615 1356 c 0,45,46
 531 1356 531 1356 478.5 1318 c 128,-1,47
 426 1280 426 1280 394 1208 c 0,48,49
 377 1170 377 1170 364.5 1121 c 128,-1,50
 352 1072 352 1072 344 1008.5 c 128,-1,51
 336 945 336 945 332 865 c 128,-1,52
 328 785 328 785 328 686 c 0,53,54
 328 664 328 664 328 647 c 128,-1,55
 328 630 328 630 328.5 615 c 128,-1,56
 329 600 329 600 329.5 586 c 128,-1,57
 330 572 330 572 331 556 c 0,58,59
 332 542 332 542 332.5 524 c 128,-1,60
 333 506 333 506 338 471 c 1,61,-1
 842 1190 l 1,39,40
617 135 m 0,62,63
 699 135 699 135 752.5 172 c 128,-1,64
 806 209 806 209 838 277 c 0,65,66
 854 310 854 310 866.5 353.5 c 128,-1,67
 879 397 879 397 887.5 454.5 c 128,-1,68
 896 512 896 512 900.5 584.5 c 128,-1,69
 905 657 905 657 905 748 c 0,70,71
 905 800 905 800 903.5 844.5 c 128,-1,72
 902 889 902 889 900 923 c 0,73,74
 898 956 898 956 894.5 983 c 128,-1,75
 891 1010 891 1010 885 1036 c 1,76,-1
 371 303 l 1,77,78
 401 225 401 225 467 180 c 0,79,80
 501 157 501 157 538 146 c 128,-1,81
 575 135 575 135 617 135 c 0,62,63
EndSplineSet
Validated: 1
EndChar

StartChar: Oslashacute
Encoding: 510 510 73
Width: 1233
Flags: W
LayerCount: 2
Fore
SplineSet
691 1856 m 1,0,-1
 877 1856 l 1,1,-1
 648 1592 l 1,2,-1
 494 1592 l 1,3,-1
 691 1856 l 1,0,-1
8 0 m 1,4,-1
 186 252 l 1,5,6
 170 288 170 288 157 340 c 128,-1,7
 144 392 144 392 135 456 c 128,-1,8
 126 520 126 520 121.5 593 c 128,-1,9
 117 666 117 666 117 744 c 0,10,11
 117 1135 117 1135 240 1327.5 c 128,-1,12
 363 1520 363 1520 614 1520 c 0,13,14
 846 1520 846 1520 961 1358 c 1,15,-1
 1100 1559 l 1,16,-1
 1200 1485 l 1,17,-1
 1032 1247 l 1,18,19
 1074 1166 1074 1166 1095 1037.5 c 128,-1,20
 1116 909 1116 909 1116 744 c 0,21,22
 1116 354 1116 354 992 162.5 c 128,-1,23
 868 -29 868 -29 613 -29 c 0,24,25
 375 -29 375 -29 254 133 c 1,26,-1
 111 -70 l 1,27,-1
 8 0 l 1,4,-1
842 1190 m 1,28,29
 818 1268 818 1268 762 1312 c 128,-1,30
 706 1356 706 1356 615 1356 c 0,31,32
 530 1356 530 1356 478.5 1318 c 128,-1,33
 427 1280 427 1280 395 1210 c 0,34,35
 358 1128 358 1128 343 998 c 128,-1,36
 328 868 328 868 328 682 c 0,37,38
 328 606 328 606 330.5 555.5 c 128,-1,39
 333 505 333 505 338 471 c 1,40,-1
 842 1190 l 1,28,29
619 135 m 0,41,42
 770 135 770 135 838 277 c 0,43,44
 854 310 854 310 866.5 353.5 c 128,-1,45
 879 397 879 397 887.5 454.5 c 128,-1,46
 896 512 896 512 900.5 586 c 128,-1,47
 905 660 905 660 905 755 c 0,48,49
 905 855 905 855 900 923 c 128,-1,50
 895 991 895 991 885 1036 c 1,51,-1
 371 303 l 1,52,53
 403 222 403 222 467.5 178.5 c 128,-1,54
 532 135 532 135 619 135 c 0,41,42
EndSplineSet
Validated: 1
EndChar

StartChar: Otilde
Encoding: 213 213 74
Width: 1233
Flags: W
LayerCount: 2
Fore
SplineSet
287 1633 m 1,0,1
 287 1681 287 1681 299 1721 c 128,-1,2
 311 1761 311 1761 339 1793 c 0,3,4
 390 1852 390 1852 476 1852 c 0,5,6
 508 1852 508 1852 542 1844 c 0,7,8
 557 1840 557 1840 576 1831.5 c 128,-1,9
 595 1823 595 1823 621 1809 c 2,10,-1
 678 1779 l 2,11,12
 699 1766 699 1766 718 1760 c 0,13,14
 734 1754 734 1754 750 1754 c 0,15,16
 781 1754 781 1754 801 1780 c 256,17,18
 821 1806 821 1806 821 1846 c 2,19,-1
 821 1852 l 1,20,-1
 946 1852 l 1,21,22
 945 1753 945 1753 893 1693 c 0,23,24
 842 1633 842 1633 757 1633 c 0,25,26
 726 1633 726 1633 694 1641 c 0,27,28
 680 1645 680 1645 661.5 1652.5 c 128,-1,29
 643 1660 643 1660 612 1676 c 2,30,-1
 555 1709 l 2,31,32
 532 1722 532 1722 514 1729 c 0,33,34
 506 1732 506 1732 498 1733 c 128,-1,35
 490 1734 490 1734 485 1734 c 0,36,37
 470 1734 470 1734 456 1728 c 128,-1,38
 442 1722 442 1722 432 1709 c 0,39,40
 412 1683 412 1683 412 1639 c 2,41,-1
 412 1633 l 1,42,-1
 287 1633 l 1,0,1
616 -29 m 0,43,44
 363 -29 363 -29 240 162 c 0,45,46
 117 352 117 352 117 745 c 0,47,48
 117 1137 117 1137 241 1328 c 0,49,50
 303 1424 303 1424 395.5 1472 c 128,-1,51
 488 1520 488 1520 616 1520 c 0,52,53
 739 1520 739 1520 834 1474 c 128,-1,54
 929 1428 929 1428 993 1328 c 0,55,56
 1116 1136 1116 1136 1116 745 c 0,57,58
 1116 355 1116 355 993 163 c 0,59,60
 929 63 929 63 834 17 c 128,-1,61
 739 -29 739 -29 616 -29 c 0,43,44
616 135 m 0,62,63
 770 135 770 135 838 276 c 0,64,65
 905 414 905 414 905 745 c 0,66,67
 905 1075 905 1075 838 1215 c 0,68,69
 770 1356 770 1356 616 1356 c 0,70,71
 463 1356 463 1356 396 1215 c 0,72,73
 328 1073 328 1073 328 745 c 0,74,75
 328 418 328 418 396 276 c 0,76,77
 463 135 463 135 616 135 c 0,62,63
EndSplineSet
Validated: 1
EndChar

StartChar: OE
Encoding: 338 338 75
Width: 1233
Flags: W
LayerCount: 2
Fore
SplineSet
612 0 m 2,0,1
 454 0 454 0 354.5 43.5 c 128,-1,2
 255 87 255 87 196 167 c 0,3,4
 132 254 132 254 102 396 c 128,-1,5
 72 538 72 538 72 747 c 0,6,7
 72 858 72 858 80 947 c 128,-1,8
 88 1036 88 1036 104 1107 c 128,-1,9
 120 1178 120 1178 142.5 1232 c 128,-1,10
 165 1286 165 1286 195 1327 c 0,11,12
 255 1409 255 1409 356 1451 c 128,-1,13
 457 1493 457 1493 612 1493 c 2,14,-1
 1206 1493 l 1,15,-1
 1206 1323 l 1,16,-1
 848 1323 l 1,17,-1
 848 881 l 1,18,-1
 1176 881 l 1,19,-1
 1176 711 l 1,20,-1
 848 711 l 1,21,-1
 848 170 l 1,22,-1
 1217 170 l 1,23,-1
 1217 0 l 1,24,-1
 612 0 l 2,0,1
651 170 m 1,25,-1
 651 1323 l 1,26,-1
 590 1323 l 2,27,28
 413 1323 413 1323 344 1208 c 0,29,30
 310 1151 310 1151 292 1040 c 128,-1,31
 274 929 274 929 274 745 c 0,32,33
 274 565 274 565 291.5 454 c 128,-1,34
 309 343 309 343 344 285 c 0,35,36
 413 170 413 170 590 170 c 2,37,-1
 651 170 l 1,25,-1
EndSplineSet
Validated: 1
EndChar

StartChar: P
Encoding: 80 80 76
Width: 1233
Flags: W
LayerCount: 2
Fore
SplineSet
172 1493 m 1,0,-1
 608 1493 l 2,1,2
 857 1493 857 1493 987 1380 c 0,3,4
 1054 1321 1054 1321 1085 1236.5 c 128,-1,5
 1116 1152 1116 1152 1116 1046 c 0,6,7
 1116 826 1116 826 988 713 c 0,8,9
 925 657 925 657 830 628.5 c 128,-1,10
 735 600 735 600 608 600 c 2,11,-1
 374 600 l 1,12,-1
 374 0 l 1,13,-1
 172 0 l 1,14,-1
 172 1493 l 1,0,-1
608 766 m 2,15,16
 683 766 683 766 737 786 c 128,-1,17
 791 806 791 806 827 840 c 0,18,19
 905 913 905 913 905 1047 c 0,20,21
 905 1180 905 1180 827 1254 c 0,22,23
 750 1327 750 1327 608 1327 c 2,24,-1
 374 1327 l 1,25,-1
 374 766 l 1,26,-1
 608 766 l 2,15,16
EndSplineSet
Validated: 1
EndChar

StartChar: Thorn
Encoding: 222 222 77
Width: 1233
Flags: W
LayerCount: 2
Fore
SplineSet
201 1493 m 1,0,-1
 403 1493 l 1,1,-1
 403 1223 l 1,2,-1
 657 1223 l 2,3,4
 916 1223 916 1223 1041 1118 c 0,5,6
 1165 1013 1165 1013 1165 794 c 0,7,8
 1165 682 1165 682 1133.5 602.5 c 128,-1,9
 1102 523 1102 523 1041 472 c 0,10,11
 916 367 916 367 657 367 c 2,12,-1
 403 367 l 1,13,-1
 403 0 l 1,14,-1
 201 0 l 1,15,-1
 201 1493 l 1,0,-1
637 532 m 2,16,17
 794 532 794 532 874 598 c 0,18,19
 952 664 952 664 952 795 c 0,20,21
 952 858 952 858 933 908.5 c 128,-1,22
 914 959 914 959 874 992 c 0,23,24
 838 1022 838 1022 779 1039.5 c 128,-1,25
 720 1057 720 1057 637 1057 c 2,26,-1
 403 1057 l 1,27,-1
 403 532 l 1,28,-1
 637 532 l 2,16,17
EndSplineSet
Validated: 1
EndChar

StartChar: Q
Encoding: 81 81 78
Width: 1233
Flags: W
LayerCount: 2
Fore
SplineSet
655 -27 m 2,0,1
 651 -27 651 -27 646.5 -27 c 128,-1,2
 642 -27 642 -27 635 -28 c 256,3,4
 628 -29 628 -29 623.5 -29 c 128,-1,5
 619 -29 619 -29 617 -29 c 0,6,7
 492 -29 492 -29 398.5 17 c 128,-1,8
 305 63 305 63 241 163 c 256,9,10
 177 263 177 263 147 408 c 128,-1,11
 117 553 117 553 117 745 c 0,12,13
 117 1137 117 1137 241 1328 c 0,14,15
 303 1424 303 1424 395.5 1472 c 128,-1,16
 488 1520 488 1520 616 1520 c 0,17,18
 739 1520 739 1520 834 1474 c 128,-1,19
 929 1428 929 1428 993 1328 c 0,20,21
 1116 1136 1116 1136 1116 745 c 0,22,23
 1116 452 1116 452 1048 272 c 0,24,25
 1015 184 1015 184 963 120 c 128,-1,26
 911 56 911 56 840 20 c 1,27,-1
 1125 -270 l 1,28,-1
 889 -270 l 1,29,-1
 655 -27 l 2,0,1
616 135 m 0,30,31
 770 135 770 135 838 276 c 0,32,33
 905 414 905 414 905 745 c 0,34,35
 905 1075 905 1075 838 1215 c 0,36,37
 770 1356 770 1356 616 1356 c 0,38,39
 463 1356 463 1356 396 1215 c 0,40,41
 328 1073 328 1073 328 745 c 0,42,43
 328 418 328 418 396 276 c 0,44,45
 463 135 463 135 616 135 c 0,30,31
EndSplineSet
Validated: 1
EndChar

StartChar: R
Encoding: 82 82 79
Width: 1233
Flags: W
LayerCount: 2
Fore
SplineSet
143 1493 m 1,0,-1
 559 1493 l 2,1,2
 805 1493 805 1493 936 1382 c 0,3,4
 1002 1326 1002 1326 1034.5 1246 c 128,-1,5
 1067 1166 1067 1166 1067 1065 c 0,6,7
 1067 986 1067 986 1047 926.5 c 128,-1,8
 1027 867 1027 867 987 820 c 0,9,10
 907 726 907 726 760 705 c 1,11,12
 800 695 800 695 834 675.5 c 128,-1,13
 868 656 868 656 893 630 c 0,14,15
 921 601 921 601 953.5 548.5 c 128,-1,16
 986 496 986 496 1030 408 c 2,17,-1
 1233 0 l 1,18,-1
 1016 0 l 1,19,-1
 838 377 l 2,20,21
 799 460 799 460 764.5 511 c 128,-1,22
 730 562 730 562 700 585 c 0,23,24
 669 609 669 609 627.5 620 c 128,-1,25
 586 631 586 631 539 631 c 2,26,-1
 346 631 l 1,27,-1
 346 0 l 1,28,-1
 143 0 l 1,29,-1
 143 1493 l 1,0,-1
567 797 m 2,30,31
 712 797 712 797 783 862 c 0,32,33
 818 894 818 894 836 944 c 128,-1,34
 854 994 854 994 854 1059 c 256,35,36
 854 1124 854 1124 835.5 1174 c 128,-1,37
 817 1224 817 1224 779 1259 c 0,38,39
 743 1291 743 1291 688.5 1309 c 128,-1,40
 634 1327 634 1327 559 1327 c 2,41,-1
 346 1327 l 1,42,-1
 346 797 l 1,43,-1
 567 797 l 2,30,31
EndSplineSet
Validated: 1
EndChar

StartChar: Racute
Encoding: 340 340 80
Width: 1233
Flags: W
LayerCount: 2
Fore
SplineSet
631 1856 m 1,0,-1
 817 1856 l 1,1,-1
 588 1592 l 1,2,-1
 434 1592 l 1,3,-1
 631 1856 l 1,0,-1
143 1493 m 1,4,-1
 559 1493 l 2,5,6
 682 1493 682 1493 776.5 1464.5 c 128,-1,7
 871 1436 871 1436 935.5 1381.5 c 128,-1,8
 1000 1327 1000 1327 1033.5 1248 c 128,-1,9
 1067 1169 1067 1169 1067 1069 c 0,10,11
 1067 909 1067 909 986 818 c 128,-1,12
 905 727 905 727 760 705 c 1,13,14
 800 694 800 694 832.5 677 c 128,-1,15
 865 660 865 660 895 627.5 c 128,-1,16
 925 595 925 595 957 542 c 128,-1,17
 989 489 989 489 1030 408 c 2,18,-1
 1233 0 l 1,19,-1
 1016 0 l 1,20,-1
 838 377 l 2,21,22
 799 459 799 459 765.5 509 c 128,-1,23
 732 559 732 559 697.5 586 c 128,-1,24
 663 613 663 613 625 622 c 128,-1,25
 587 631 587 631 539 631 c 2,26,-1
 346 631 l 1,27,-1
 346 0 l 1,28,-1
 143 0 l 1,29,-1
 143 1493 l 1,4,-1
567 797 m 2,30,31
 854 797 854 797 854 1056 c 0,32,33
 854 1192 854 1192 778.5 1259.5 c 128,-1,34
 703 1327 703 1327 559 1327 c 2,35,-1
 346 1327 l 1,36,-1
 346 797 l 1,37,-1
 567 797 l 2,30,31
EndSplineSet
Validated: 1
EndChar

StartChar: Rcaron
Encoding: 344 344 81
Width: 1233
Flags: W
LayerCount: 2
Fore
SplineSet
257 1852 m 1,0,-1
 397 1852 l 1,1,-1
 562 1674 l 1,2,-1
 728 1852 l 1,3,-1
 868 1852 l 1,4,-1
 657 1586 l 1,5,-1
 468 1586 l 1,6,-1
 257 1852 l 1,0,-1
143 1493 m 1,7,-1
 559 1493 l 2,8,9
 682 1493 682 1493 776.5 1464.5 c 128,-1,10
 871 1436 871 1436 935.5 1381.5 c 128,-1,11
 1000 1327 1000 1327 1033.5 1248 c 128,-1,12
 1067 1169 1067 1169 1067 1069 c 0,13,14
 1067 909 1067 909 986 818 c 128,-1,15
 905 727 905 727 760 705 c 1,16,17
 800 694 800 694 832.5 677 c 128,-1,18
 865 660 865 660 895 627.5 c 128,-1,19
 925 595 925 595 957 542 c 128,-1,20
 989 489 989 489 1030 408 c 2,21,-1
 1233 0 l 1,22,-1
 1016 0 l 1,23,-1
 838 377 l 2,24,25
 799 459 799 459 765.5 509 c 128,-1,26
 732 559 732 559 697.5 586 c 128,-1,27
 663 613 663 613 625 622 c 128,-1,28
 587 631 587 631 539 631 c 2,29,-1
 346 631 l 1,30,-1
 346 0 l 1,31,-1
 143 0 l 1,32,-1
 143 1493 l 1,7,-1
567 797 m 2,33,34
 854 797 854 797 854 1056 c 0,35,36
 854 1192 854 1192 778.5 1259.5 c 128,-1,37
 703 1327 703 1327 559 1327 c 2,38,-1
 346 1327 l 1,39,-1
 346 797 l 1,40,-1
 567 797 l 2,33,34
EndSplineSet
Validated: 1
EndChar

StartChar: uni0156
Encoding: 342 342 82
Width: 1233
Flags: W
LayerCount: 2
Fore
SplineSet
143 1493 m 1,0,-1
 559 1493 l 2,1,2
 682 1493 682 1493 776.5 1464.5 c 128,-1,3
 871 1436 871 1436 935.5 1381.5 c 128,-1,4
 1000 1327 1000 1327 1033.5 1248 c 128,-1,5
 1067 1169 1067 1169 1067 1069 c 0,6,7
 1067 909 1067 909 986 818 c 128,-1,8
 905 727 905 727 760 705 c 1,9,10
 800 694 800 694 832.5 677 c 128,-1,11
 865 660 865 660 895 627.5 c 128,-1,12
 925 595 925 595 957 542 c 128,-1,13
 989 489 989 489 1030 408 c 2,14,-1
 1233 0 l 1,15,-1
 1016 0 l 1,16,-1
 838 377 l 2,17,18
 799 459 799 459 765.5 509 c 128,-1,19
 732 559 732 559 697.5 586 c 128,-1,20
 663 613 663 613 625 622 c 128,-1,21
 587 631 587 631 539 631 c 2,22,-1
 346 631 l 1,23,-1
 346 0 l 1,24,-1
 143 0 l 1,25,-1
 143 1493 l 1,0,-1
567 797 m 2,26,27
 854 797 854 797 854 1056 c 0,28,29
 854 1192 854 1192 778.5 1259.5 c 128,-1,30
 703 1327 703 1327 559 1327 c 2,31,-1
 346 1327 l 1,32,-1
 346 797 l 1,33,-1
 567 797 l 2,26,27
616 -199 m 1,34,-1
 855 -199 l 1,35,-1
 668 -544 l 1,36,-1
 522 -544 l 1,37,-1
 616 -199 l 1,34,-1
EndSplineSet
Validated: 1
EndChar

StartChar: S
Encoding: 83 83 83
Width: 1233
Flags: W
LayerCount: 2
Fore
SplineSet
584 -29 m 0,0,1
 531 -29 531 -29 477 -23.5 c 128,-1,2
 423 -18 423 -18 371 -7 c 256,3,4
 319 4 319 4 264 22 c 128,-1,5
 209 40 209 40 158 61 c 1,6,-1
 158 276 l 1,7,8
 216 239 216 239 270 212.5 c 128,-1,9
 324 186 324 186 376 169 c 0,10,11
 478 135 478 135 581 135 c 0,12,13
 656 135 656 135 716.5 152 c 128,-1,14
 777 169 777 169 820 203 c 0,15,16
 864 238 864 238 884.5 287 c 128,-1,17
 905 336 905 336 905 400 c 0,18,19
 905 456 905 456 890.5 496 c 128,-1,20
 876 536 876 536 847 565 c 0,21,22
 815 598 815 598 766.5 619 c 128,-1,23
 718 640 718 640 643 657 c 2,24,-1
 535 682 l 2,25,26
 434 705 434 705 358.5 739 c 128,-1,27
 283 773 283 773 233 824 c 0,28,29
 139 918 139 918 139 1079 c 0,30,31
 139 1181 139 1181 174 1262 c 128,-1,32
 209 1343 209 1343 274 1401 c 0,33,34
 338 1458 338 1458 427.5 1489 c 128,-1,35
 517 1520 517 1520 631 1520 c 0,36,37
 674 1520 674 1520 719 1515.5 c 128,-1,38
 764 1511 764 1511 812 1501 c 0,39,40
 905 1482 905 1482 1012 1442 c 1,41,-1
 1012 1237 l 1,42,43
 964 1268 964 1268 918.5 1289.5 c 128,-1,44
 873 1311 873 1311 828 1326 c 0,45,46
 735 1356 735 1356 642 1356 c 0,47,48
 574 1356 574 1356 515 1340 c 128,-1,49
 456 1324 456 1324 414 1290 c 256,50,51
 372 1256 372 1256 352 1209 c 128,-1,52
 332 1162 332 1162 332 1105 c 0,53,54
 332 1054 332 1054 346.5 1019.5 c 128,-1,55
 361 985 361 985 387 960 c 0,56,57
 418 931 418 931 466.5 910 c 128,-1,58
 515 889 515 889 590 872 c 2,59,-1
 696 848 l 2,60,61
 802 824 802 824 877 785.5 c 128,-1,62
 952 747 952 747 1001 694 c 0,63,64
 1098 590 1098 590 1098 410 c 0,65,66
 1098 296 1098 296 1063 215.5 c 128,-1,67
 1028 135 1028 135 967 83 c 0,68,69
 901 27 901 27 804.5 -1 c 128,-1,70
 708 -29 708 -29 584 -29 c 0,0,1
EndSplineSet
Validated: 1
EndChar

StartChar: Sacute
Encoding: 346 346 84
Width: 1233
Flags: W
LayerCount: 2
Fore
SplineSet
701 1856 m 1,0,-1
 887 1856 l 1,1,-1
 658 1592 l 1,2,-1
 504 1592 l 1,3,-1
 701 1856 l 1,0,-1
586 -29 m 0,4,5
 476 -29 476 -29 371 -6.5 c 128,-1,6
 266 16 266 16 158 61 c 1,7,-1
 158 276 l 1,8,9
 273 203 273 203 375 169 c 128,-1,10
 477 135 477 135 583 135 c 0,11,12
 736 135 736 135 820.5 202.5 c 128,-1,13
 905 270 905 270 905 405 c 0,14,15
 905 455 905 455 891.5 494.5 c 128,-1,16
 878 534 878 534 847.5 564.5 c 128,-1,17
 817 595 817 595 766.5 617.5 c 128,-1,18
 716 640 716 640 643 657 c 2,19,-1
 535 682 l 2,20,21
 430 706 430 706 355 741.5 c 128,-1,22
 280 777 280 777 232 825.5 c 128,-1,23
 184 874 184 874 161.5 936.5 c 128,-1,24
 139 999 139 999 139 1077 c 0,25,26
 139 1178 139 1178 174 1260 c 128,-1,27
 209 1342 209 1342 273.5 1399.5 c 128,-1,28
 338 1457 338 1457 429 1488.5 c 128,-1,29
 520 1520 520 1520 631 1520 c 0,30,31
 802 1520 802 1520 1012 1442 c 1,32,-1
 1012 1237 l 1,33,34
 827 1356 827 1356 640 1356 c 0,35,36
 569 1356 569 1356 512 1339 c 128,-1,37
 455 1322 455 1322 415 1290 c 128,-1,38
 375 1258 375 1258 353.5 1210 c 128,-1,39
 332 1162 332 1162 332 1101 c 0,40,41
 332 1056 332 1056 345 1021 c 128,-1,42
 358 986 358 986 388 958 c 128,-1,43
 418 930 418 930 467.5 909 c 128,-1,44
 517 888 517 888 590 872 c 2,45,-1
 696 848 l 2,46,47
 802 824 802 824 878 785.5 c 128,-1,48
 954 747 954 747 1003 693 c 128,-1,49
 1052 639 1052 639 1075 568.5 c 128,-1,50
 1098 498 1098 498 1098 411 c 0,51,52
 1098 196 1098 196 966 83.5 c 128,-1,53
 834 -29 834 -29 586 -29 c 0,4,5
EndSplineSet
Validated: 1
EndChar

StartChar: Scaron
Encoding: 352 352 85
Width: 1233
Flags: W
LayerCount: 2
Fore
SplineSet
327 1852 m 1,0,-1
 467 1852 l 1,1,-1
 632 1674 l 1,2,-1
 798 1852 l 1,3,-1
 938 1852 l 1,4,-1
 727 1586 l 1,5,-1
 538 1586 l 1,6,-1
 327 1852 l 1,0,-1
584 -29 m 0,7,8
 527 -29 527 -29 473 -23.5 c 128,-1,9
 419 -18 419 -18 371 -7 c 0,10,11
 318 4 318 4 263.5 22 c 128,-1,12
 209 40 209 40 158 61 c 1,13,-1
 158 276 l 1,14,15
 216 239 216 239 270 212.5 c 128,-1,16
 324 186 324 186 376 169 c 0,17,18
 430 151 430 151 481 143 c 128,-1,19
 532 135 532 135 582 135 c 0,20,21
 657 135 657 135 717 152 c 128,-1,22
 777 169 777 169 820 203 c 0,23,24
 860 235 860 235 882.5 282.5 c 128,-1,25
 905 330 905 330 905 399 c 0,26,27
 905 456 905 456 889.5 497 c 128,-1,28
 874 538 874 538 847 566 c 0,29,30
 816 598 816 598 764.5 619.5 c 128,-1,31
 713 641 713 641 643 657 c 2,32,-1
 535 682 l 2,33,34
 434 705 434 705 358.5 739 c 128,-1,35
 283 773 283 773 233 824 c 0,36,37
 187 871 187 871 163 933 c 128,-1,38
 139 995 139 995 139 1079 c 0,39,40
 139 1182 139 1182 174.5 1263 c 128,-1,41
 210 1344 210 1344 274 1401 c 256,42,43
 338 1458 338 1458 427.5 1489 c 128,-1,44
 517 1520 517 1520 631 1520 c 0,45,46
 674 1520 674 1520 719 1515.5 c 128,-1,47
 764 1511 764 1511 812 1501 c 0,48,49
 905 1482 905 1482 1012 1442 c 1,50,-1
 1012 1237 l 1,51,52
 962 1269 962 1269 916 1290.5 c 128,-1,53
 870 1312 870 1312 828 1326 c 0,54,55
 735 1356 735 1356 642 1356 c 0,56,57
 567 1356 567 1356 509.5 1338.5 c 128,-1,58
 452 1321 452 1321 414 1290 c 0,59,60
 374 1258 374 1258 353 1211.5 c 128,-1,61
 332 1165 332 1165 332 1105 c 0,62,63
 332 1064 332 1064 343.5 1027 c 128,-1,64
 355 990 355 990 387 960 c 0,65,66
 416 932 416 932 465 910.5 c 128,-1,67
 514 889 514 889 590 872 c 2,68,-1
 696 848 l 2,69,70
 793 826 793 826 870.5 788.5 c 128,-1,71
 948 751 948 751 1001 694 c 0,72,73
 1098 590 1098 590 1098 410 c 0,74,75
 1098 296 1098 296 1063 215.5 c 128,-1,76
 1028 135 1028 135 967 83 c 0,77,78
 901 26 901 26 803.5 -1.5 c 128,-1,79
 706 -29 706 -29 584 -29 c 0,7,8
EndSplineSet
Validated: 1
EndChar

StartChar: Scedilla
Encoding: 350 350 86
Width: 1233
Flags: W
LayerCount: 2
Fore
SplineSet
1001 694 m 0,0,1
 1098 590 1098 590 1098 410 c 0,2,3
 1098 296 1098 296 1063 215.5 c 128,-1,4
 1028 135 1028 135 967 83 c 0,5,6
 920 43 920 43 857 17.5 c 128,-1,7
 794 -8 794 -8 717 -20 c 1,8,9
 739 -46 739 -46 756 -70.5 c 128,-1,10
 773 -95 773 -95 783 -115 c 0,11,12
 794 -138 794 -138 801.5 -163.5 c 128,-1,13
 809 -189 809 -189 809 -219 c 0,14,15
 809 -259 809 -259 794 -293 c 128,-1,16
 779 -327 779 -327 749 -350 c 0,17,18
 720 -372 720 -372 676 -383.5 c 128,-1,19
 632 -395 632 -395 570 -395 c 0,20,21
 526 -395 526 -395 483 -389 c 0,22,23
 437 -383 437 -383 395 -371 c 1,24,-1
 395 -240 l 1,25,26
 412 -248 412 -248 430 -254.5 c 128,-1,27
 448 -261 448 -261 467 -265 c 256,28,29
 486 -269 486 -269 507.5 -270.5 c 128,-1,30
 529 -272 529 -272 546 -272 c 0,31,32
 610 -272 610 -272 640 -248 c 256,33,34
 670 -224 670 -224 670 -180 c 0,35,36
 670 -148 670 -148 648 -105 c 0,37,38
 640 -88 640 -88 628 -69.5 c 128,-1,39
 616 -51 616 -51 602 -29 c 1,40,-1
 584 -29 l 2,41,42
 527 -29 527 -29 473 -23.5 c 128,-1,43
 419 -18 419 -18 371 -7 c 0,44,45
 318 4 318 4 263.5 22 c 128,-1,46
 209 40 209 40 158 61 c 1,47,-1
 158 276 l 1,48,49
 216 239 216 239 270 212.5 c 128,-1,50
 324 186 324 186 376 169 c 0,51,52
 430 151 430 151 481 143 c 128,-1,53
 532 135 532 135 582 135 c 0,54,55
 657 135 657 135 717 152 c 128,-1,56
 777 169 777 169 820 203 c 0,57,58
 860 235 860 235 882.5 282.5 c 128,-1,59
 905 330 905 330 905 399 c 0,60,61
 905 456 905 456 889.5 497 c 128,-1,62
 874 538 874 538 847 566 c 0,63,64
 816 598 816 598 764.5 619.5 c 128,-1,65
 713 641 713 641 643 657 c 2,66,-1
 535 682 l 2,67,68
 434 705 434 705 358.5 739 c 128,-1,69
 283 773 283 773 233 824 c 0,70,71
 187 871 187 871 163 933 c 128,-1,72
 139 995 139 995 139 1079 c 0,73,74
 139 1182 139 1182 174.5 1263 c 128,-1,75
 210 1344 210 1344 274 1401 c 256,76,77
 338 1458 338 1458 427.5 1489 c 128,-1,78
 517 1520 517 1520 631 1520 c 0,79,80
 674 1520 674 1520 719 1515.5 c 128,-1,81
 764 1511 764 1511 812 1501 c 0,82,83
 905 1482 905 1482 1012 1442 c 1,84,-1
 1012 1237 l 1,85,86
 962 1269 962 1269 916 1290.5 c 128,-1,87
 870 1312 870 1312 828 1326 c 0,88,89
 735 1356 735 1356 642 1356 c 0,90,91
 567 1356 567 1356 509.5 1338.5 c 128,-1,92
 452 1321 452 1321 414 1290 c 0,93,94
 374 1258 374 1258 353 1211.5 c 128,-1,95
 332 1165 332 1165 332 1105 c 0,96,97
 332 1064 332 1064 343.5 1027 c 128,-1,98
 355 990 355 990 387 960 c 0,99,100
 416 932 416 932 465 910.5 c 128,-1,101
 514 889 514 889 590 872 c 2,102,-1
 696 848 l 2,103,104
 793 826 793 826 870.5 788.5 c 128,-1,105
 948 751 948 751 1001 694 c 0,0,1
EndSplineSet
Validated: 1
Substitution2: "'locl' Localized Forms in Latin lookup 3 subtable" uni0218
Substitution2: "'locl' Localized Forms in Latin lookup 2 subtable" uni0218
Substitution2: "'aalt' Access All Alternates in Latin lookup 0 subtable" uni0218
EndChar

StartChar: uni0218
Encoding: 536 536 87
Width: 1233
Flags: W
LayerCount: 2
Fore
SplineSet
586 -29 m 0,0,1
 476 -29 476 -29 371 -6.5 c 128,-1,2
 266 16 266 16 158 61 c 1,3,-1
 158 276 l 1,4,5
 273 203 273 203 375 169 c 128,-1,6
 477 135 477 135 583 135 c 0,7,8
 736 135 736 135 820.5 202.5 c 128,-1,9
 905 270 905 270 905 405 c 0,10,11
 905 455 905 455 891.5 494.5 c 128,-1,12
 878 534 878 534 847.5 564.5 c 128,-1,13
 817 595 817 595 766.5 617.5 c 128,-1,14
 716 640 716 640 643 657 c 2,15,-1
 535 682 l 2,16,17
 430 706 430 706 355 741.5 c 128,-1,18
 280 777 280 777 232 825.5 c 128,-1,19
 184 874 184 874 161.5 936.5 c 128,-1,20
 139 999 139 999 139 1077 c 0,21,22
 139 1178 139 1178 174 1260 c 128,-1,23
 209 1342 209 1342 273.5 1399.5 c 128,-1,24
 338 1457 338 1457 429 1488.5 c 128,-1,25
 520 1520 520 1520 631 1520 c 0,26,27
 802 1520 802 1520 1012 1442 c 1,28,-1
 1012 1237 l 1,29,30
 827 1356 827 1356 640 1356 c 0,31,32
 569 1356 569 1356 512 1339 c 128,-1,33
 455 1322 455 1322 415 1290 c 128,-1,34
 375 1258 375 1258 353.5 1210 c 128,-1,35
 332 1162 332 1162 332 1101 c 0,36,37
 332 1056 332 1056 345 1021 c 128,-1,38
 358 986 358 986 388 958 c 128,-1,39
 418 930 418 930 467.5 909 c 128,-1,40
 517 888 517 888 590 872 c 2,41,-1
 696 848 l 2,42,43
 802 824 802 824 878 785.5 c 128,-1,44
 954 747 954 747 1003 693 c 128,-1,45
 1052 639 1052 639 1075 568.5 c 128,-1,46
 1098 498 1098 498 1098 411 c 0,47,48
 1098 196 1098 196 966 83.5 c 128,-1,49
 834 -29 834 -29 586 -29 c 0,0,1
502 -197 m 1,50,-1
 741 -197 l 1,51,-1
 554 -542 l 1,52,-1
 408 -542 l 1,53,-1
 502 -197 l 1,50,-1
EndSplineSet
Validated: 1
EndChar

StartChar: T
Encoding: 84 84 88
Width: 1233
Flags: W
LayerCount: 2
Fore
SplineSet
516 1323 m 1,0,-1
 47 1323 l 1,1,-1
 47 1493 l 1,2,-1
 1186 1493 l 1,3,-1
 1186 1323 l 1,4,-1
 719 1323 l 1,5,-1
 719 0 l 1,6,-1
 516 0 l 1,7,-1
 516 1323 l 1,0,-1
EndSplineSet
Validated: 1
EndChar

StartChar: Tbar
Encoding: 358 358 89
Width: 1233
Flags: W
LayerCount: 2
Fore
SplineSet
516 577 m 1,0,-1
 251 577 l 1,1,-1
 251 747 l 1,2,-1
 516 747 l 1,3,-1
 516 1323 l 1,4,-1
 47 1323 l 1,5,-1
 47 1493 l 1,6,-1
 1186 1493 l 1,7,-1
 1186 1323 l 1,8,-1
 719 1323 l 1,9,-1
 719 747 l 1,10,-1
 984 747 l 1,11,-1
 984 577 l 1,12,-1
 719 577 l 1,13,-1
 719 0 l 1,14,-1
 516 0 l 1,15,-1
 516 577 l 1,0,-1
EndSplineSet
Validated: 1
EndChar

StartChar: Tcaron
Encoding: 356 356 90
Width: 1233
Flags: W
LayerCount: 2
Fore
SplineSet
317 1852 m 1,0,-1
 457 1852 l 1,1,-1
 622 1674 l 1,2,-1
 788 1852 l 1,3,-1
 928 1852 l 1,4,-1
 717 1586 l 1,5,-1
 528 1586 l 1,6,-1
 317 1852 l 1,0,-1
516 1323 m 1,7,-1
 47 1323 l 1,8,-1
 47 1493 l 1,9,-1
 1186 1493 l 1,10,-1
 1186 1323 l 1,11,-1
 719 1323 l 1,12,-1
 719 0 l 1,13,-1
 516 0 l 1,14,-1
 516 1323 l 1,7,-1
EndSplineSet
Validated: 1
EndChar

StartChar: uni021A
Encoding: 538 538 91
Width: 1233
Flags: W
LayerCount: 2
Fore
SplineSet
719 0 m 1,0,-1
 700 0 l 1,1,2
 757 -63 757 -63 783 -114 c 128,-1,3
 809 -165 809 -165 809 -220 c 0,4,5
 809 -305 809 -305 749 -350 c 128,-1,6
 689 -395 689 -395 569 -395 c 0,7,8
 483 -395 483 -395 395 -371 c 1,9,-1
 395 -240 l 1,10,11
 426 -257 426 -257 465.5 -264.5 c 128,-1,12
 505 -272 505 -272 542 -272 c 0,13,14
 608 -272 608 -272 639 -248.5 c 128,-1,15
 670 -225 670 -225 670 -182 c 0,16,17
 670 -151 670 -151 650.5 -109.5 c 128,-1,18
 631 -68 631 -68 582 0 c 1,19,-1
 516 0 l 1,20,-1
 516 1323 l 1,21,-1
 47 1323 l 1,22,-1
 47 1493 l 1,23,-1
 1186 1493 l 1,24,-1
 1186 1323 l 1,25,-1
 719 1323 l 1,26,-1
 719 0 l 1,0,-1
EndSplineSet
Validated: 1
EndChar

StartChar: U
Encoding: 85 85 92
Width: 1233
Flags: W
LayerCount: 2
Fore
SplineSet
616 -29 m 0,0,1
 562 -29 562 -29 515.5 -21.5 c 128,-1,2
 469 -14 469 -14 427 0 c 0,3,4
 388 14 388 14 346.5 36.5 c 128,-1,5
 305 59 305 59 273 88 c 0,6,7
 242 116 242 116 218 154 c 128,-1,8
 194 192 194 192 177 249 c 0,9,10
 169 274 169 274 163.5 305 c 128,-1,11
 158 336 158 336 154.5 375 c 128,-1,12
 151 414 151 414 149 462.5 c 128,-1,13
 147 511 147 511 147 573 c 2,14,-1
 147 1493 l 1,15,-1
 350 1493 l 1,16,-1
 350 481 l 2,17,18
 350 372 350 372 356 326 c 0,19,20
 362 279 362 279 377 254 c 0,21,22
 409 195 409 195 470 165 c 0,23,24
 530 135 530 135 616 135 c 0,25,26
 703 135 703 135 763 165 c 0,27,28
 825 196 825 196 856 254 c 0,29,30
 864 269 864 269 869 285 c 128,-1,31
 874 301 874 301 877 325 c 0,32,33
 883 371 883 371 883 479 c 2,34,-1
 883 1493 l 1,35,-1
 1085 1493 l 1,36,-1
 1085 573 l 2,37,38
 1085 507 1085 507 1083 456.5 c 128,-1,39
 1081 406 1081 406 1077.5 367.5 c 128,-1,40
 1074 329 1074 329 1068.5 300 c 128,-1,41
 1063 271 1063 271 1057 249 c 0,42,43
 1043 199 1043 199 1018 159 c 128,-1,44
 993 119 993 119 959 88 c 0,45,46
 926 58 926 58 885.5 36 c 128,-1,47
 845 14 845 14 806 0 c 0,48,49
 769 -13 769 -13 722 -21 c 128,-1,50
 675 -29 675 -29 616 -29 c 0,0,1
EndSplineSet
Validated: 1
EndChar

StartChar: Uacute
Encoding: 218 218 93
Width: 1233
Flags: W
LayerCount: 2
Fore
SplineSet
672 1856 m 1,0,-1
 858 1856 l 1,1,-1
 629 1592 l 1,2,-1
 475 1592 l 1,3,-1
 672 1856 l 1,0,-1
616 -29 m 0,4,5
 562 -29 562 -29 515.5 -21.5 c 128,-1,6
 469 -14 469 -14 427 0 c 0,7,8
 388 14 388 14 346.5 36.5 c 128,-1,9
 305 59 305 59 273 88 c 0,10,11
 242 116 242 116 218 154 c 128,-1,12
 194 192 194 192 177 249 c 0,13,14
 169 274 169 274 163.5 305 c 128,-1,15
 158 336 158 336 154.5 375 c 128,-1,16
 151 414 151 414 149 462.5 c 128,-1,17
 147 511 147 511 147 573 c 2,18,-1
 147 1493 l 1,19,-1
 350 1493 l 1,20,-1
 350 481 l 2,21,22
 350 372 350 372 356 326 c 0,23,24
 362 279 362 279 377 254 c 0,25,26
 409 195 409 195 470 165 c 0,27,28
 530 135 530 135 616 135 c 0,29,30
 703 135 703 135 763 165 c 0,31,32
 825 196 825 196 856 254 c 0,33,34
 864 269 864 269 869 285 c 128,-1,35
 874 301 874 301 877 325 c 0,36,37
 883 371 883 371 883 479 c 2,38,-1
 883 1493 l 1,39,-1
 1085 1493 l 1,40,-1
 1085 573 l 2,41,42
 1085 507 1085 507 1083 456.5 c 128,-1,43
 1081 406 1081 406 1077.5 367.5 c 128,-1,44
 1074 329 1074 329 1068.5 300 c 128,-1,45
 1063 271 1063 271 1057 249 c 0,46,47
 1043 199 1043 199 1018 159 c 128,-1,48
 993 119 993 119 959 88 c 0,49,50
 926 58 926 58 885.5 36 c 128,-1,51
 845 14 845 14 806 0 c 0,52,53
 769 -13 769 -13 722 -21 c 128,-1,54
 675 -29 675 -29 616 -29 c 0,4,5
EndSplineSet
Validated: 1
EndChar

StartChar: Ucircumflex
Encoding: 219 219 94
Width: 1233
Flags: W
LayerCount: 2
Fore
SplineSet
522 1852 m 1,0,-1
 711 1852 l 1,1,-1
 922 1586 l 1,2,-1
 782 1586 l 1,3,-1
 616 1764 l 1,4,-1
 451 1586 l 1,5,-1
 311 1586 l 1,6,-1
 522 1852 l 1,0,-1
616 -29 m 0,7,8
 562 -29 562 -29 515.5 -21.5 c 128,-1,9
 469 -14 469 -14 427 0 c 0,10,11
 388 14 388 14 346.5 36.5 c 128,-1,12
 305 59 305 59 273 88 c 0,13,14
 242 116 242 116 218 154 c 128,-1,15
 194 192 194 192 177 249 c 0,16,17
 169 274 169 274 163.5 305 c 128,-1,18
 158 336 158 336 154.5 375 c 128,-1,19
 151 414 151 414 149 462.5 c 128,-1,20
 147 511 147 511 147 573 c 2,21,-1
 147 1493 l 1,22,-1
 350 1493 l 1,23,-1
 350 481 l 2,24,25
 350 372 350 372 356 326 c 0,26,27
 362 279 362 279 377 254 c 0,28,29
 409 195 409 195 470 165 c 0,30,31
 530 135 530 135 616 135 c 0,32,33
 703 135 703 135 763 165 c 0,34,35
 825 196 825 196 856 254 c 0,36,37
 864 269 864 269 869 285 c 128,-1,38
 874 301 874 301 877 325 c 0,39,40
 883 371 883 371 883 479 c 2,41,-1
 883 1493 l 1,42,-1
 1085 1493 l 1,43,-1
 1085 573 l 2,44,45
 1085 507 1085 507 1083 456.5 c 128,-1,46
 1081 406 1081 406 1077.5 367.5 c 128,-1,47
 1074 329 1074 329 1068.5 300 c 128,-1,48
 1063 271 1063 271 1057 249 c 0,49,50
 1043 199 1043 199 1018 159 c 128,-1,51
 993 119 993 119 959 88 c 0,52,53
 926 58 926 58 885.5 36 c 128,-1,54
 845 14 845 14 806 0 c 0,55,56
 769 -13 769 -13 722 -21 c 128,-1,57
 675 -29 675 -29 616 -29 c 0,7,8
EndSplineSet
Validated: 1
EndChar

StartChar: Udieresis
Encoding: 220 220 95
Width: 1233
Flags: W
LayerCount: 2
Fore
SplineSet
349 1647 m 2,0,1
 319 1647 319 1647 319 1677 c 2,2,-1
 319 1820 l 2,3,4
 319 1850 319 1850 349 1850 c 2,5,-1
 492 1850 l 2,6,7
 522 1850 522 1850 522 1820 c 2,8,-1
 522 1677 l 2,9,10
 522 1647 522 1647 492 1647 c 2,11,-1
 349 1647 l 2,0,1
741 1647 m 2,12,13
 711 1647 711 1647 711 1677 c 2,14,-1
 711 1820 l 2,15,16
 711 1850 711 1850 741 1850 c 2,17,-1
 883 1850 l 2,18,19
 913 1850 913 1850 913 1820 c 2,20,-1
 913 1677 l 2,21,22
 913 1647 913 1647 883 1647 c 2,23,-1
 741 1647 l 2,12,13
616 -29 m 0,24,25
 562 -29 562 -29 515.5 -21.5 c 128,-1,26
 469 -14 469 -14 427 0 c 0,27,28
 388 14 388 14 346.5 36.5 c 128,-1,29
 305 59 305 59 273 88 c 0,30,31
 242 116 242 116 218 154 c 128,-1,32
 194 192 194 192 177 249 c 0,33,34
 169 274 169 274 163.5 305 c 128,-1,35
 158 336 158 336 154.5 375 c 128,-1,36
 151 414 151 414 149 462.5 c 128,-1,37
 147 511 147 511 147 573 c 2,38,-1
 147 1493 l 1,39,-1
 350 1493 l 1,40,-1
 350 481 l 2,41,42
 350 372 350 372 356 326 c 0,43,44
 362 279 362 279 377 254 c 0,45,46
 409 195 409 195 470 165 c 0,47,48
 530 135 530 135 616 135 c 0,49,50
 703 135 703 135 763 165 c 0,51,52
 825 196 825 196 856 254 c 0,53,54
 864 269 864 269 869 285 c 128,-1,55
 874 301 874 301 877 325 c 0,56,57
 883 371 883 371 883 479 c 2,58,-1
 883 1493 l 1,59,-1
 1085 1493 l 1,60,-1
 1085 573 l 2,61,62
 1085 507 1085 507 1083 456.5 c 128,-1,63
 1081 406 1081 406 1077.5 367.5 c 128,-1,64
 1074 329 1074 329 1068.5 300 c 128,-1,65
 1063 271 1063 271 1057 249 c 0,66,67
 1043 199 1043 199 1018 159 c 128,-1,68
 993 119 993 119 959 88 c 0,69,70
 926 58 926 58 885.5 36 c 128,-1,71
 845 14 845 14 806 0 c 0,72,73
 769 -13 769 -13 722 -21 c 128,-1,74
 675 -29 675 -29 616 -29 c 0,24,25
EndSplineSet
Validated: 1
EndChar

StartChar: Ugrave
Encoding: 217 217 96
Width: 1233
Flags: W
LayerCount: 2
Fore
SplineSet
377 1852 m 1,0,-1
 561 1852 l 1,1,-1
 758 1588 l 1,2,-1
 604 1588 l 1,3,-1
 377 1852 l 1,0,-1
616 -29 m 0,4,5
 562 -29 562 -29 515.5 -21.5 c 128,-1,6
 469 -14 469 -14 427 0 c 0,7,8
 388 14 388 14 346.5 36.5 c 128,-1,9
 305 59 305 59 273 88 c 0,10,11
 242 116 242 116 218 154 c 128,-1,12
 194 192 194 192 177 249 c 0,13,14
 169 274 169 274 163.5 305 c 128,-1,15
 158 336 158 336 154.5 375 c 128,-1,16
 151 414 151 414 149 462.5 c 128,-1,17
 147 511 147 511 147 573 c 2,18,-1
 147 1493 l 1,19,-1
 350 1493 l 1,20,-1
 350 481 l 2,21,22
 350 372 350 372 356 326 c 0,23,24
 362 279 362 279 377 254 c 0,25,26
 409 195 409 195 470 165 c 0,27,28
 530 135 530 135 616 135 c 0,29,30
 703 135 703 135 763 165 c 0,31,32
 825 196 825 196 856 254 c 0,33,34
 864 269 864 269 869 285 c 128,-1,35
 874 301 874 301 877 325 c 0,36,37
 883 371 883 371 883 479 c 2,38,-1
 883 1493 l 1,39,-1
 1085 1493 l 1,40,-1
 1085 573 l 2,41,42
 1085 507 1085 507 1083 456.5 c 128,-1,43
 1081 406 1081 406 1077.5 367.5 c 128,-1,44
 1074 329 1074 329 1068.5 300 c 128,-1,45
 1063 271 1063 271 1057 249 c 0,46,47
 1043 199 1043 199 1018 159 c 128,-1,48
 993 119 993 119 959 88 c 0,49,50
 926 58 926 58 885.5 36 c 128,-1,51
 845 14 845 14 806 0 c 0,52,53
 769 -13 769 -13 722 -21 c 128,-1,54
 675 -29 675 -29 616 -29 c 0,4,5
EndSplineSet
Validated: 1
EndChar

StartChar: Uhorn
Encoding: 431 431 97
Width: 1233
Flags: W
LayerCount: 2
Fore
SplineSet
1204 1561 m 1,0,1
 1215 1519 1215 1519 1219.5 1487 c 128,-1,2
 1224 1455 1224 1455 1224 1418 c 0,3,4
 1224 1306 1224 1306 1181.5 1247 c 128,-1,5
 1139 1188 1139 1188 1050 1188 c 0,6,7
 1024 1188 1024 1188 999 1193.5 c 128,-1,8
 974 1199 974 1199 947 1213 c 1,9,-1
 947 573 l 2,10,11
 947 510 947 510 945.5 461 c 128,-1,12
 944 412 944 412 940 373 c 128,-1,13
 936 334 936 334 930.5 303.5 c 128,-1,14
 925 273 925 273 918 248 c 0,15,16
 902 195 902 195 876 155 c 128,-1,17
 850 115 850 115 817 85 c 128,-1,18
 784 55 784 55 746 34 c 128,-1,19
 708 13 708 13 669 0 c 0,20,21
 582 -29 582 -29 480 -29 c 0,22,23
 371 -29 371 -29 283.5 2 c 128,-1,24
 196 33 196 33 136 87 c 0,25,26
 100 120 100 120 76 161 c 128,-1,27
 52 202 52 202 38 250 c 0,28,29
 24 297 24 297 16.5 373.5 c 128,-1,30
 9 450 9 450 9 573 c 2,31,-1
 9 1493 l 1,32,-1
 212 1493 l 1,33,-1
 212 481 l 2,34,35
 212 372 212 372 218 326 c 0,36,37
 221 305 221 305 228 282 c 128,-1,38
 235 259 235 259 248.5 237.5 c 128,-1,39
 262 216 262 216 282 197 c 128,-1,40
 302 178 302 178 332 164 c 0,41,42
 361 150 361 150 398.5 142.5 c 128,-1,43
 436 135 436 135 478 135 c 0,44,45
 563 135 563 135 627 166 c 128,-1,46
 691 197 691 197 719 254 c 0,47,48
 725 266 725 266 730.5 284 c 128,-1,49
 736 302 736 302 739 325 c 0,50,51
 745 371 745 371 745 479 c 2,52,-1
 745 1493 l 1,53,-1
 947 1493 l 1,54,-1
 947 1342 l 1,55,56
 984 1327 984 1327 1013 1327 c 0,57,58
 1055 1327 1055 1327 1078 1355 c 128,-1,59
 1101 1383 1101 1383 1101 1437 c 0,60,61
 1101 1499 1101 1499 1071 1561 c 1,62,-1
 1204 1561 l 1,63,-1
 1204 1561 l 1,0,1
EndSplineSet
Validated: 5
EndChar

StartChar: Uhungarumlaut
Encoding: 368 368 98
Width: 1233
Flags: W
LayerCount: 2
Fore
SplineSet
541 1852 m 1,0,-1
 727 1852 l 1,1,-1
 498 1588 l 1,2,-1
 344 1588 l 1,3,-1
 541 1852 l 1,0,-1
860 1852 m 1,4,-1
 1046 1852 l 1,5,-1
 817 1588 l 1,6,-1
 663 1588 l 1,7,-1
 860 1852 l 1,4,-1
618 -29 m 0,8,9
 509 -29 509 -29 421.5 2 c 128,-1,10
 334 33 334 33 274 87 c 0,11,12
 238 120 238 120 214 161 c 128,-1,13
 190 202 190 202 176 250 c 0,14,15
 162 297 162 297 154.5 373.5 c 128,-1,16
 147 450 147 450 147 573 c 2,17,-1
 147 1493 l 1,18,-1
 350 1493 l 1,19,-1
 350 481 l 2,20,21
 350 372 350 372 356 326 c 0,22,23
 359 305 359 305 366 282 c 128,-1,24
 373 259 373 259 386.5 237.5 c 128,-1,25
 400 216 400 216 420 197 c 128,-1,26
 440 178 440 178 470 164 c 0,27,28
 499 150 499 150 536.5 142.5 c 128,-1,29
 574 135 574 135 616 135 c 0,30,31
 701 135 701 135 765 166 c 128,-1,32
 829 197 829 197 857 254 c 0,33,34
 863 266 863 266 868.5 284 c 128,-1,35
 874 302 874 302 877 325 c 0,36,37
 883 371 883 371 883 479 c 2,38,-1
 883 1493 l 1,39,-1
 1085 1493 l 1,40,-1
 1085 573 l 2,41,42
 1085 510 1085 510 1083.5 461 c 128,-1,43
 1082 412 1082 412 1078 373 c 128,-1,44
 1074 334 1074 334 1068.5 303.5 c 128,-1,45
 1063 273 1063 273 1056 248 c 0,46,47
 1040 195 1040 195 1014 155 c 128,-1,48
 988 115 988 115 955 85 c 128,-1,49
 922 55 922 55 884 34 c 128,-1,50
 846 13 846 13 807 0 c 0,51,52
 720 -29 720 -29 618 -29 c 0,8,9
EndSplineSet
Validated: 1
EndChar

StartChar: Umacron
Encoding: 362 362 99
Width: 1233
Flags: W
LayerCount: 2
Fore
SplineSet
317 1800 m 1,0,-1
 915 1800 l 1,1,-1
 915 1652 l 1,2,-1
 317 1652 l 1,3,-1
 317 1800 l 1,0,-1
618 -29 m 0,4,5
 509 -29 509 -29 421.5 2 c 128,-1,6
 334 33 334 33 274 87 c 0,7,8
 238 120 238 120 214 161 c 128,-1,9
 190 202 190 202 176 250 c 0,10,11
 162 297 162 297 154.5 373.5 c 128,-1,12
 147 450 147 450 147 573 c 2,13,-1
 147 1493 l 1,14,-1
 350 1493 l 1,15,-1
 350 481 l 2,16,17
 350 372 350 372 356 326 c 0,18,19
 359 305 359 305 366 282 c 128,-1,20
 373 259 373 259 386.5 237.5 c 128,-1,21
 400 216 400 216 420 197 c 128,-1,22
 440 178 440 178 470 164 c 0,23,24
 499 150 499 150 536.5 142.5 c 128,-1,25
 574 135 574 135 616 135 c 0,26,27
 701 135 701 135 765 166 c 128,-1,28
 829 197 829 197 857 254 c 0,29,30
 863 266 863 266 868.5 284 c 128,-1,31
 874 302 874 302 877 325 c 0,32,33
 883 371 883 371 883 479 c 2,34,-1
 883 1493 l 1,35,-1
 1085 1493 l 1,36,-1
 1085 573 l 2,37,38
 1085 510 1085 510 1083.5 461 c 128,-1,39
 1082 412 1082 412 1078 373 c 128,-1,40
 1074 334 1074 334 1068.5 303.5 c 128,-1,41
 1063 273 1063 273 1056 248 c 0,42,43
 1040 195 1040 195 1014 155 c 128,-1,44
 988 115 988 115 955 85 c 128,-1,45
 922 55 922 55 884 34 c 128,-1,46
 846 13 846 13 807 0 c 0,47,48
 720 -29 720 -29 618 -29 c 0,4,5
EndSplineSet
Validated: 1
EndChar

StartChar: Uogonek
Encoding: 370 370 100
Width: 1233
Flags: W
LayerCount: 2
Fore
SplineSet
1085 1493 m 1,0,-1
 1085 573 l 2,1,2
 1085 510 1085 510 1083.5 461 c 128,-1,3
 1082 412 1082 412 1078 373 c 128,-1,4
 1074 334 1074 334 1068.5 303.5 c 128,-1,5
 1063 273 1063 273 1056 248 c 0,6,7
 1040 195 1040 195 1014 155 c 128,-1,8
 988 115 988 115 955 85 c 128,-1,9
 922 55 922 55 884 34 c 128,-1,10
 846 13 846 13 807 0 c 0,11,12
 775 -11 775 -11 740 -18 c 128,-1,13
 705 -25 705 -25 667 -27 c 1,14,15
 623 -88 623 -88 605 -128 c 128,-1,16
 587 -168 587 -168 587 -200 c 0,17,18
 587 -242 587 -242 615 -265 c 128,-1,19
 643 -288 643 -288 697 -288 c 0,20,21
 759 -288 759 -288 821 -258 c 1,22,-1
 821 -391 l 1,23,24
 779 -402 779 -402 747 -406.5 c 128,-1,25
 715 -411 715 -411 678 -411 c 0,26,27
 566 -411 566 -411 507 -368.5 c 128,-1,28
 448 -326 448 -326 448 -237 c 0,29,30
 448 -213 448 -213 453 -189.5 c 128,-1,31
 458 -166 458 -166 469.5 -140.5 c 128,-1,32
 481 -115 481 -115 500 -86.5 c 128,-1,33
 519 -58 519 -58 548 -25 c 1,34,35
 462 -17 462 -17 393 12.5 c 128,-1,36
 324 42 324 42 274 87 c 0,37,38
 238 120 238 120 214 161 c 128,-1,39
 190 202 190 202 176 250 c 0,40,41
 162 297 162 297 154.5 373.5 c 128,-1,42
 147 450 147 450 147 573 c 2,43,-1
 147 1493 l 1,44,-1
 350 1493 l 1,45,-1
 350 481 l 2,46,47
 350 372 350 372 356 326 c 0,48,49
 359 305 359 305 366 282 c 128,-1,50
 373 259 373 259 386.5 237.5 c 128,-1,51
 400 216 400 216 420 197 c 128,-1,52
 440 178 440 178 470 164 c 0,53,54
 499 150 499 150 536.5 142.5 c 128,-1,55
 574 135 574 135 616 135 c 0,56,57
 701 135 701 135 765 166 c 128,-1,58
 829 197 829 197 857 254 c 0,59,60
 863 266 863 266 868.5 284 c 128,-1,61
 874 302 874 302 877 325 c 0,62,63
 883 371 883 371 883 479 c 2,64,-1
 883 1493 l 1,65,-1
 1085 1493 l 1,0,-1
EndSplineSet
Validated: 1
EndChar

StartChar: Uring
Encoding: 366 366 101
Width: 1233
Flags: W
LayerCount: 2
Fore
SplineSet
627 1352 m 256,0,1
 569 1352 569 1352 519 1373.5 c 128,-1,2
 469 1395 469 1395 432 1432 c 128,-1,3
 395 1469 395 1469 373.5 1519.5 c 128,-1,4
 352 1570 352 1570 352 1627 c 256,5,6
 352 1684 352 1684 373.5 1734 c 128,-1,7
 395 1784 395 1784 432 1821 c 128,-1,8
 469 1858 469 1858 519 1879.5 c 128,-1,9
 569 1901 569 1901 627 1901 c 256,10,11
 685 1901 685 1901 735 1879.5 c 128,-1,12
 785 1858 785 1858 822 1821 c 128,-1,13
 859 1784 859 1784 880 1734 c 128,-1,14
 901 1684 901 1684 901 1627 c 256,15,16
 901 1570 901 1570 880 1519.5 c 128,-1,17
 859 1469 859 1469 822 1432 c 128,-1,18
 785 1395 785 1395 735 1373.5 c 128,-1,19
 685 1352 685 1352 627 1352 c 256,0,1
626 1475 m 256,20,21
 658 1475 658 1475 685.5 1487 c 128,-1,22
 713 1499 713 1499 733.5 1519.5 c 128,-1,23
 754 1540 754 1540 766 1567.5 c 128,-1,24
 778 1595 778 1595 778 1627 c 0,25,26
 778 1658 778 1658 766 1686 c 128,-1,27
 754 1714 754 1714 733.5 1734 c 128,-1,28
 713 1754 713 1754 685.5 1766 c 128,-1,29
 658 1778 658 1778 626 1778 c 256,30,31
 594 1778 594 1778 566.5 1766.5 c 128,-1,32
 539 1755 539 1755 518.5 1734.5 c 128,-1,33
 498 1714 498 1714 486.5 1686.5 c 128,-1,34
 475 1659 475 1659 475 1627 c 256,35,36
 475 1595 475 1595 486.5 1567 c 128,-1,37
 498 1539 498 1539 518.5 1518.5 c 128,-1,38
 539 1498 539 1498 566.5 1486.5 c 128,-1,39
 594 1475 594 1475 626 1475 c 256,20,21
618 -29 m 0,40,41
 509 -29 509 -29 421.5 2 c 128,-1,42
 334 33 334 33 274 87 c 0,43,44
 238 120 238 120 214 161 c 128,-1,45
 190 202 190 202 176 250 c 0,46,47
 162 297 162 297 154.5 373.5 c 128,-1,48
 147 450 147 450 147 573 c 2,49,-1
 147 1493 l 1,50,-1
 350 1493 l 1,51,-1
 350 481 l 2,52,53
 350 372 350 372 356 326 c 0,54,55
 359 305 359 305 366 282 c 128,-1,56
 373 259 373 259 386.5 237.5 c 128,-1,57
 400 216 400 216 420 197 c 128,-1,58
 440 178 440 178 470 164 c 0,59,60
 499 150 499 150 536.5 142.5 c 128,-1,61
 574 135 574 135 616 135 c 0,62,63
 701 135 701 135 765 166 c 128,-1,64
 829 197 829 197 857 254 c 0,65,66
 863 266 863 266 868.5 284 c 128,-1,67
 874 302 874 302 877 325 c 0,68,69
 883 371 883 371 883 479 c 2,70,-1
 883 1493 l 1,71,-1
 1085 1493 l 1,72,-1
 1085 573 l 2,73,74
 1085 510 1085 510 1083.5 461 c 128,-1,75
 1082 412 1082 412 1078 373 c 128,-1,76
 1074 334 1074 334 1068.5 303.5 c 128,-1,77
 1063 273 1063 273 1056 248 c 0,78,79
 1040 195 1040 195 1014 155 c 128,-1,80
 988 115 988 115 955 85 c 128,-1,81
 922 55 922 55 884 34 c 128,-1,82
 846 13 846 13 807 0 c 0,83,84
 720 -29 720 -29 618 -29 c 0,40,41
EndSplineSet
Validated: 1
EndChar

StartChar: Utilde
Encoding: 360 360 102
Width: 1233
Flags: W
LayerCount: 2
Fore
SplineSet
287 1633 m 1,0,1
 287 1735 287 1735 337.5 1793.5 c 128,-1,2
 388 1852 388 1852 482 1852 c 0,3,4
 522 1852 522 1852 552.5 1840.5 c 128,-1,5
 583 1829 583 1829 621 1809 c 2,6,-1
 678 1779 l 2,7,8
 721 1754 721 1754 750 1754 c 0,9,10
 781 1754 781 1754 801 1779 c 128,-1,11
 821 1804 821 1804 821 1846 c 2,12,-1
 821 1852 l 1,13,-1
 946 1852 l 1,14,15
 944 1803 944 1803 931 1762.5 c 128,-1,16
 918 1722 918 1722 894 1693.5 c 128,-1,17
 870 1665 870 1665 834.5 1649 c 128,-1,18
 799 1633 799 1633 753 1633 c 0,19,20
 721 1633 721 1633 689.5 1642.5 c 128,-1,21
 658 1652 658 1652 612 1676 c 2,22,-1
 555 1709 l 2,23,24
 530 1723 530 1723 515 1728.5 c 128,-1,25
 500 1734 500 1734 486 1734 c 0,26,27
 452 1734 452 1734 432 1709 c 128,-1,28
 412 1684 412 1684 412 1639 c 2,29,-1
 412 1633 l 1,30,-1
 287 1633 l 1,0,1
618 -29 m 0,31,32
 509 -29 509 -29 421.5 2 c 128,-1,33
 334 33 334 33 274 87 c 0,34,35
 238 120 238 120 214 161 c 128,-1,36
 190 202 190 202 176 250 c 0,37,38
 162 297 162 297 154.5 373.5 c 128,-1,39
 147 450 147 450 147 573 c 2,40,-1
 147 1493 l 1,41,-1
 350 1493 l 1,42,-1
 350 481 l 2,43,44
 350 372 350 372 356 326 c 0,45,46
 359 305 359 305 366 282 c 128,-1,47
 373 259 373 259 386.5 237.5 c 128,-1,48
 400 216 400 216 420 197 c 128,-1,49
 440 178 440 178 470 164 c 0,50,51
 499 150 499 150 536.5 142.5 c 128,-1,52
 574 135 574 135 616 135 c 0,53,54
 701 135 701 135 765 166 c 128,-1,55
 829 197 829 197 857 254 c 0,56,57
 863 266 863 266 868.5 284 c 128,-1,58
 874 302 874 302 877 325 c 0,59,60
 883 371 883 371 883 479 c 2,61,-1
 883 1493 l 1,62,-1
 1085 1493 l 1,63,-1
 1085 573 l 2,64,65
 1085 510 1085 510 1083.5 461 c 128,-1,66
 1082 412 1082 412 1078 373 c 128,-1,67
 1074 334 1074 334 1068.5 303.5 c 128,-1,68
 1063 273 1063 273 1056 248 c 0,69,70
 1040 195 1040 195 1014 155 c 128,-1,71
 988 115 988 115 955 85 c 128,-1,72
 922 55 922 55 884 34 c 128,-1,73
 846 13 846 13 807 0 c 0,74,75
 720 -29 720 -29 618 -29 c 0,31,32
EndSplineSet
Validated: 1
EndChar

StartChar: V
Encoding: 86 86 103
Width: 1233
Flags: W
LayerCount: 2
Fore
SplineSet
57 1493 m 1,0,-1
 266 1493 l 1,1,-1
 616 170 l 1,2,-1
 967 1493 l 1,3,-1
 1176 1493 l 1,4,-1
 739 0 l 1,5,-1
 494 0 l 1,6,-1
 57 1493 l 1,0,-1
EndSplineSet
Validated: 1
EndChar

StartChar: W
Encoding: 87 87 104
Width: 1233
Flags: W
LayerCount: 2
Fore
SplineSet
0 1493 m 1,0,-1
 197 1493 l 1,1,-1
 340 281 l 1,2,-1
 510 1083 l 1,3,-1
 721 1083 l 1,4,-1
 893 279 l 1,5,-1
 1036 1493 l 1,6,-1
 1233 1493 l 1,7,-1
 1010 0 l 1,8,-1
 819 0 l 1,9,-1
 616 887 l 1,10,-1
 414 0 l 1,11,-1
 223 0 l 1,12,-1
 0 1493 l 1,0,-1
EndSplineSet
Validated: 1
EndChar

StartChar: Wacute
Encoding: 7810 7810 105
Width: 1233
Flags: W
LayerCount: 2
Fore
SplineSet
672 1856 m 1,0,-1
 858 1856 l 1,1,-1
 629 1592 l 1,2,-1
 475 1592 l 1,3,-1
 672 1856 l 1,0,-1
0 1493 m 1,4,-1
 197 1493 l 1,5,-1
 340 281 l 1,6,-1
 510 1083 l 1,7,-1
 721 1083 l 1,8,-1
 893 279 l 1,9,-1
 1036 1493 l 1,10,-1
 1233 1493 l 1,11,-1
 1010 0 l 1,12,-1
 819 0 l 1,13,-1
 616 887 l 1,14,-1
 414 0 l 1,15,-1
 223 0 l 1,16,-1
 0 1493 l 1,4,-1
EndSplineSet
Validated: 1
EndChar

StartChar: Wcircumflex
Encoding: 372 372 106
Width: 1233
Flags: W
LayerCount: 2
Fore
SplineSet
522 1852 m 1,0,-1
 711 1852 l 1,1,-1
 922 1586 l 1,2,-1
 782 1586 l 1,3,-1
 616 1764 l 1,4,-1
 451 1586 l 1,5,-1
 311 1586 l 1,6,-1
 522 1852 l 1,0,-1
0 1493 m 1,7,-1
 197 1493 l 1,8,-1
 340 281 l 1,9,-1
 510 1083 l 1,10,-1
 721 1083 l 1,11,-1
 893 279 l 1,12,-1
 1036 1493 l 1,13,-1
 1233 1493 l 1,14,-1
 1010 0 l 1,15,-1
 819 0 l 1,16,-1
 616 887 l 1,17,-1
 414 0 l 1,18,-1
 223 0 l 1,19,-1
 0 1493 l 1,7,-1
EndSplineSet
Validated: 1
EndChar

StartChar: Wdieresis
Encoding: 7812 7812 107
Width: 1233
Flags: W
LayerCount: 2
Fore
SplineSet
350 1650 m 2,0,1
 337 1650 337 1650 328 1659 c 128,-1,2
 319 1668 319 1668 319 1681 c 2,3,-1
 319 1821 l 2,4,5
 319 1834 319 1834 328 1843 c 128,-1,6
 337 1852 337 1852 350 1852 c 2,7,-1
 491 1852 l 2,8,9
 504 1852 504 1852 513 1843 c 128,-1,10
 522 1834 522 1834 522 1821 c 2,11,-1
 522 1681 l 2,12,13
 522 1668 522 1668 513 1659 c 128,-1,14
 504 1650 504 1650 491 1650 c 2,15,-1
 350 1650 l 2,0,1
742 1650 m 2,16,17
 729 1650 729 1650 720 1659 c 128,-1,18
 711 1668 711 1668 711 1681 c 2,19,-1
 711 1821 l 2,20,21
 711 1834 711 1834 720 1843 c 128,-1,22
 729 1852 729 1852 742 1852 c 2,23,-1
 882 1852 l 2,24,25
 895 1852 895 1852 904 1843 c 128,-1,26
 913 1834 913 1834 913 1821 c 2,27,-1
 913 1681 l 2,28,29
 913 1668 913 1668 904 1659 c 128,-1,30
 895 1650 895 1650 882 1650 c 2,31,-1
 742 1650 l 2,16,17
0 1493 m 1,32,-1
 197 1493 l 1,33,-1
 340 281 l 1,34,-1
 510 1083 l 1,35,-1
 721 1083 l 1,36,-1
 893 279 l 1,37,-1
 1036 1493 l 1,38,-1
 1233 1493 l 1,39,-1
 1010 0 l 1,40,-1
 819 0 l 1,41,-1
 616 887 l 1,42,-1
 414 0 l 1,43,-1
 223 0 l 1,44,-1
 0 1493 l 1,32,-1
EndSplineSet
Validated: 1
EndChar

StartChar: Wgrave
Encoding: 7808 7808 108
Width: 1233
Flags: W
LayerCount: 2
Fore
SplineSet
377 1852 m 1,0,-1
 561 1852 l 1,1,-1
 758 1588 l 1,2,-1
 604 1588 l 1,3,-1
 377 1852 l 1,0,-1
0 1493 m 1,4,-1
 197 1493 l 1,5,-1
 340 281 l 1,6,-1
 510 1083 l 1,7,-1
 721 1083 l 1,8,-1
 893 279 l 1,9,-1
 1036 1493 l 1,10,-1
 1233 1493 l 1,11,-1
 1010 0 l 1,12,-1
 819 0 l 1,13,-1
 616 887 l 1,14,-1
 414 0 l 1,15,-1
 223 0 l 1,16,-1
 0 1493 l 1,4,-1
EndSplineSet
Validated: 1
EndChar

StartChar: X
Encoding: 88 88 109
Width: 1233
Flags: W
LayerCount: 2
Fore
SplineSet
518 791 m 1,0,-1
 86 1493 l 1,1,-1
 303 1493 l 1,2,-1
 631 930 l 1,3,-1
 965 1493 l 1,4,-1
 1182 1493 l 1,5,-1
 735 791 l 1,6,-1
 1214 0 l 1,7,-1
 997 0 l 1,8,-1
 631 643 l 1,9,-1
 236 0 l 1,10,-1
 18 0 l 1,11,-1
 518 791 l 1,0,-1
EndSplineSet
Validated: 1
EndChar

StartChar: Y
Encoding: 89 89 110
Width: 1233
Flags: W
LayerCount: 2
Fore
SplineSet
514 670 m 1,0,-1
 37 1493 l 1,1,-1
 252 1493 l 1,2,-1
 616 834 l 1,3,-1
 979 1493 l 1,4,-1
 1196 1493 l 1,5,-1
 717 670 l 1,6,-1
 717 0 l 1,7,-1
 514 0 l 1,8,-1
 514 670 l 1,0,-1
EndSplineSet
Validated: 1
EndChar

StartChar: Yacute
Encoding: 221 221 111
Width: 1233
Flags: W
LayerCount: 2
Fore
SplineSet
672 1852 m 1,0,-1
 858 1852 l 1,1,-1
 629 1588 l 1,2,-1
 475 1588 l 1,3,-1
 672 1852 l 1,0,-1
514 670 m 1,4,-1
 37 1493 l 1,5,-1
 252 1493 l 1,6,-1
 616 834 l 1,7,-1
 979 1493 l 1,8,-1
 1196 1493 l 1,9,-1
 717 670 l 1,10,-1
 717 0 l 1,11,-1
 514 0 l 1,12,-1
 514 670 l 1,4,-1
EndSplineSet
Validated: 1
EndChar

StartChar: Ycircumflex
Encoding: 374 374 112
Width: 1233
Flags: W
LayerCount: 2
Fore
SplineSet
522 1852 m 1,0,-1
 711 1852 l 1,1,-1
 922 1586 l 1,2,-1
 782 1586 l 1,3,-1
 616 1764 l 1,4,-1
 451 1586 l 1,5,-1
 311 1586 l 1,6,-1
 522 1852 l 1,0,-1
514 670 m 1,7,-1
 37 1493 l 1,8,-1
 252 1493 l 1,9,-1
 616 834 l 1,10,-1
 979 1493 l 1,11,-1
 1196 1493 l 1,12,-1
 717 670 l 1,13,-1
 717 0 l 1,14,-1
 514 0 l 1,15,-1
 514 670 l 1,7,-1
EndSplineSet
Validated: 1
EndChar

StartChar: Ydieresis
Encoding: 376 376 113
Width: 1233
Flags: W
LayerCount: 2
Fore
SplineSet
349 1649 m 2,0,1
 319 1649 319 1649 319 1679 c 2,2,-1
 319 1822 l 2,3,4
 319 1852 319 1852 349 1852 c 2,5,-1
 492 1852 l 2,6,7
 522 1852 522 1852 522 1822 c 2,8,-1
 522 1679 l 2,9,10
 522 1649 522 1649 492 1649 c 2,11,-1
 349 1649 l 2,0,1
741 1649 m 2,12,13
 711 1649 711 1649 711 1679 c 2,14,-1
 711 1822 l 2,15,16
 711 1852 711 1852 741 1852 c 2,17,-1
 883 1852 l 2,18,19
 913 1852 913 1852 913 1822 c 2,20,-1
 913 1679 l 2,21,22
 913 1649 913 1649 883 1649 c 2,23,-1
 741 1649 l 2,12,13
514 670 m 1,24,-1
 37 1493 l 1,25,-1
 252 1493 l 1,26,-1
 616 834 l 1,27,-1
 979 1493 l 1,28,-1
 1196 1493 l 1,29,-1
 717 670 l 1,30,-1
 717 0 l 1,31,-1
 514 0 l 1,32,-1
 514 670 l 1,24,-1
EndSplineSet
Validated: 1
EndChar

StartChar: Ygrave
Encoding: 7922 7922 114
Width: 1233
Flags: W
LayerCount: 2
Fore
SplineSet
377 1852 m 1,0,-1
 561 1852 l 1,1,-1
 758 1588 l 1,2,-1
 604 1588 l 1,3,-1
 377 1852 l 1,0,-1
514 670 m 1,4,-1
 37 1493 l 1,5,-1
 252 1493 l 1,6,-1
 616 834 l 1,7,-1
 979 1493 l 1,8,-1
 1196 1493 l 1,9,-1
 717 670 l 1,10,-1
 717 0 l 1,11,-1
 514 0 l 1,12,-1
 514 670 l 1,4,-1
EndSplineSet
Validated: 1
EndChar

StartChar: Z
Encoding: 90 90 115
Width: 1233
Flags: W
LayerCount: 2
Fore
SplineSet
110 154 m 1,0,-1
 869 1323 l 1,1,-1
 132 1323 l 1,2,-1
 132 1493 l 1,3,-1
 1101 1493 l 1,4,-1
 1101 1339 l 1,5,-1
 321 170 l 1,6,-1
 1123 170 l 1,7,-1
 1123 0 l 1,8,-1
 110 0 l 1,9,-1
 110 154 l 1,0,-1
EndSplineSet
Validated: 1
EndChar

StartChar: Zacute
Encoding: 377 377 116
Width: 1233
Flags: W
LayerCount: 2
Fore
SplineSet
653 1852 m 1,0,-1
 839 1852 l 1,1,-1
 610 1588 l 1,2,-1
 456 1588 l 1,3,-1
 653 1852 l 1,0,-1
110 154 m 1,4,-1
 869 1323 l 1,5,-1
 132 1323 l 1,6,-1
 132 1493 l 1,7,-1
 1101 1493 l 1,8,-1
 1101 1339 l 1,9,-1
 321 170 l 1,10,-1
 1123 170 l 1,11,-1
 1123 0 l 1,12,-1
 110 0 l 1,13,-1
 110 154 l 1,4,-1
EndSplineSet
Validated: 1
EndChar

StartChar: Zcaron
Encoding: 381 381 117
Width: 1233
Flags: W
LayerCount: 2
Fore
SplineSet
265 1852 m 1,0,-1
 405 1852 l 1,1,-1
 570 1674 l 1,2,-1
 736 1852 l 1,3,-1
 876 1852 l 1,4,-1
 665 1586 l 1,5,-1
 476 1586 l 1,6,-1
 265 1852 l 1,0,-1
110 154 m 1,7,-1
 869 1323 l 1,8,-1
 132 1323 l 1,9,-1
 132 1493 l 1,10,-1
 1101 1493 l 1,11,-1
 1101 1339 l 1,12,-1
 321 170 l 1,13,-1
 1123 170 l 1,14,-1
 1123 0 l 1,15,-1
 110 0 l 1,16,-1
 110 154 l 1,7,-1
EndSplineSet
Validated: 1
EndChar

StartChar: Zdotaccent
Encoding: 379 379 118
Width: 1233
Flags: W
LayerCount: 2
Fore
SplineSet
547 1647 m 2,0,1
 517 1647 517 1647 517 1677 c 2,2,-1
 517 1822 l 2,3,4
 517 1852 517 1852 547 1852 c 2,5,-1
 692 1852 l 2,6,7
 722 1852 722 1852 722 1822 c 2,8,-1
 722 1677 l 2,9,10
 722 1647 722 1647 692 1647 c 2,11,-1
 547 1647 l 2,0,1
110 154 m 1,12,-1
 869 1323 l 1,13,-1
 132 1323 l 1,14,-1
 132 1493 l 1,15,-1
 1101 1493 l 1,16,-1
 1101 1339 l 1,17,-1
 321 170 l 1,18,-1
 1123 170 l 1,19,-1
 1123 0 l 1,20,-1
 110 0 l 1,21,-1
 110 154 l 1,12,-1
EndSplineSet
Validated: 1
EndChar

StartChar: a
Encoding: 97 97 119
Width: 1233
Flags: W
LayerCount: 2
Fore
SplineSet
513 -29 m 0,0,1
 339 -29 339 -29 238 68 c 0,2,3
 190 114 190 114 163 176.5 c 128,-1,4
 136 239 136 239 136 327 c 0,5,6
 136 512 136 512 262 610 c 0,7,8
 386 707 386 707 630 707 c 2,9,-1
 877 707 l 1,10,-1
 877 736 l 2,11,12
 877 800 877 800 860 850 c 128,-1,13
 843 900 843 900 809 931 c 0,14,15
 776 961 776 961 722 976 c 128,-1,16
 668 991 668 991 596 991 c 0,17,18
 501 991 501 991 405 964 c 0,19,20
 308 937 308 937 218 885 c 1,21,-1
 218 1069 l 1,22,23
 260 1085 260 1085 311 1101 c 128,-1,24
 362 1117 362 1117 414 1128 c 0,25,26
 505 1147 505 1147 597 1147 c 0,27,28
 668 1147 668 1147 726 1136.5 c 128,-1,29
 784 1126 784 1126 834 1105 c 0,30,31
 880 1085 880 1085 921.5 1054.5 c 128,-1,32
 963 1024 963 1024 992 984 c 0,33,34
 1013 955 1013 955 1026 923 c 128,-1,35
 1039 891 1039 891 1046 860 c 0,36,37
 1062 787 1062 787 1062 639 c 2,38,-1
 1062 410 l 2,39,40
 1064 352 1064 352 1065 308 c 128,-1,41
 1066 264 1066 264 1071 226 c 0,42,43
 1076 184 1076 184 1082.5 147 c 128,-1,44
 1089 110 1089 110 1094 91 c 0,45,46
 1101 60 1101 60 1110 32.5 c 128,-1,47
 1119 5 1119 5 1121 0 c 1,48,-1
 936 0 l 1,49,50
 931 12 931 12 923.5 35.5 c 128,-1,51
 916 59 916 59 909 87 c 0,52,53
 904 109 904 109 899.5 131.5 c 128,-1,54
 895 154 895 154 893 170 c 1,55,56
 864 120 864 120 818.5 81 c 128,-1,57
 773 42 773 42 729 19 c 0,58,59
 681 -6 681 -6 627.5 -17.5 c 128,-1,60
 574 -29 574 -29 513 -29 c 0,0,1
551 125 m 0,61,62
 702 125 702 125 789 231 c 0,63,64
 877 339 877 339 877 522 c 2,65,-1
 877 563 l 1,66,-1
 644 563 l 2,67,68
 484 563 484 563 402 507 c 0,69,70
 359 478 359 478 339.5 435.5 c 128,-1,71
 320 393 320 393 320 337 c 0,72,73
 320 285 320 285 336 246.5 c 128,-1,74
 352 208 352 208 381 181 c 0,75,76
 410 155 410 155 451.5 140 c 128,-1,77
 493 125 493 125 551 125 c 0,61,62
EndSplineSet
Validated: 1
Substitution2: "Single Substitution lookup 16 subtable" ordfeminine
Substitution2: "'aalt' Access All Alternates in Latin lookup 0 subtable" ordfeminine
EndChar

StartChar: aacute
Encoding: 225 225 120
Width: 1233
Flags: W
LayerCount: 2
Fore
SplineSet
759 1673 m 1,0,-1
 957 1673 l 1,1,-1
 632 1297 l 1,2,-1
 478 1297 l 1,3,-1
 759 1673 l 1,0,-1
513 -29 m 0,4,5
 339 -29 339 -29 238 68 c 0,6,7
 190 114 190 114 163 176.5 c 128,-1,8
 136 239 136 239 136 327 c 0,9,10
 136 512 136 512 262 610 c 0,11,12
 386 707 386 707 630 707 c 2,13,-1
 877 707 l 1,14,-1
 877 736 l 2,15,16
 877 800 877 800 860 850 c 128,-1,17
 843 900 843 900 809 931 c 0,18,19
 776 961 776 961 722 976 c 128,-1,20
 668 991 668 991 596 991 c 0,21,22
 501 991 501 991 405 964 c 0,23,24
 308 937 308 937 218 885 c 1,25,-1
 218 1069 l 1,26,27
 260 1085 260 1085 311 1101 c 128,-1,28
 362 1117 362 1117 414 1128 c 0,29,30
 505 1147 505 1147 597 1147 c 0,31,32
 668 1147 668 1147 726 1136.5 c 128,-1,33
 784 1126 784 1126 834 1105 c 0,34,35
 880 1085 880 1085 921.5 1054.5 c 128,-1,36
 963 1024 963 1024 992 984 c 0,37,38
 1013 955 1013 955 1026 923 c 128,-1,39
 1039 891 1039 891 1046 860 c 0,40,41
 1062 787 1062 787 1062 639 c 2,42,-1
 1062 410 l 2,43,44
 1064 352 1064 352 1065 308 c 128,-1,45
 1066 264 1066 264 1071 226 c 0,46,47
 1076 184 1076 184 1082.5 147 c 128,-1,48
 1089 110 1089 110 1094 91 c 0,49,50
 1101 60 1101 60 1110 32.5 c 128,-1,51
 1119 5 1119 5 1121 0 c 1,52,-1
 936 0 l 1,53,54
 931 12 931 12 923.5 35.5 c 128,-1,55
 916 59 916 59 909 87 c 0,56,57
 904 109 904 109 899.5 131.5 c 128,-1,58
 895 154 895 154 893 170 c 1,59,60
 864 120 864 120 818.5 81 c 128,-1,61
 773 42 773 42 729 19 c 0,62,63
 681 -6 681 -6 627.5 -17.5 c 128,-1,64
 574 -29 574 -29 513 -29 c 0,4,5
551 125 m 0,65,66
 702 125 702 125 789 231 c 0,67,68
 877 339 877 339 877 522 c 2,69,-1
 877 563 l 1,70,-1
 644 563 l 2,71,72
 484 563 484 563 402 507 c 0,73,74
 359 478 359 478 339.5 435.5 c 128,-1,75
 320 393 320 393 320 337 c 0,76,77
 320 285 320 285 336 246.5 c 128,-1,78
 352 208 352 208 381 181 c 0,79,80
 410 155 410 155 451.5 140 c 128,-1,81
 493 125 493 125 551 125 c 0,65,66
EndSplineSet
Validated: 1
EndChar

StartChar: abreve
Encoding: 259 259 121
Width: 1233
Flags: W
LayerCount: 2
Fore
SplineSet
619 1296 m 0,0,1
 329 1296 329 1296 306 1583 c 1,2,-1
 425 1583 l 1,3,4
 436 1511 436 1511 481.5 1472 c 128,-1,5
 527 1433 527 1433 618 1433 c 0,6,7
 704 1433 704 1433 752 1470 c 128,-1,8
 800 1507 800 1507 814 1583 c 1,9,-1
 933 1583 l 1,10,11
 910 1296 910 1296 619 1296 c 0,0,1
513 -29 m 0,12,13
 339 -29 339 -29 238 68 c 0,14,15
 190 114 190 114 163 176.5 c 128,-1,16
 136 239 136 239 136 327 c 0,17,18
 136 512 136 512 262 610 c 0,19,20
 386 707 386 707 630 707 c 2,21,-1
 877 707 l 1,22,-1
 877 736 l 2,23,24
 877 800 877 800 860 850 c 128,-1,25
 843 900 843 900 809 931 c 0,26,27
 776 961 776 961 722 976 c 128,-1,28
 668 991 668 991 596 991 c 0,29,30
 501 991 501 991 405 964 c 0,31,32
 308 937 308 937 218 885 c 1,33,-1
 218 1069 l 1,34,35
 260 1085 260 1085 311 1101 c 128,-1,36
 362 1117 362 1117 414 1128 c 0,37,38
 505 1147 505 1147 597 1147 c 0,39,40
 668 1147 668 1147 726 1136.5 c 128,-1,41
 784 1126 784 1126 834 1105 c 0,42,43
 880 1085 880 1085 921.5 1054.5 c 128,-1,44
 963 1024 963 1024 992 984 c 0,45,46
 1013 955 1013 955 1026 923 c 128,-1,47
 1039 891 1039 891 1046 860 c 0,48,49
 1062 787 1062 787 1062 639 c 2,50,-1
 1062 410 l 2,51,52
 1064 352 1064 352 1065 308 c 128,-1,53
 1066 264 1066 264 1071 226 c 0,54,55
 1076 184 1076 184 1082.5 147 c 128,-1,56
 1089 110 1089 110 1094 91 c 0,57,58
 1101 60 1101 60 1110 32.5 c 128,-1,59
 1119 5 1119 5 1121 0 c 1,60,-1
 936 0 l 1,61,62
 931 12 931 12 923.5 35.5 c 128,-1,63
 916 59 916 59 909 87 c 0,64,65
 904 109 904 109 899.5 131.5 c 128,-1,66
 895 154 895 154 893 170 c 1,67,68
 864 120 864 120 818.5 81 c 128,-1,69
 773 42 773 42 729 19 c 0,70,71
 681 -6 681 -6 627.5 -17.5 c 128,-1,72
 574 -29 574 -29 513 -29 c 0,12,13
551 125 m 0,73,74
 702 125 702 125 789 231 c 0,75,76
 877 339 877 339 877 522 c 2,77,-1
 877 563 l 1,78,-1
 644 563 l 2,79,80
 484 563 484 563 402 507 c 0,81,82
 359 478 359 478 339.5 435.5 c 128,-1,83
 320 393 320 393 320 337 c 0,84,85
 320 285 320 285 336 246.5 c 128,-1,86
 352 208 352 208 381 181 c 0,87,88
 410 155 410 155 451.5 140 c 128,-1,89
 493 125 493 125 551 125 c 0,73,74
EndSplineSet
Validated: 1
EndChar

StartChar: acircumflex
Encoding: 226 226 122
Width: 1233
Flags: W
LayerCount: 2
Fore
SplineSet
546 1673 m 1,0,-1
 693 1673 l 1,1,-1
 939 1297 l 1,2,-1
 800 1297 l 1,3,-1
 619 1542 l 1,4,-1
 439 1297 l 1,5,-1
 300 1297 l 1,6,-1
 546 1673 l 1,0,-1
513 -29 m 0,7,8
 339 -29 339 -29 238 68 c 0,9,10
 190 114 190 114 163 176.5 c 128,-1,11
 136 239 136 239 136 327 c 0,12,13
 136 512 136 512 262 610 c 0,14,15
 386 707 386 707 630 707 c 2,16,-1
 877 707 l 1,17,-1
 877 736 l 2,18,19
 877 800 877 800 860 850 c 128,-1,20
 843 900 843 900 809 931 c 0,21,22
 776 961 776 961 722 976 c 128,-1,23
 668 991 668 991 596 991 c 0,24,25
 501 991 501 991 405 964 c 0,26,27
 308 937 308 937 218 885 c 1,28,-1
 218 1069 l 1,29,30
 260 1085 260 1085 311 1101 c 128,-1,31
 362 1117 362 1117 414 1128 c 0,32,33
 505 1147 505 1147 597 1147 c 0,34,35
 668 1147 668 1147 726 1136.5 c 128,-1,36
 784 1126 784 1126 834 1105 c 0,37,38
 880 1085 880 1085 921.5 1054.5 c 128,-1,39
 963 1024 963 1024 992 984 c 0,40,41
 1013 955 1013 955 1026 923 c 128,-1,42
 1039 891 1039 891 1046 860 c 0,43,44
 1062 787 1062 787 1062 639 c 2,45,-1
 1062 410 l 2,46,47
 1064 352 1064 352 1065 308 c 128,-1,48
 1066 264 1066 264 1071 226 c 0,49,50
 1076 184 1076 184 1082.5 147 c 128,-1,51
 1089 110 1089 110 1094 91 c 0,52,53
 1101 60 1101 60 1110 32.5 c 128,-1,54
 1119 5 1119 5 1121 0 c 1,55,-1
 936 0 l 1,56,57
 931 12 931 12 923.5 35.5 c 128,-1,58
 916 59 916 59 909 87 c 0,59,60
 904 109 904 109 899.5 131.5 c 128,-1,61
 895 154 895 154 893 170 c 1,62,63
 864 120 864 120 818.5 81 c 128,-1,64
 773 42 773 42 729 19 c 0,65,66
 681 -6 681 -6 627.5 -17.5 c 128,-1,67
 574 -29 574 -29 513 -29 c 0,7,8
551 125 m 0,68,69
 702 125 702 125 789 231 c 0,70,71
 877 339 877 339 877 522 c 2,72,-1
 877 563 l 1,73,-1
 644 563 l 2,74,75
 484 563 484 563 402 507 c 0,76,77
 359 478 359 478 339.5 435.5 c 128,-1,78
 320 393 320 393 320 337 c 0,79,80
 320 285 320 285 336 246.5 c 128,-1,81
 352 208 352 208 381 181 c 0,82,83
 410 155 410 155 451.5 140 c 128,-1,84
 493 125 493 125 551 125 c 0,68,69
EndSplineSet
Validated: 1
EndChar

StartChar: adieresis
Encoding: 228 228 123
Width: 1233
Flags: W
LayerCount: 2
Fore
SplineSet
352 1350 m 2,0,1
 322 1350 322 1350 322 1380 c 2,2,-1
 322 1522 l 2,3,4
 322 1552 322 1552 352 1552 c 2,5,-1
 495 1552 l 2,6,7
 525 1552 525 1552 525 1522 c 2,8,-1
 525 1380 l 2,9,10
 525 1350 525 1350 495 1350 c 2,11,-1
 352 1350 l 2,0,1
744 1350 m 2,12,13
 714 1350 714 1350 714 1380 c 2,14,-1
 714 1522 l 2,15,16
 714 1552 714 1552 744 1552 c 2,17,-1
 886 1552 l 2,18,19
 916 1552 916 1552 916 1522 c 2,20,-1
 916 1380 l 2,21,22
 916 1350 916 1350 886 1350 c 2,23,-1
 744 1350 l 2,12,13
513 -29 m 0,24,25
 339 -29 339 -29 238 68 c 0,26,27
 190 114 190 114 163 176.5 c 128,-1,28
 136 239 136 239 136 327 c 0,29,30
 136 512 136 512 262 610 c 0,31,32
 386 707 386 707 630 707 c 2,33,-1
 877 707 l 1,34,-1
 877 736 l 2,35,36
 877 800 877 800 860 850 c 128,-1,37
 843 900 843 900 809 931 c 0,38,39
 776 961 776 961 722 976 c 128,-1,40
 668 991 668 991 596 991 c 0,41,42
 501 991 501 991 405 964 c 0,43,44
 308 937 308 937 218 885 c 1,45,-1
 218 1069 l 1,46,47
 260 1085 260 1085 311 1101 c 128,-1,48
 362 1117 362 1117 414 1128 c 0,49,50
 505 1147 505 1147 597 1147 c 0,51,52
 668 1147 668 1147 726 1136.5 c 128,-1,53
 784 1126 784 1126 834 1105 c 0,54,55
 880 1085 880 1085 921.5 1054.5 c 128,-1,56
 963 1024 963 1024 992 984 c 0,57,58
 1013 955 1013 955 1026 923 c 128,-1,59
 1039 891 1039 891 1046 860 c 0,60,61
 1062 787 1062 787 1062 639 c 2,62,-1
 1062 410 l 2,63,64
 1064 352 1064 352 1065 308 c 128,-1,65
 1066 264 1066 264 1071 226 c 0,66,67
 1076 184 1076 184 1082.5 147 c 128,-1,68
 1089 110 1089 110 1094 91 c 0,69,70
 1101 60 1101 60 1110 32.5 c 128,-1,71
 1119 5 1119 5 1121 0 c 1,72,-1
 936 0 l 1,73,74
 931 12 931 12 923.5 35.5 c 128,-1,75
 916 59 916 59 909 87 c 0,76,77
 904 109 904 109 899.5 131.5 c 128,-1,78
 895 154 895 154 893 170 c 1,79,80
 864 120 864 120 818.5 81 c 128,-1,81
 773 42 773 42 729 19 c 0,82,83
 681 -6 681 -6 627.5 -17.5 c 128,-1,84
 574 -29 574 -29 513 -29 c 0,24,25
551 125 m 0,85,86
 702 125 702 125 789 231 c 0,87,88
 877 339 877 339 877 522 c 2,89,-1
 877 563 l 1,90,-1
 644 563 l 2,91,92
 484 563 484 563 402 507 c 0,93,94
 359 478 359 478 339.5 435.5 c 128,-1,95
 320 393 320 393 320 337 c 0,96,97
 320 285 320 285 336 246.5 c 128,-1,98
 352 208 352 208 381 181 c 0,99,100
 410 155 410 155 451.5 140 c 128,-1,101
 493 125 493 125 551 125 c 0,85,86
EndSplineSet
Validated: 1
EndChar

StartChar: agrave
Encoding: 224 224 124
Width: 1233
Flags: W
LayerCount: 2
Fore
SplineSet
282 1673 m 1,0,-1
 480 1673 l 1,1,-1
 761 1297 l 1,2,-1
 607 1297 l 1,3,-1
 282 1673 l 1,0,-1
513 -29 m 0,4,5
 339 -29 339 -29 238 68 c 0,6,7
 190 114 190 114 163 176.5 c 128,-1,8
 136 239 136 239 136 327 c 0,9,10
 136 512 136 512 262 610 c 0,11,12
 386 707 386 707 630 707 c 2,13,-1
 877 707 l 1,14,-1
 877 736 l 2,15,16
 877 800 877 800 860 850 c 128,-1,17
 843 900 843 900 809 931 c 0,18,19
 776 961 776 961 722 976 c 128,-1,20
 668 991 668 991 596 991 c 0,21,22
 501 991 501 991 405 964 c 0,23,24
 308 937 308 937 218 885 c 1,25,-1
 218 1069 l 1,26,27
 260 1085 260 1085 311 1101 c 128,-1,28
 362 1117 362 1117 414 1128 c 0,29,30
 505 1147 505 1147 597 1147 c 0,31,32
 668 1147 668 1147 726 1136.5 c 128,-1,33
 784 1126 784 1126 834 1105 c 0,34,35
 880 1085 880 1085 921.5 1054.5 c 128,-1,36
 963 1024 963 1024 992 984 c 0,37,38
 1013 955 1013 955 1026 923 c 128,-1,39
 1039 891 1039 891 1046 860 c 0,40,41
 1062 787 1062 787 1062 639 c 2,42,-1
 1062 410 l 2,43,44
 1064 352 1064 352 1065 308 c 128,-1,45
 1066 264 1066 264 1071 226 c 0,46,47
 1076 184 1076 184 1082.5 147 c 128,-1,48
 1089 110 1089 110 1094 91 c 0,49,50
 1101 60 1101 60 1110 32.5 c 128,-1,51
 1119 5 1119 5 1121 0 c 1,52,-1
 936 0 l 1,53,54
 931 12 931 12 923.5 35.5 c 128,-1,55
 916 59 916 59 909 87 c 0,56,57
 904 109 904 109 899.5 131.5 c 128,-1,58
 895 154 895 154 893 170 c 1,59,60
 864 120 864 120 818.5 81 c 128,-1,61
 773 42 773 42 729 19 c 0,62,63
 681 -6 681 -6 627.5 -17.5 c 128,-1,64
 574 -29 574 -29 513 -29 c 0,4,5
551 125 m 0,65,66
 702 125 702 125 789 231 c 0,67,68
 877 339 877 339 877 522 c 2,69,-1
 877 563 l 1,70,-1
 644 563 l 2,71,72
 484 563 484 563 402 507 c 0,73,74
 359 478 359 478 339.5 435.5 c 128,-1,75
 320 393 320 393 320 337 c 0,76,77
 320 285 320 285 336 246.5 c 128,-1,78
 352 208 352 208 381 181 c 0,79,80
 410 155 410 155 451.5 140 c 128,-1,81
 493 125 493 125 551 125 c 0,65,66
EndSplineSet
Validated: 1
EndChar

StartChar: amacron
Encoding: 257 257 125
Width: 1233
Flags: W
LayerCount: 2
Fore
SplineSet
320 1496 m 1,0,-1
 918 1496 l 1,1,-1
 918 1348 l 1,2,-1
 320 1348 l 1,3,-1
 320 1496 l 1,0,-1
513 -29 m 0,4,5
 339 -29 339 -29 238 68 c 0,6,7
 190 114 190 114 163 176.5 c 128,-1,8
 136 239 136 239 136 327 c 0,9,10
 136 512 136 512 262 610 c 0,11,12
 386 707 386 707 630 707 c 2,13,-1
 877 707 l 1,14,-1
 877 736 l 2,15,16
 877 800 877 800 860 850 c 128,-1,17
 843 900 843 900 809 931 c 0,18,19
 776 961 776 961 722 976 c 128,-1,20
 668 991 668 991 596 991 c 0,21,22
 501 991 501 991 405 964 c 0,23,24
 308 937 308 937 218 885 c 1,25,-1
 218 1069 l 1,26,27
 260 1085 260 1085 311 1101 c 128,-1,28
 362 1117 362 1117 414 1128 c 0,29,30
 505 1147 505 1147 597 1147 c 0,31,32
 668 1147 668 1147 726 1136.5 c 128,-1,33
 784 1126 784 1126 834 1105 c 0,34,35
 880 1085 880 1085 921.5 1054.5 c 128,-1,36
 963 1024 963 1024 992 984 c 0,37,38
 1013 955 1013 955 1026 923 c 128,-1,39
 1039 891 1039 891 1046 860 c 0,40,41
 1062 787 1062 787 1062 639 c 2,42,-1
 1062 410 l 2,43,44
 1064 352 1064 352 1065 308 c 128,-1,45
 1066 264 1066 264 1071 226 c 0,46,47
 1076 184 1076 184 1082.5 147 c 128,-1,48
 1089 110 1089 110 1094 91 c 0,49,50
 1101 60 1101 60 1110 32.5 c 128,-1,51
 1119 5 1119 5 1121 0 c 1,52,-1
 936 0 l 1,53,54
 931 12 931 12 923.5 35.5 c 128,-1,55
 916 59 916 59 909 87 c 0,56,57
 904 109 904 109 899.5 131.5 c 128,-1,58
 895 154 895 154 893 170 c 1,59,60
 864 120 864 120 818.5 81 c 128,-1,61
 773 42 773 42 729 19 c 0,62,63
 681 -6 681 -6 627.5 -17.5 c 128,-1,64
 574 -29 574 -29 513 -29 c 0,4,5
551 125 m 0,65,66
 702 125 702 125 789 231 c 0,67,68
 877 339 877 339 877 522 c 2,69,-1
 877 563 l 1,70,-1
 644 563 l 2,71,72
 484 563 484 563 402 507 c 0,73,74
 359 478 359 478 339.5 435.5 c 128,-1,75
 320 393 320 393 320 337 c 0,76,77
 320 285 320 285 336 246.5 c 128,-1,78
 352 208 352 208 381 181 c 0,79,80
 410 155 410 155 451.5 140 c 128,-1,81
 493 125 493 125 551 125 c 0,65,66
EndSplineSet
Validated: 1
EndChar

StartChar: aogonek
Encoding: 261 261 126
Width: 1233
Flags: W
LayerCount: 2
Fore
SplineSet
1078 -269 m 0,0,1
 1140 -269 1140 -269 1202 -239 c 1,2,-1
 1202 -372 l 1,3,4
 1160 -383 1160 -383 1128 -387.5 c 128,-1,5
 1096 -392 1096 -392 1059 -392 c 0,6,7
 947 -392 947 -392 888 -349.5 c 128,-1,8
 829 -307 829 -307 829 -218 c 0,9,10
 829 -193 829 -193 834.5 -169 c 128,-1,11
 840 -145 840 -145 852 -118.5 c 128,-1,12
 864 -92 864 -92 884.5 -63 c 128,-1,13
 905 -34 905 -34 935 1 c 1,14,15
 930 14 930 14 923 37 c 128,-1,16
 916 60 916 60 909 87 c 0,17,18
 904 109 904 109 899.5 131.5 c 128,-1,19
 895 154 895 154 893 170 c 1,20,21
 864 120 864 120 818.5 81 c 128,-1,22
 773 42 773 42 729 19 c 0,23,24
 681 -6 681 -6 627.5 -17.5 c 128,-1,25
 574 -29 574 -29 513 -29 c 0,26,27
 339 -29 339 -29 238 68 c 0,28,29
 190 114 190 114 163 176.5 c 128,-1,30
 136 239 136 239 136 327 c 0,31,32
 136 512 136 512 262 610 c 0,33,34
 386 707 386 707 630 707 c 2,35,-1
 877 707 l 1,36,-1
 877 736 l 2,37,38
 877 800 877 800 860 850 c 128,-1,39
 843 900 843 900 809 931 c 0,40,41
 776 961 776 961 722 976 c 128,-1,42
 668 991 668 991 596 991 c 0,43,44
 501 991 501 991 405 964 c 0,45,46
 308 937 308 937 218 885 c 1,47,-1
 218 1069 l 1,48,49
 260 1085 260 1085 311 1101 c 128,-1,50
 362 1117 362 1117 414 1128 c 0,51,52
 505 1147 505 1147 597 1147 c 0,53,54
 668 1147 668 1147 726 1136.5 c 128,-1,55
 784 1126 784 1126 834 1105 c 0,56,57
 880 1085 880 1085 921.5 1054.5 c 128,-1,58
 963 1024 963 1024 992 984 c 0,59,60
 1013 955 1013 955 1026 923 c 128,-1,61
 1039 891 1039 891 1046 860 c 0,62,63
 1062 787 1062 787 1062 639 c 2,64,-1
 1062 410 l 2,65,66
 1064 352 1064 352 1065 308 c 128,-1,67
 1066 264 1066 264 1071 226 c 0,68,69
 1076 184 1076 184 1082.5 147 c 128,-1,70
 1089 110 1089 110 1094 91 c 0,71,72
 1101 60 1101 60 1110 32.5 c 128,-1,73
 1119 5 1119 5 1121 0 c 1,74,-1
 1054 0 l 1,75,76
 1007 -64 1007 -64 987.5 -106 c 128,-1,77
 968 -148 968 -148 968 -181 c 0,78,79
 968 -223 968 -223 996 -246 c 128,-1,80
 1024 -269 1024 -269 1078 -269 c 0,0,1
877 563 m 1,81,-1
 644 563 l 2,82,83
 484 563 484 563 402 507 c 0,84,85
 359 478 359 478 339.5 435.5 c 128,-1,86
 320 393 320 393 320 337 c 0,87,88
 320 285 320 285 336 246.5 c 128,-1,89
 352 208 352 208 381 181 c 0,90,91
 410 155 410 155 451.5 140 c 128,-1,92
 493 125 493 125 551 125 c 0,93,94
 702 125 702 125 789 231 c 0,95,96
 877 339 877 339 877 522 c 2,97,-1
 877 563 l 1,81,-1
EndSplineSet
Validated: 1
EndChar

StartChar: aring
Encoding: 229 229 127
Width: 1233
Flags: W
LayerCount: 2
Fore
SplineSet
619 1249 m 0,0,1
 505 1249 505 1249 425 1329 c 256,2,3
 345 1409 345 1409 345 1524 c 256,4,5
 345 1639 345 1639 425 1719 c 0,6,7
 504 1798 504 1798 619 1798 c 0,8,9
 736 1798 736 1798 815 1719 c 256,10,11
 894 1640 894 1640 894 1524 c 256,12,13
 894 1408 894 1408 815 1329 c 0,14,15
 735 1249 735 1249 619 1249 c 0,0,1
619 1372 m 0,16,17
 683 1372 683 1372 727 1416 c 256,18,19
 771 1460 771 1460 771 1524 c 0,20,21
 771 1587 771 1587 727 1631 c 256,22,23
 683 1675 683 1675 618 1675 c 0,24,25
 555 1675 555 1675 512 1632 c 0,26,27
 468 1588 468 1588 468 1524 c 256,28,29
 468 1460 468 1460 512 1416 c 256,30,31
 556 1372 556 1372 619 1372 c 0,16,17
513 -29 m 0,32,33
 339 -29 339 -29 238 68 c 0,34,35
 190 114 190 114 163 176.5 c 128,-1,36
 136 239 136 239 136 327 c 0,37,38
 136 512 136 512 262 610 c 0,39,40
 386 707 386 707 630 707 c 2,41,-1
 877 707 l 1,42,-1
 877 736 l 2,43,44
 877 800 877 800 860 850 c 128,-1,45
 843 900 843 900 809 931 c 0,46,47
 776 961 776 961 722 976 c 128,-1,48
 668 991 668 991 596 991 c 0,49,50
 501 991 501 991 405 964 c 0,51,52
 308 937 308 937 218 885 c 1,53,-1
 218 1069 l 1,54,55
 260 1085 260 1085 311 1101 c 128,-1,56
 362 1117 362 1117 414 1128 c 0,57,58
 505 1147 505 1147 597 1147 c 0,59,60
 668 1147 668 1147 726 1136.5 c 128,-1,61
 784 1126 784 1126 834 1105 c 0,62,63
 880 1085 880 1085 921.5 1054.5 c 128,-1,64
 963 1024 963 1024 992 984 c 0,65,66
 1013 955 1013 955 1026 923 c 128,-1,67
 1039 891 1039 891 1046 860 c 0,68,69
 1062 787 1062 787 1062 639 c 2,70,-1
 1062 410 l 2,71,72
 1064 352 1064 352 1065 308 c 128,-1,73
 1066 264 1066 264 1071 226 c 0,74,75
 1076 184 1076 184 1082.5 147 c 128,-1,76
 1089 110 1089 110 1094 91 c 0,77,78
 1101 60 1101 60 1110 32.5 c 128,-1,79
 1119 5 1119 5 1121 0 c 1,80,-1
 936 0 l 1,81,82
 931 12 931 12 923.5 35.5 c 128,-1,83
 916 59 916 59 909 87 c 0,84,85
 904 109 904 109 899.5 131.5 c 128,-1,86
 895 154 895 154 893 170 c 1,87,88
 864 120 864 120 818.5 81 c 128,-1,89
 773 42 773 42 729 19 c 0,90,91
 681 -6 681 -6 627.5 -17.5 c 128,-1,92
 574 -29 574 -29 513 -29 c 0,32,33
551 125 m 0,93,94
 702 125 702 125 789 231 c 0,95,96
 877 339 877 339 877 522 c 2,97,-1
 877 563 l 1,98,-1
 644 563 l 2,99,100
 484 563 484 563 402 507 c 0,101,102
 359 478 359 478 339.5 435.5 c 128,-1,103
 320 393 320 393 320 337 c 0,104,105
 320 285 320 285 336 246.5 c 128,-1,106
 352 208 352 208 381 181 c 0,107,108
 410 155 410 155 451.5 140 c 128,-1,109
 493 125 493 125 551 125 c 0,93,94
EndSplineSet
Validated: 1
EndChar

StartChar: atilde
Encoding: 227 227 128
Width: 1233
Flags: W
LayerCount: 2
Fore
SplineSet
290 1339 m 1,0,1
 292 1474 292 1474 342 1547 c 0,2,3
 393 1621 393 1621 483 1621 c 0,4,5
 522 1621 522 1621 555 1607 c 0,6,7
 585 1594 585 1594 624 1560 c 2,8,-1
 681 1505 l 2,9,10
 692 1495 692 1495 702.5 1487.5 c 128,-1,11
 713 1480 713 1480 719 1476 c 0,12,13
 729 1470 729 1470 735 1468 c 128,-1,14
 741 1466 741 1466 749 1466 c 0,15,16
 787 1466 787 1466 805 1503 c 0,17,18
 822 1539 822 1539 824 1621 c 1,19,-1
 949 1621 l 1,20,21
 947 1486 947 1486 897 1413 c 0,22,23
 846 1339 846 1339 756 1339 c 0,24,25
 717 1339 717 1339 684 1353 c 0,26,27
 654 1366 654 1366 615 1400 c 2,28,-1
 558 1455 l 2,29,30
 545 1467 545 1467 535.5 1474 c 128,-1,31
 526 1481 526 1481 520 1485 c 0,32,33
 511 1490 511 1490 504.5 1492 c 128,-1,34
 498 1494 498 1494 490 1494 c 0,35,36
 452 1494 452 1494 434 1457 c 0,37,38
 415 1418 415 1418 414 1339 c 1,39,-1
 290 1339 l 1,0,1
513 -29 m 0,40,41
 339 -29 339 -29 238 68 c 0,42,43
 190 114 190 114 163 176.5 c 128,-1,44
 136 239 136 239 136 327 c 0,45,46
 136 512 136 512 262 610 c 0,47,48
 386 707 386 707 630 707 c 2,49,-1
 877 707 l 1,50,-1
 877 736 l 2,51,52
 877 800 877 800 860 850 c 128,-1,53
 843 900 843 900 809 931 c 0,54,55
 776 961 776 961 722 976 c 128,-1,56
 668 991 668 991 596 991 c 0,57,58
 501 991 501 991 405 964 c 0,59,60
 308 937 308 937 218 885 c 1,61,-1
 218 1069 l 1,62,63
 260 1085 260 1085 311 1101 c 128,-1,64
 362 1117 362 1117 414 1128 c 0,65,66
 505 1147 505 1147 597 1147 c 0,67,68
 668 1147 668 1147 726 1136.5 c 128,-1,69
 784 1126 784 1126 834 1105 c 0,70,71
 880 1085 880 1085 921.5 1054.5 c 128,-1,72
 963 1024 963 1024 992 984 c 0,73,74
 1013 955 1013 955 1026 923 c 128,-1,75
 1039 891 1039 891 1046 860 c 0,76,77
 1062 787 1062 787 1062 639 c 2,78,-1
 1062 410 l 2,79,80
 1064 352 1064 352 1065 308 c 128,-1,81
 1066 264 1066 264 1071 226 c 0,82,83
 1076 184 1076 184 1082.5 147 c 128,-1,84
 1089 110 1089 110 1094 91 c 0,85,86
 1101 60 1101 60 1110 32.5 c 128,-1,87
 1119 5 1119 5 1121 0 c 1,88,-1
 936 0 l 1,89,90
 931 12 931 12 923.5 35.5 c 128,-1,91
 916 59 916 59 909 87 c 0,92,93
 904 109 904 109 899.5 131.5 c 128,-1,94
 895 154 895 154 893 170 c 1,95,96
 864 120 864 120 818.5 81 c 128,-1,97
 773 42 773 42 729 19 c 0,98,99
 681 -6 681 -6 627.5 -17.5 c 128,-1,100
 574 -29 574 -29 513 -29 c 0,40,41
551 125 m 0,101,102
 702 125 702 125 789 231 c 0,103,104
 877 339 877 339 877 522 c 2,105,-1
 877 563 l 1,106,-1
 644 563 l 2,107,108
 484 563 484 563 402 507 c 0,109,110
 359 478 359 478 339.5 435.5 c 128,-1,111
 320 393 320 393 320 337 c 0,112,113
 320 285 320 285 336 246.5 c 128,-1,114
 352 208 352 208 381 181 c 0,115,116
 410 155 410 155 451.5 140 c 128,-1,117
 493 125 493 125 551 125 c 0,101,102
EndSplineSet
Validated: 1
EndChar

StartChar: ae
Encoding: 230 230 129
Width: 1233
Flags: W
LayerCount: 2
Fore
SplineSet
358 -29 m 0,0,1
 204 -29 204 -29 123 57 c 0,2,3
 80 102 80 102 60.5 164.5 c 128,-1,4
 41 227 41 227 41 304 c 0,5,6
 41 389 41 389 64.5 455 c 128,-1,7
 88 521 88 521 141 568 c 0,8,9
 242 657 242 657 432 657 c 2,10,-1
 549 657 l 1,11,-1
 549 745 l 2,12,13
 549 865 549 865 500 929 c 256,14,15
 451 993 451 993 357 993 c 0,16,17
 328 993 328 993 295.5 987.5 c 128,-1,18
 263 982 263 982 234 972 c 0,19,20
 204 962 204 962 170.5 946.5 c 128,-1,21
 137 931 137 931 106 911 c 1,22,-1
 106 1079 l 1,23,24
 144 1096 144 1096 180 1109.5 c 128,-1,25
 216 1123 216 1123 249 1131 c 0,26,27
 313 1147 313 1147 376 1147 c 0,28,29
 467 1147 467 1147 528 1116 c 0,30,31
 589 1084 589 1084 627 1020 c 1,32,33
 660 1081 660 1081 726 1114 c 256,34,35
 792 1147 792 1147 882 1147 c 0,36,37
 967 1147 967 1147 1029.5 1118 c 128,-1,38
 1092 1089 1092 1089 1128 1029 c 0,39,40
 1200 910 1200 910 1200 604 c 2,41,-1
 1200 514 l 1,42,-1
 709 514 l 1,43,44
 708 506 708 506 708 498 c 128,-1,45
 708 490 708 490 708 482 c 0,46,47
 708 479 708 479 707.5 472.5 c 128,-1,48
 707 466 707 466 707 443 c 0,49,50
 707 345 707 345 720.5 287.5 c 128,-1,51
 734 230 734 230 758 196 c 0,52,53
 785 158 785 158 826 141.5 c 128,-1,54
 867 125 867 125 923 125 c 0,55,56
 998 125 998 125 1064 151 c 0,57,58
 1129 177 1129 177 1178 227 c 1,59,-1
 1178 55 l 1,60,61
 1149 34 1149 34 1117.5 18 c 128,-1,62
 1086 2 1086 2 1057 -8 c 256,63,64
 1028 -18 1028 -18 992 -23.5 c 128,-1,65
 956 -29 956 -29 917 -29 c 0,66,67
 866 -29 866 -29 819.5 -18.5 c 128,-1,68
 773 -8 773 -8 736 12 c 0,69,70
 661 53 661 53 629 131 c 1,71,72
 590 51 590 51 524 11 c 0,73,74
 490 -9 490 -9 449.5 -19 c 128,-1,75
 409 -29 409 -29 358 -29 c 0,0,1
1036 657 m 1,76,-1
 1036 709 l 2,77,78
 1036 787 1036 787 1026 841 c 128,-1,79
 1016 895 1016 895 998 927 c 0,80,81
 981 957 981 957 950 975 c 128,-1,82
 919 993 919 993 872 993 c 0,83,84
 785 993 785 993 747 925 c 256,85,86
 709 857 709 857 709 700 c 2,87,-1
 709 657 l 1,88,-1
 1036 657 l 1,76,-1
375 125 m 0,89,90
 469 125 469 125 506 192 c 0,91,92
 523 224 523 224 533 282 c 128,-1,93
 543 340 543 340 543 442 c 2,94,-1
 543 514 l 1,95,-1
 494 514 l 2,96,97
 325 514 325 514 265 469 c 0,98,99
 235 446 235 446 220 406.5 c 128,-1,100
 205 367 205 367 205 313 c 0,101,102
 205 222 205 222 250 174 c 0,103,104
 295 125 295 125 375 125 c 0,89,90
EndSplineSet
Validated: 1
EndChar

StartChar: b
Encoding: 98 98 130
Width: 1233
Flags: W
LayerCount: 2
Fore
SplineSet
676 -29 m 0,0,1
 625 -29 625 -29 583 -18.5 c 128,-1,2
 541 -8 541 -8 500 15 c 0,3,4
 423 59 423 59 377 141 c 1,5,-1
 359 0 l 1,6,-1
 193 0 l 1,7,-1
 193 1556 l 1,8,-1
 377 1556 l 1,9,-1
 377 977 l 1,10,11
 420 1059 420 1059 499 1103 c 0,12,13
 576 1147 576 1147 680 1147 c 0,14,15
 776 1147 776 1147 856.5 1109 c 128,-1,16
 937 1071 937 1071 996 993 c 0,17,18
 1054 915 1054 915 1083 806 c 128,-1,19
 1112 697 1112 697 1112 561 c 0,20,21
 1112 287 1112 287 996 129 c 0,22,23
 939 51 939 51 859 11 c 128,-1,24
 779 -29 779 -29 676 -29 c 0,0,1
650 127 m 0,25,26
 783 127 783 127 850 236 c 0,27,28
 918 346 918 346 918 559 c 256,29,30
 918 772 918 772 850 882 c 0,31,32
 783 991 783 991 649 991 c 256,33,34
 515 991 515 991 446 882 c 0,35,36
 377 772 377 772 377 559 c 256,37,38
 377 346 377 346 446 237 c 0,39,40
 515 127 515 127 650 127 c 0,25,26
EndSplineSet
Validated: 1
EndChar

StartChar: c
Encoding: 99 99 131
Width: 1233
Flags: W
LayerCount: 2
Fore
SplineSet
712 -29 m 0,0,1
 587 -29 587 -29 484.5 10.5 c 128,-1,2
 382 50 382 50 310 127 c 0,3,4
 237 205 237 205 200.5 313.5 c 128,-1,5
 164 422 164 422 164 559 c 0,6,7
 164 702 164 702 202.5 810 c 128,-1,8
 241 918 241 918 311 992 c 0,9,10
 385 1070 385 1070 486.5 1108.5 c 128,-1,11
 588 1147 588 1147 713 1147 c 0,12,13
 759 1147 759 1147 798 1142 c 128,-1,14
 837 1137 837 1137 875 1126 c 0,15,16
 951 1105 951 1105 1030 1061 c 1,17,-1
 1030 868 l 1,18,19
 993 900 993 900 957 924 c 128,-1,20
 921 948 921 948 884 962 c 0,21,22
 809 991 809 991 718 991 c 0,23,24
 544 991 544 991 451 879 c 0,25,26
 358 766 358 766 358 560 c 0,27,28
 358 464 358 464 379.5 382 c 128,-1,29
 401 300 401 300 451 240 c 0,30,31
 545 127 545 127 721 127 c 0,32,33
 771 127 771 127 812.5 135 c 128,-1,34
 854 143 854 143 889 157 c 0,35,36
 934 174 934 174 966.5 196.5 c 128,-1,37
 999 219 999 219 1030 248 c 1,38,-1
 1030 57 l 1,39,40
 996 37 996 37 956 20 c 128,-1,41
 916 3 916 3 878 -8 c 0,42,43
 843 -18 843 -18 801.5 -23.5 c 128,-1,44
 760 -29 760 -29 712 -29 c 0,0,1
EndSplineSet
Validated: 1
EndChar

StartChar: cacute
Encoding: 263 263 132
Width: 1233
Flags: W
LayerCount: 2
Fore
SplineSet
815 1673 m 1,0,-1
 1013 1673 l 1,1,-1
 688 1297 l 1,2,-1
 534 1297 l 1,3,-1
 815 1673 l 1,0,-1
712 -29 m 0,4,5
 587 -29 587 -29 484.5 10.5 c 128,-1,6
 382 50 382 50 310 127 c 256,7,8
 238 204 238 204 201 313 c 128,-1,9
 164 422 164 422 164 559 c 0,10,11
 164 702 164 702 202.5 810 c 128,-1,12
 241 918 241 918 311 992 c 0,13,14
 385 1070 385 1070 486.5 1108.5 c 128,-1,15
 588 1147 588 1147 713 1147 c 0,16,17
 759 1147 759 1147 798 1142 c 128,-1,18
 837 1137 837 1137 875 1126 c 0,19,20
 951 1105 951 1105 1030 1061 c 1,21,-1
 1030 868 l 1,22,23
 993 900 993 900 957 924 c 128,-1,24
 921 948 921 948 884 962 c 0,25,26
 809 991 809 991 718 991 c 0,27,28
 544 991 544 991 451 879 c 0,29,30
 358 766 358 766 358 560 c 0,31,32
 358 464 358 464 379.5 382 c 128,-1,33
 401 300 401 300 451 240 c 0,34,35
 545 127 545 127 721 127 c 0,36,37
 771 127 771 127 812.5 135 c 128,-1,38
 854 143 854 143 889 157 c 0,39,40
 934 174 934 174 966.5 196.5 c 128,-1,41
 999 219 999 219 1030 248 c 1,42,-1
 1030 57 l 1,43,44
 996 37 996 37 956 20 c 128,-1,45
 916 3 916 3 878 -8 c 0,46,47
 843 -18 843 -18 801.5 -23.5 c 128,-1,48
 760 -29 760 -29 712 -29 c 0,4,5
EndSplineSet
Validated: 1
EndChar

StartChar: ccaron
Encoding: 269 269 133
Width: 1233
Flags: W
LayerCount: 2
Fore
SplineSet
356 1673 m 1,0,-1
 495 1673 l 1,1,-1
 675 1428 l 1,2,-1
 856 1673 l 1,3,-1
 995 1673 l 1,4,-1
 749 1297 l 1,5,-1
 602 1297 l 1,6,-1
 356 1673 l 1,0,-1
712 -29 m 0,7,8
 587 -29 587 -29 484.5 10.5 c 128,-1,9
 382 50 382 50 310 127 c 256,10,11
 238 204 238 204 201 313 c 128,-1,12
 164 422 164 422 164 559 c 0,13,14
 164 702 164 702 202.5 810 c 128,-1,15
 241 918 241 918 311 992 c 0,16,17
 385 1070 385 1070 486.5 1108.5 c 128,-1,18
 588 1147 588 1147 713 1147 c 0,19,20
 759 1147 759 1147 798 1142 c 128,-1,21
 837 1137 837 1137 875 1126 c 0,22,23
 951 1105 951 1105 1030 1061 c 1,24,-1
 1030 868 l 1,25,26
 993 900 993 900 957 924 c 128,-1,27
 921 948 921 948 884 962 c 0,28,29
 809 991 809 991 718 991 c 0,30,31
 544 991 544 991 451 879 c 0,32,33
 358 766 358 766 358 560 c 0,34,35
 358 464 358 464 379.5 382 c 128,-1,36
 401 300 401 300 451 240 c 0,37,38
 545 127 545 127 721 127 c 0,39,40
 771 127 771 127 812.5 135 c 128,-1,41
 854 143 854 143 889 157 c 0,42,43
 934 174 934 174 966.5 196.5 c 128,-1,44
 999 219 999 219 1030 248 c 1,45,-1
 1030 57 l 1,46,47
 996 37 996 37 956 20 c 128,-1,48
 916 3 916 3 878 -8 c 0,49,50
 843 -18 843 -18 801.5 -23.5 c 128,-1,51
 760 -29 760 -29 712 -29 c 0,7,8
EndSplineSet
Validated: 1
EndChar

StartChar: ccedilla
Encoding: 231 231 134
Width: 1233
Flags: W
LayerCount: 2
Fore
SplineSet
718 991 m 0,0,1
 544 991 544 991 451 879 c 0,2,3
 358 766 358 766 358 560 c 0,4,5
 358 464 358 464 379.5 382 c 128,-1,6
 401 300 401 300 451 240 c 0,7,8
 545 127 545 127 721 127 c 0,9,10
 771 127 771 127 812.5 135 c 128,-1,11
 854 143 854 143 889 157 c 0,12,13
 934 174 934 174 966.5 196.5 c 128,-1,14
 999 219 999 219 1030 248 c 1,15,-1
 1030 57 l 1,16,17
 996 37 996 37 956 20 c 128,-1,18
 916 3 916 3 878 -8 c 0,19,20
 858 -13 858 -13 837.5 -17.5 c 128,-1,21
 817 -22 817 -22 794 -24 c 1,22,23
 834 -72 834 -72 856 -115 c 0,24,25
 867 -138 867 -138 874.5 -163.5 c 128,-1,26
 882 -189 882 -189 882 -219 c 0,27,28
 882 -259 882 -259 867 -293 c 128,-1,29
 852 -327 852 -327 822 -350 c 0,30,31
 793 -372 793 -372 749 -383.5 c 128,-1,32
 705 -395 705 -395 643 -395 c 0,33,34
 599 -395 599 -395 556 -389 c 0,35,36
 510 -383 510 -383 468 -371 c 1,37,-1
 468 -240 l 1,38,39
 485 -248 485 -248 503 -254.5 c 128,-1,40
 521 -261 521 -261 540 -265 c 256,41,42
 559 -269 559 -269 580.5 -270.5 c 128,-1,43
 602 -272 602 -272 619 -272 c 0,44,45
 683 -272 683 -272 713 -248 c 256,46,47
 743 -224 743 -224 743 -180 c 0,48,49
 743 -148 743 -148 721 -105 c 0,50,51
 705 -73 705 -73 674 -28 c 1,52,53
 562 -22 562 -22 469.5 17 c 128,-1,54
 377 56 377 56 310 127 c 0,55,56
 238 204 238 204 201 313 c 128,-1,57
 164 422 164 422 164 559 c 0,58,59
 164 702 164 702 202.5 810 c 128,-1,60
 241 918 241 918 311 992 c 0,61,62
 385 1070 385 1070 486.5 1108.5 c 128,-1,63
 588 1147 588 1147 713 1147 c 0,64,65
 759 1147 759 1147 798 1142 c 128,-1,66
 837 1137 837 1137 875 1126 c 0,67,68
 951 1105 951 1105 1030 1061 c 1,69,-1
 1030 868 l 1,70,71
 993 900 993 900 957 924 c 128,-1,72
 921 948 921 948 884 962 c 0,73,74
 809 991 809 991 718 991 c 0,0,1
EndSplineSet
Validated: 1
EndChar

StartChar: cdotaccent
Encoding: 267 267 135
Width: 1233
Flags: W
LayerCount: 2
Fore
SplineSet
587 1348 m 2,0,1
 557 1348 557 1348 557 1378 c 2,2,-1
 557 1522 l 2,3,4
 557 1552 557 1552 587 1552 c 2,5,-1
 732 1552 l 2,6,7
 762 1552 762 1552 762 1522 c 2,8,-1
 762 1378 l 2,9,10
 762 1348 762 1348 732 1348 c 2,11,-1
 587 1348 l 2,0,1
717 -29 m 0,12,13
 587 -29 587 -29 484.5 11 c 128,-1,14
 382 51 382 51 310.5 127 c 128,-1,15
 239 203 239 203 201.5 312 c 128,-1,16
 164 421 164 421 164 559 c 256,17,18
 164 697 164 697 201.5 806 c 128,-1,19
 239 915 239 915 310.5 991 c 128,-1,20
 382 1067 382 1067 484.5 1107 c 128,-1,21
 587 1147 587 1147 717 1147 c 0,22,23
 798 1147 798 1147 875 1126.5 c 128,-1,24
 952 1106 952 1106 1030 1061 c 1,25,-1
 1030 868 l 1,26,27
 957 933 957 933 883.5 962 c 128,-1,28
 810 991 810 991 717 991 c 0,29,30
 543 991 543 991 450.5 879.5 c 128,-1,31
 358 768 358 768 358 559 c 0,32,33
 358 351 358 351 451 239 c 128,-1,34
 544 127 544 127 717 127 c 0,35,36
 814 127 814 127 889 156 c 128,-1,37
 964 185 964 185 1030 248 c 1,38,-1
 1030 57 l 1,39,40
 881 -29 881 -29 717 -29 c 0,12,13
EndSplineSet
Validated: 1
EndChar

StartChar: d
Encoding: 100 100 136
Width: 1233
Flags: W
LayerCount: 2
Fore
SplineSet
559 -29 m 0,0,1
 453 -29 453 -29 373 13 c 128,-1,2
 293 55 293 55 239 129 c 0,3,4
 181 208 181 208 152 317.5 c 128,-1,5
 123 427 123 427 123 562 c 0,6,7
 123 695 123 695 151.5 804.5 c 128,-1,8
 180 914 180 914 239 992 c 256,9,10
 298 1070 298 1070 380 1108.5 c 128,-1,11
 462 1147 462 1147 559 1147 c 0,12,13
 661 1147 661 1147 737 1104 c 0,14,15
 814 1060 814 1060 858 977 c 1,16,-1
 858 1556 l 1,17,-1
 1042 1556 l 1,18,-1
 1042 0 l 1,19,-1
 876 0 l 1,20,-1
 858 141 l 1,21,22
 835 101 835 101 806 69.5 c 128,-1,23
 777 38 777 38 736 15 c 0,24,25
 660 -29 660 -29 559 -29 c 0,0,1
585 127 m 0,26,27
 720 127 720 127 789 237 c 0,28,29
 858 346 858 346 858 559 c 256,30,31
 858 772 858 772 789 882 c 0,32,33
 757 933 757 933 707 962 c 128,-1,34
 657 991 657 991 586 991 c 0,35,36
 452 991 452 991 385 882 c 0,37,38
 317 772 317 772 317 559 c 256,39,40
 317 346 317 346 385 236 c 0,41,42
 420 179 420 179 471 153 c 128,-1,43
 522 127 522 127 585 127 c 0,26,27
EndSplineSet
Validated: 1
EndChar

StartChar: eth
Encoding: 240 240 137
Width: 1233
Flags: W
LayerCount: 2
Fore
SplineSet
617 -29 m 0,0,1
 501 -29 501 -29 412.5 8.5 c 128,-1,2
 324 46 324 46 262 119 c 0,3,4
 199 194 199 194 168 298 c 128,-1,5
 137 402 137 402 137 533 c 0,6,7
 137 665 137 665 168.5 770 c 128,-1,8
 200 875 200 875 262 949 c 256,9,10
 324 1023 324 1023 414.5 1059.5 c 128,-1,11
 505 1096 505 1096 631 1096 c 0,12,13
 649 1096 649 1096 654.5 1095.5 c 128,-1,14
 660 1095 660 1095 663 1095 c 0,15,16
 674 1094 674 1094 677.5 1094 c 128,-1,17
 681 1094 681 1094 682.5 1093.5 c 128,-1,18
 684 1093 684 1093 686 1093 c 128,-1,19
 688 1093 688 1093 696 1092 c 1,20,21
 693 1096 693 1096 685.5 1106 c 128,-1,22
 678 1116 678 1116 668 1129 c 128,-1,23
 658 1142 658 1142 647.5 1156 c 128,-1,24
 637 1170 637 1170 627 1182 c 0,25,26
 609 1205 609 1205 590.5 1226.5 c 128,-1,27
 572 1248 572 1248 553 1270 c 1,28,-1
 274 1178 l 1,29,-1
 244 1276 l 1,30,-1
 481 1356 l 1,31,-1
 299 1556 l 1,32,-1
 518 1556 l 1,33,-1
 645 1411 l 1,34,-1
 934 1505 l 1,35,-1
 967 1407 l 1,36,-1
 717 1327 l 1,37,38
 913 1115 913 1115 1005 925 c 0,39,40
 1051 829 1051 829 1073.5 732.5 c 128,-1,41
 1096 636 1096 636 1096 528 c 0,42,43
 1096 400 1096 400 1065 297 c 128,-1,44
 1034 194 1034 194 971 119 c 0,45,46
 907 43 907 43 818 7 c 128,-1,47
 729 -29 729 -29 617 -29 c 0,0,1
616 127 m 0,48,49
 754 127 754 127 827 233 c 0,50,51
 864 287 864 287 882.5 362 c 128,-1,52
 901 437 901 437 901 531 c 0,53,54
 901 591 901 591 893.5 643.5 c 128,-1,55
 886 696 886 696 872 747 c 256,56,57
 858 798 858 798 838 840.5 c 128,-1,58
 818 883 818 883 793 918 c 1,59,60
 776 925 776 925 753.5 930.5 c 128,-1,61
 731 936 731 936 717 938 c 0,62,63
 676 944 676 944 638 944 c 0,64,65
 565 944 565 944 506.5 919 c 128,-1,66
 448 894 448 894 409 840 c 256,67,68
 370 786 370 786 351 708.5 c 128,-1,69
 332 631 332 631 332 534 c 0,70,71
 332 340 332 340 406 233 c 0,72,73
 479 127 479 127 616 127 c 0,48,49
EndSplineSet
Validated: 1
EndChar

StartChar: dcaron
Encoding: 271 271 138
Width: 1233
Flags: W
LayerCount: 2
Fore
SplineSet
1114 1557 m 1,0,-1
 1312 1557 l 1,1,-1
 1199 1181 l 1,2,-1
 1045 1181 l 1,3,-1
 1114 1557 l 1,0,-1
526 -29 m 0,4,5
 426 -29 426 -29 346 11.5 c 128,-1,6
 266 52 266 52 209.5 128.5 c 128,-1,7
 153 205 153 205 123 314 c 128,-1,8
 93 423 93 423 93 561 c 0,9,10
 93 698 93 698 123.5 807 c 128,-1,11
 154 916 154 916 210 991.5 c 128,-1,12
 266 1067 266 1067 346.5 1107 c 128,-1,13
 427 1147 427 1147 527 1147 c 0,14,15
 631 1147 631 1147 707 1104 c 128,-1,16
 783 1061 783 1061 828 977 c 1,17,-1
 828 1556 l 1,18,-1
 1012 1556 l 1,19,-1
 1012 0 l 1,20,-1
 846 0 l 1,21,-1
 828 141 l 1,22,23
 782 57 782 57 705.5 14 c 128,-1,24
 629 -29 629 -29 526 -29 c 0,4,5
556 127 m 256,25,26
 690 127 690 127 759 236 c 128,-1,27
 828 345 828 345 828 559 c 256,28,29
 828 773 828 773 759 882 c 128,-1,30
 690 991 690 991 556 991 c 256,31,32
 422 991 422 991 354.5 882.5 c 128,-1,33
 287 774 287 774 287 559 c 256,34,35
 287 344 287 344 354.5 235.5 c 128,-1,36
 422 127 422 127 556 127 c 256,25,26
EndSplineSet
Validated: 1
EndChar

StartChar: dcroat
Encoding: 273 273 139
Width: 1233
Flags: W
LayerCount: 2
Fore
SplineSet
559 -29 m 0,0,1
 453 -29 453 -29 373 13 c 128,-1,2
 293 55 293 55 239 129 c 0,3,4
 181 208 181 208 152 317.5 c 128,-1,5
 123 427 123 427 123 562 c 0,6,7
 123 695 123 695 151.5 804.5 c 128,-1,8
 180 914 180 914 239 992 c 256,9,10
 298 1070 298 1070 380 1108.5 c 128,-1,11
 462 1147 462 1147 559 1147 c 0,12,13
 661 1147 661 1147 737 1104 c 0,14,15
 814 1060 814 1060 858 977 c 1,16,-1
 858 1286 l 1,17,-1
 553 1286 l 1,18,-1
 553 1407 l 1,19,-1
 858 1407 l 1,20,-1
 858 1556 l 1,21,-1
 1042 1556 l 1,22,-1
 1042 1407 l 1,23,-1
 1233 1407 l 1,24,-1
 1233 1286 l 1,25,-1
 1042 1286 l 1,26,-1
 1042 0 l 1,27,-1
 876 0 l 1,28,-1
 858 141 l 1,29,30
 835 101 835 101 806 69.5 c 128,-1,31
 777 38 777 38 736 15 c 0,32,33
 660 -29 660 -29 559 -29 c 0,0,1
585 127 m 0,34,35
 720 127 720 127 789 237 c 0,36,37
 858 346 858 346 858 559 c 256,38,39
 858 772 858 772 789 882 c 0,40,41
 757 933 757 933 707 962 c 128,-1,42
 657 991 657 991 586 991 c 0,43,44
 452 991 452 991 385 882 c 0,45,46
 317 772 317 772 317 559 c 256,47,48
 317 346 317 346 385 236 c 0,49,50
 420 179 420 179 471 153 c 128,-1,51
 522 127 522 127 585 127 c 0,34,35
EndSplineSet
Validated: 1
EndChar

StartChar: e
Encoding: 101 101 140
Width: 1233
Flags: W
LayerCount: 2
Fore
SplineSet
677 -29 m 0,0,1
 548 -29 548 -29 445.5 10.5 c 128,-1,2
 343 50 343 50 271 127 c 256,3,4
 199 204 199 204 161.5 312.5 c 128,-1,5
 124 421 124 421 124 558 c 0,6,7
 124 699 124 699 162 805.5 c 128,-1,8
 200 912 200 912 267 987 c 0,9,10
 340 1068 340 1068 438 1107.5 c 128,-1,11
 536 1147 536 1147 649 1147 c 0,12,13
 761 1147 761 1147 845.5 1110 c 128,-1,14
 930 1073 930 1073 990 1003 c 256,15,16
 1050 933 1050 933 1081.5 833.5 c 128,-1,17
 1113 734 1113 734 1113 606 c 2,18,-1
 1113 516 l 1,19,-1
 316 516 l 1,20,-1
 316 510 l 2,21,22
 316 327 316 327 412 227 c 0,23,24
 458 179 458 179 523.5 153 c 128,-1,25
 589 127 589 127 680 127 c 256,26,27
 771 127 771 127 865 155 c 0,28,29
 962 184 962 184 1070 240 c 1,30,-1
 1070 57 l 1,31,32
 1017 35 1017 35 967 19 c 128,-1,33
 917 3 917 3 868 -8 c 0,34,35
 820 -19 820 -19 772 -24 c 128,-1,36
 724 -29 724 -29 677 -29 c 0,0,1
929 660 m 1,37,38
 927 746 927 746 906.5 807.5 c 128,-1,39
 886 869 886 869 853 907 c 0,40,41
 817 949 817 949 764 970 c 128,-1,42
 711 991 711 991 645 991 c 0,43,44
 510 991 510 991 425 903 c 0,45,46
 339 814 339 814 323 659 c 1,47,-1
 929 660 l 1,37,38
EndSplineSet
Validated: 1
EndChar

StartChar: eacute
Encoding: 233 233 141
Width: 1233
Flags: W
LayerCount: 2
Fore
SplineSet
771 1673 m 1,0,-1
 969 1673 l 1,1,-1
 644 1297 l 1,2,-1
 490 1297 l 1,3,-1
 771 1673 l 1,0,-1
677 -29 m 0,4,5
 548 -29 548 -29 445.5 10.5 c 128,-1,6
 343 50 343 50 271 127 c 256,7,8
 199 204 199 204 161.5 312.5 c 128,-1,9
 124 421 124 421 124 558 c 0,10,11
 124 699 124 699 162 805.5 c 128,-1,12
 200 912 200 912 267 987 c 0,13,14
 340 1068 340 1068 438 1107.5 c 128,-1,15
 536 1147 536 1147 649 1147 c 0,16,17
 761 1147 761 1147 845.5 1110 c 128,-1,18
 930 1073 930 1073 990 1003 c 256,19,20
 1050 933 1050 933 1081.5 833.5 c 128,-1,21
 1113 734 1113 734 1113 606 c 2,22,-1
 1113 516 l 1,23,-1
 316 516 l 1,24,-1
 316 510 l 2,25,26
 316 327 316 327 412 227 c 0,27,28
 458 179 458 179 523.5 153 c 128,-1,29
 589 127 589 127 680 127 c 256,30,31
 771 127 771 127 865 155 c 0,32,33
 962 184 962 184 1070 240 c 1,34,-1
 1070 57 l 1,35,36
 1017 35 1017 35 963 18 c 128,-1,37
 909 1 909 1 868 -8 c 0,38,39
 820 -19 820 -19 772 -24 c 128,-1,40
 724 -29 724 -29 677 -29 c 0,4,5
929 660 m 1,41,42
 927 746 927 746 906.5 807.5 c 128,-1,43
 886 869 886 869 853 907 c 0,44,45
 817 949 817 949 764 970 c 128,-1,46
 711 991 711 991 645 991 c 0,47,48
 510 991 510 991 425 903 c 0,49,50
 339 814 339 814 323 659 c 1,51,-1
 929 660 l 1,41,42
EndSplineSet
Validated: 1
EndChar

StartChar: ecaron
Encoding: 283 283 142
Width: 1233
Flags: W
LayerCount: 2
Fore
SplineSet
333 1673 m 1,0,-1
 472 1673 l 1,1,-1
 652 1428 l 1,2,-1
 833 1673 l 1,3,-1
 972 1673 l 1,4,-1
 726 1297 l 1,5,-1
 579 1297 l 1,6,-1
 333 1673 l 1,0,-1
677 -29 m 0,7,8
 547 -29 547 -29 444.5 11.5 c 128,-1,9
 342 52 342 52 270.5 128 c 128,-1,10
 199 204 199 204 161.5 312 c 128,-1,11
 124 420 124 420 124 555 c 256,12,13
 124 690 124 690 161.5 799.5 c 128,-1,14
 199 909 199 909 267.5 986.5 c 128,-1,15
 336 1064 336 1064 432 1105.5 c 128,-1,16
 528 1147 528 1147 645 1147 c 0,17,18
 756 1147 756 1147 843 1109.5 c 128,-1,19
 930 1072 930 1072 990 1002 c 128,-1,20
 1050 932 1050 932 1081.5 832 c 128,-1,21
 1113 732 1113 732 1113 606 c 2,22,-1
 1113 516 l 1,23,-1
 316 516 l 1,24,-1
 316 510 l 2,25,26
 316 418 316 418 340.5 347 c 128,-1,27
 365 276 365 276 411.5 227 c 128,-1,28
 458 178 458 178 526 152.5 c 128,-1,29
 594 127 594 127 680 127 c 0,30,31
 770 127 770 127 865.5 155 c 128,-1,32
 961 183 961 183 1070 240 c 1,33,-1
 1070 57 l 1,34,35
 964 14 964 14 867.5 -7.5 c 128,-1,36
 771 -29 771 -29 677 -29 c 0,7,8
929 660 m 1,37,38
 926 817 926 817 854.5 904 c 128,-1,39
 783 991 783 991 647 991 c 256,40,41
 511 991 511 991 425.5 904.5 c 128,-1,42
 340 818 340 818 323 659 c 1,43,-1
 929 660 l 1,37,38
EndSplineSet
Validated: 1
EndChar

StartChar: ecircumflex
Encoding: 234 234 143
Width: 1233
Flags: W
LayerCount: 2
Fore
SplineSet
558 1673 m 1,0,-1
 705 1673 l 1,1,-1
 951 1297 l 1,2,-1
 812 1297 l 1,3,-1
 631 1542 l 1,4,-1
 451 1297 l 1,5,-1
 312 1297 l 1,6,-1
 558 1673 l 1,0,-1
677 -29 m 0,7,8
 548 -29 548 -29 445.5 10.5 c 128,-1,9
 343 50 343 50 271 127 c 256,10,11
 199 204 199 204 161.5 312.5 c 128,-1,12
 124 421 124 421 124 558 c 0,13,14
 124 699 124 699 162 805.5 c 128,-1,15
 200 912 200 912 267 987 c 0,16,17
 340 1068 340 1068 438 1107.5 c 128,-1,18
 536 1147 536 1147 649 1147 c 0,19,20
 761 1147 761 1147 845.5 1110 c 128,-1,21
 930 1073 930 1073 990 1003 c 256,22,23
 1050 933 1050 933 1081.5 833.5 c 128,-1,24
 1113 734 1113 734 1113 606 c 2,25,-1
 1113 516 l 1,26,-1
 316 516 l 1,27,-1
 316 510 l 2,28,29
 316 327 316 327 412 227 c 0,30,31
 458 179 458 179 523.5 153 c 128,-1,32
 589 127 589 127 680 127 c 256,33,34
 771 127 771 127 865 155 c 0,35,36
 962 184 962 184 1070 240 c 1,37,-1
 1070 57 l 1,38,39
 1017 35 1017 35 963 18 c 128,-1,40
 909 1 909 1 868 -8 c 0,41,42
 820 -19 820 -19 772 -24 c 128,-1,43
 724 -29 724 -29 677 -29 c 0,7,8
929 660 m 1,44,45
 927 746 927 746 906.5 807.5 c 128,-1,46
 886 869 886 869 853 907 c 0,47,48
 817 949 817 949 764 970 c 128,-1,49
 711 991 711 991 645 991 c 0,50,51
 510 991 510 991 425 903 c 0,52,53
 339 814 339 814 323 659 c 1,54,-1
 929 660 l 1,44,45
EndSplineSet
Validated: 1
EndChar

StartChar: edieresis
Encoding: 235 235 144
Width: 1233
Flags: W
LayerCount: 2
Fore
SplineSet
364 1350 m 2,0,1
 334 1350 334 1350 334 1380 c 2,2,-1
 334 1522 l 2,3,4
 334 1552 334 1552 364 1552 c 2,5,-1
 507 1552 l 2,6,7
 537 1552 537 1552 537 1522 c 2,8,-1
 537 1380 l 2,9,10
 537 1350 537 1350 507 1350 c 2,11,-1
 364 1350 l 2,0,1
756 1350 m 2,12,13
 726 1350 726 1350 726 1380 c 2,14,-1
 726 1522 l 2,15,16
 726 1552 726 1552 756 1552 c 2,17,-1
 898 1552 l 2,18,19
 928 1552 928 1552 928 1522 c 2,20,-1
 928 1380 l 2,21,22
 928 1350 928 1350 898 1350 c 2,23,-1
 756 1350 l 2,12,13
677 -29 m 0,24,25
 548 -29 548 -29 445.5 10.5 c 128,-1,26
 343 50 343 50 271 127 c 256,27,28
 199 204 199 204 161.5 312.5 c 128,-1,29
 124 421 124 421 124 558 c 0,30,31
 124 699 124 699 162 805.5 c 128,-1,32
 200 912 200 912 267 987 c 0,33,34
 340 1068 340 1068 438 1107.5 c 128,-1,35
 536 1147 536 1147 649 1147 c 0,36,37
 761 1147 761 1147 845.5 1110 c 128,-1,38
 930 1073 930 1073 990 1003 c 256,39,40
 1050 933 1050 933 1081.5 833.5 c 128,-1,41
 1113 734 1113 734 1113 606 c 2,42,-1
 1113 516 l 1,43,-1
 316 516 l 1,44,-1
 316 510 l 2,45,46
 316 327 316 327 412 227 c 0,47,48
 458 179 458 179 523.5 153 c 128,-1,49
 589 127 589 127 680 127 c 256,50,51
 771 127 771 127 865 155 c 0,52,53
 962 184 962 184 1070 240 c 1,54,-1
 1070 57 l 1,55,56
 1017 35 1017 35 963 18 c 128,-1,57
 909 1 909 1 868 -8 c 0,58,59
 820 -19 820 -19 772 -24 c 128,-1,60
 724 -29 724 -29 677 -29 c 0,24,25
929 660 m 1,61,62
 927 746 927 746 906.5 807.5 c 128,-1,63
 886 869 886 869 853 907 c 0,64,65
 817 949 817 949 764 970 c 128,-1,66
 711 991 711 991 645 991 c 0,67,68
 510 991 510 991 425 903 c 0,69,70
 339 814 339 814 323 659 c 1,71,-1
 929 660 l 1,61,62
EndSplineSet
Validated: 1
EndChar

StartChar: edotaccent
Encoding: 279 279 145
Width: 1233
Flags: W
LayerCount: 2
Fore
SplineSet
558 1348 m 2,0,1
 528 1348 528 1348 528 1378 c 2,2,-1
 528 1522 l 2,3,4
 528 1552 528 1552 558 1552 c 2,5,-1
 703 1552 l 2,6,7
 733 1552 733 1552 733 1522 c 2,8,-1
 733 1378 l 2,9,10
 733 1348 733 1348 703 1348 c 2,11,-1
 558 1348 l 2,0,1
677 -29 m 0,12,13
 547 -29 547 -29 444.5 11.5 c 128,-1,14
 342 52 342 52 270.5 128 c 128,-1,15
 199 204 199 204 161.5 312 c 128,-1,16
 124 420 124 420 124 555 c 256,17,18
 124 690 124 690 161.5 799.5 c 128,-1,19
 199 909 199 909 267.5 986.5 c 128,-1,20
 336 1064 336 1064 432 1105.5 c 128,-1,21
 528 1147 528 1147 645 1147 c 0,22,23
 756 1147 756 1147 843 1109.5 c 128,-1,24
 930 1072 930 1072 990 1002 c 128,-1,25
 1050 932 1050 932 1081.5 832 c 128,-1,26
 1113 732 1113 732 1113 606 c 2,27,-1
 1113 516 l 1,28,-1
 316 516 l 1,29,-1
 316 510 l 2,30,31
 316 418 316 418 340.5 347 c 128,-1,32
 365 276 365 276 411.5 227 c 128,-1,33
 458 178 458 178 526 152.5 c 128,-1,34
 594 127 594 127 680 127 c 0,35,36
 770 127 770 127 865.5 155 c 128,-1,37
 961 183 961 183 1070 240 c 1,38,-1
 1070 57 l 1,39,40
 964 14 964 14 867.5 -7.5 c 128,-1,41
 771 -29 771 -29 677 -29 c 0,12,13
929 660 m 1,42,43
 926 817 926 817 854.5 904 c 128,-1,44
 783 991 783 991 647 991 c 256,45,46
 511 991 511 991 425.5 904.5 c 128,-1,47
 340 818 340 818 323 659 c 1,48,-1
 929 660 l 1,42,43
EndSplineSet
Validated: 1
EndChar

StartChar: egrave
Encoding: 232 232 146
Width: 1233
Flags: W
LayerCount: 2
Fore
SplineSet
294 1673 m 1,0,-1
 492 1673 l 1,1,-1
 773 1297 l 1,2,-1
 619 1297 l 1,3,-1
 294 1673 l 1,0,-1
677 -29 m 0,4,5
 548 -29 548 -29 445.5 10.5 c 128,-1,6
 343 50 343 50 271 127 c 256,7,8
 199 204 199 204 161.5 312.5 c 128,-1,9
 124 421 124 421 124 558 c 0,10,11
 124 699 124 699 162 805.5 c 128,-1,12
 200 912 200 912 267 987 c 0,13,14
 340 1068 340 1068 438 1107.5 c 128,-1,15
 536 1147 536 1147 649 1147 c 0,16,17
 761 1147 761 1147 845.5 1110 c 128,-1,18
 930 1073 930 1073 990 1003 c 256,19,20
 1050 933 1050 933 1081.5 833.5 c 128,-1,21
 1113 734 1113 734 1113 606 c 2,22,-1
 1113 516 l 1,23,-1
 316 516 l 1,24,-1
 316 510 l 2,25,26
 316 327 316 327 412 227 c 0,27,28
 458 179 458 179 523.5 153 c 128,-1,29
 589 127 589 127 680 127 c 256,30,31
 771 127 771 127 865 155 c 0,32,33
 962 184 962 184 1070 240 c 1,34,-1
 1070 57 l 1,35,36
 1017 35 1017 35 963 18 c 128,-1,37
 909 1 909 1 868 -8 c 0,38,39
 820 -19 820 -19 772 -24 c 128,-1,40
 724 -29 724 -29 677 -29 c 0,4,5
929 660 m 1,41,42
 927 746 927 746 906.5 807.5 c 128,-1,43
 886 869 886 869 853 907 c 0,44,45
 817 949 817 949 764 970 c 128,-1,46
 711 991 711 991 645 991 c 0,47,48
 510 991 510 991 425 903 c 0,49,50
 339 814 339 814 323 659 c 1,51,-1
 929 660 l 1,41,42
EndSplineSet
Validated: 1
EndChar

StartChar: emacron
Encoding: 275 275 147
Width: 1233
Flags: W
LayerCount: 2
Fore
SplineSet
353 1496 m 1,0,-1
 951 1496 l 1,1,-1
 951 1348 l 1,2,-1
 353 1348 l 1,3,-1
 353 1496 l 1,0,-1
677 -29 m 0,4,5
 547 -29 547 -29 444.5 11.5 c 128,-1,6
 342 52 342 52 270.5 128 c 128,-1,7
 199 204 199 204 161.5 312 c 128,-1,8
 124 420 124 420 124 555 c 256,9,10
 124 690 124 690 161.5 799.5 c 128,-1,11
 199 909 199 909 267.5 986.5 c 128,-1,12
 336 1064 336 1064 432 1105.5 c 128,-1,13
 528 1147 528 1147 645 1147 c 0,14,15
 756 1147 756 1147 843 1109.5 c 128,-1,16
 930 1072 930 1072 990 1002 c 128,-1,17
 1050 932 1050 932 1081.5 832 c 128,-1,18
 1113 732 1113 732 1113 606 c 2,19,-1
 1113 516 l 1,20,-1
 316 516 l 1,21,-1
 316 510 l 2,22,23
 316 418 316 418 340.5 347 c 128,-1,24
 365 276 365 276 411.5 227 c 128,-1,25
 458 178 458 178 526 152.5 c 128,-1,26
 594 127 594 127 680 127 c 0,27,28
 770 127 770 127 865.5 155 c 128,-1,29
 961 183 961 183 1070 240 c 1,30,-1
 1070 57 l 1,31,32
 964 14 964 14 867.5 -7.5 c 128,-1,33
 771 -29 771 -29 677 -29 c 0,4,5
929 660 m 1,34,35
 926 817 926 817 854.5 904 c 128,-1,36
 783 991 783 991 647 991 c 256,37,38
 511 991 511 991 425.5 904.5 c 128,-1,39
 340 818 340 818 323 659 c 1,40,-1
 929 660 l 1,34,35
EndSplineSet
Validated: 1
EndChar

StartChar: eogonek
Encoding: 281 281 148
Width: 1233
Flags: W
LayerCount: 2
Fore
SplineSet
316 516 m 1,0,-1
 316 510 l 2,1,2
 316 418 316 418 340.5 347 c 128,-1,3
 365 276 365 276 411.5 227 c 128,-1,4
 458 178 458 178 526 152.5 c 128,-1,5
 594 127 594 127 680 127 c 0,6,7
 770 127 770 127 865.5 155 c 128,-1,8
 961 183 961 183 1070 240 c 1,9,-1
 1070 57 l 1,10,11
 1024 38 1024 38 980 24 c 128,-1,12
 936 10 936 10 893 -1 c 1,13,14
 846 -66 846 -66 826 -108 c 128,-1,15
 806 -150 806 -150 806 -184 c 0,16,17
 806 -226 806 -226 834 -249 c 128,-1,18
 862 -272 862 -272 916 -272 c 0,19,20
 978 -272 978 -272 1040 -242 c 1,21,-1
 1040 -375 l 1,22,23
 998 -386 998 -386 966 -390.5 c 128,-1,24
 934 -395 934 -395 897 -395 c 0,25,26
 785 -395 785 -395 726 -352.5 c 128,-1,27
 667 -310 667 -310 667 -221 c 0,28,29
 667 -199 667 -199 671.5 -176.5 c 128,-1,30
 676 -154 676 -154 686 -130.5 c 128,-1,31
 696 -107 696 -107 712.5 -81 c 128,-1,32
 729 -55 729 -55 754 -25 c 1,33,34
 734 -27 734 -27 715 -28 c 128,-1,35
 696 -29 696 -29 677 -29 c 0,36,37
 547 -29 547 -29 444.5 11.5 c 128,-1,38
 342 52 342 52 270.5 128 c 128,-1,39
 199 204 199 204 161.5 312 c 128,-1,40
 124 420 124 420 124 555 c 256,41,42
 124 690 124 690 161.5 799.5 c 128,-1,43
 199 909 199 909 267.5 986.5 c 128,-1,44
 336 1064 336 1064 432 1105.5 c 128,-1,45
 528 1147 528 1147 645 1147 c 0,46,47
 756 1147 756 1147 843 1109.5 c 128,-1,48
 930 1072 930 1072 990 1002 c 128,-1,49
 1050 932 1050 932 1081.5 832 c 128,-1,50
 1113 732 1113 732 1113 606 c 2,51,-1
 1113 516 l 1,52,-1
 316 516 l 1,0,-1
647 991 m 256,53,54
 511 991 511 991 425.5 904.5 c 128,-1,55
 340 818 340 818 323 659 c 1,56,-1
 929 660 l 1,57,58
 926 817 926 817 854.5 904 c 128,-1,59
 783 991 783 991 647 991 c 256,53,54
EndSplineSet
Validated: 1
EndChar

StartChar: f
Encoding: 102 102 149
Width: 1233
Flags: W
LayerCount: 2
Fore
SplineSet
466 977 m 1,0,-1
 167 977 l 1,1,-1
 167 1120 l 1,2,-1
 466 1120 l 1,3,-1
 466 1198 l 2,4,5
 466 1383 466 1383 551 1469 c 0,6,7
 635 1556 635 1556 814 1556 c 2,8,-1
 1035 1556 l 1,9,-1
 1035 1403 l 1,10,-1
 826 1403 l 2,11,12
 772 1403 772 1403 739.5 1392.5 c 128,-1,13
 707 1382 707 1382 689 1363 c 0,14,15
 650 1322 650 1322 650 1219 c 2,16,-1
 650 1120 l 1,17,-1
 1035 1120 l 1,18,-1
 1035 977 l 1,19,-1
 650 977 l 1,20,-1
 650 0 l 1,21,-1
 466 0 l 1,22,-1
 466 977 l 1,0,-1
EndSplineSet
Validated: 1
EndChar

StartChar: g
Encoding: 103 103 150
Width: 1233
Flags: W
LayerCount: 2
Fore
SplineSet
601 -440 m 0,0,1
 562 -440 562 -440 523 -436.5 c 128,-1,2
 484 -433 484 -433 442 -426 c 0,3,4
 401 -419 401 -419 360.5 -409 c 128,-1,5
 320 -399 320 -399 276 -385 c 1,6,-1
 276 -203 l 1,7,8
 325 -226 325 -226 370.5 -243 c 128,-1,9
 416 -260 416 -260 454 -271 c 0,10,11
 532 -293 532 -293 605 -293 c 0,12,13
 679 -293 679 -293 731 -273 c 128,-1,14
 783 -253 783 -253 818 -211 c 0,15,16
 886 -131 886 -131 886 45 c 2,17,-1
 886 178 l 1,18,19
 843 85 843 85 766 38 c 0,20,21
 690 -8 690 -8 582 -8 c 0,22,23
 385 -8 385 -8 268 149 c 256,24,25
 151 306 151 306 151 569 c 256,26,27
 151 832 151 832 268 990 c 0,28,29
 327 1069 327 1069 404.5 1108 c 128,-1,30
 482 1147 482 1147 583 1147 c 0,31,32
 635 1147 635 1147 680.5 1136.5 c 128,-1,33
 726 1126 726 1126 764 1104 c 0,34,35
 840 1060 840 1060 886 971 c 1,36,-1
 904 1116 l 1,37,-1
 1070 1116 l 1,38,-1
 1070 72 l 2,39,40
 1070 -179 1070 -179 951 -310 c 0,41,42
 833 -440 833 -440 601 -440 c 0,0,1
622 145 m 0,43,44
 752 145 752 145 819 254 c 256,45,46
 886 363 886 363 886 569 c 0,47,48
 886 777 886 777 819 884 c 0,49,50
 784 941 784 941 733.5 966 c 128,-1,51
 683 991 683 991 621 991 c 0,52,53
 487 991 487 991 416 884 c 256,54,55
 345 777 345 777 345 568 c 0,56,57
 345 363 345 363 417 254 c 256,58,59
 489 145 489 145 622 145 c 0,43,44
EndSplineSet
Validated: 1
EndChar

StartChar: gbreve
Encoding: 287 287 151
Width: 1233
Flags: W
LayerCount: 2
Fore
SplineSet
644 1298 m 256,0,1
 500 1298 500 1298 421 1370 c 256,2,3
 342 1442 342 1442 331 1585 c 1,4,-1
 450 1585 l 1,5,6
 460 1510 460 1510 509 1472 c 0,7,8
 556 1435 556 1435 644 1435 c 0,9,10
 730 1435 730 1435 777 1472 c 0,11,12
 826 1510 826 1510 839 1585 c 1,13,-1
 958 1585 l 1,14,15
 947 1442 947 1442 868 1370 c 0,16,17
 788 1298 788 1298 644 1298 c 256,0,1
601 -440 m 0,18,19
 562 -440 562 -440 523 -436.5 c 128,-1,20
 484 -433 484 -433 442 -426 c 0,21,22
 401 -419 401 -419 360.5 -409 c 128,-1,23
 320 -399 320 -399 276 -385 c 1,24,-1
 276 -203 l 1,25,26
 325 -226 325 -226 370.5 -243 c 128,-1,27
 416 -260 416 -260 454 -271 c 0,28,29
 532 -293 532 -293 605 -293 c 0,30,31
 679 -293 679 -293 731 -273 c 128,-1,32
 783 -253 783 -253 818 -211 c 0,33,34
 851 -171 851 -171 868.5 -109.5 c 128,-1,35
 886 -48 886 -48 886 45 c 2,36,-1
 886 178 l 1,37,38
 843 85 843 85 766 38 c 0,39,40
 690 -8 690 -8 582 -8 c 0,41,42
 385 -8 385 -8 268 149 c 256,43,44
 151 306 151 306 151 569 c 256,45,46
 151 832 151 832 268 990 c 0,47,48
 327 1069 327 1069 404.5 1108 c 128,-1,49
 482 1147 482 1147 583 1147 c 0,50,51
 635 1147 635 1147 680.5 1136.5 c 128,-1,52
 726 1126 726 1126 764 1104 c 0,53,54
 840 1060 840 1060 886 971 c 1,55,-1
 904 1116 l 1,56,-1
 1070 1116 l 1,57,-1
 1070 72 l 2,58,59
 1070 -179 1070 -179 951 -310 c 0,60,61
 833 -440 833 -440 601 -440 c 0,18,19
622 145 m 0,62,63
 752 145 752 145 819 254 c 256,64,65
 886 363 886 363 886 569 c 0,66,67
 886 777 886 777 819 884 c 0,68,69
 784 941 784 941 733.5 966 c 128,-1,70
 683 991 683 991 621 991 c 0,71,72
 487 991 487 991 416 884 c 256,73,74
 345 777 345 777 345 568 c 0,75,76
 345 363 345 363 417 254 c 256,77,78
 489 145 489 145 622 145 c 0,62,63
EndSplineSet
Validated: 1
EndChar

StartChar: gcaron
Encoding: 487 487 152
Width: 1233
Flags: W
LayerCount: 2
Fore
SplineSet
325 1673 m 1,0,-1
 464 1673 l 1,1,-1
 644 1428 l 1,2,-1
 825 1673 l 1,3,-1
 964 1673 l 1,4,-1
 718 1297 l 1,5,-1
 571 1297 l 1,6,-1
 325 1673 l 1,0,-1
601 -440 m 0,7,8
 525 -440 525 -440 442.5 -426 c 128,-1,9
 360 -412 360 -412 276 -385 c 1,10,-1
 276 -203 l 1,11,12
 326 -226 326 -226 370.5 -243 c 128,-1,13
 415 -260 415 -260 455 -271 c 128,-1,14
 495 -282 495 -282 532.5 -287.5 c 128,-1,15
 570 -293 570 -293 607 -293 c 0,16,17
 752 -293 752 -293 819 -210.5 c 128,-1,18
 886 -128 886 -128 886 45 c 2,19,-1
 886 178 l 1,20,21
 844 87 844 87 769 39.5 c 128,-1,22
 694 -8 694 -8 585 -8 c 0,23,24
 485 -8 485 -8 404.5 33 c 128,-1,25
 324 74 324 74 268 149 c 128,-1,26
 212 224 212 224 181.5 331 c 128,-1,27
 151 438 151 438 151 570 c 256,28,29
 151 702 151 702 181 808.5 c 128,-1,30
 211 915 211 915 267.5 990 c 128,-1,31
 324 1065 324 1065 404.5 1106 c 128,-1,32
 485 1147 485 1147 586 1147 c 0,33,34
 689 1147 689 1147 764.5 1103.5 c 128,-1,35
 840 1060 840 1060 886 971 c 1,36,-1
 904 1116 l 1,37,-1
 1070 1116 l 1,38,-1
 1070 72 l 2,39,40
 1070 -182 1070 -182 951.5 -311 c 128,-1,41
 833 -440 833 -440 601 -440 c 0,7,8
620 145 m 256,42,43
 752 145 752 145 819 253 c 128,-1,44
 886 361 886 361 886 569 c 256,45,46
 886 777 886 777 819 884 c 128,-1,47
 752 991 752 991 619 991 c 0,48,49
 487 991 487 991 416 884.5 c 128,-1,50
 345 778 345 778 345 570 c 0,51,52
 345 361 345 361 416.5 253 c 128,-1,53
 488 145 488 145 620 145 c 256,42,43
EndSplineSet
Validated: 1
EndChar

StartChar: uni0123
Encoding: 291 291 153
Width: 1233
Flags: W
LayerCount: 2
Fore
SplineSet
701 1642 m 1,0,-1
 847 1642 l 1,1,-1
 753 1297 l 1,2,-1
 514 1297 l 1,3,-1
 701 1642 l 1,0,-1
601 -440 m 0,4,5
 525 -440 525 -440 442.5 -426 c 128,-1,6
 360 -412 360 -412 276 -385 c 1,7,-1
 276 -203 l 1,8,9
 326 -226 326 -226 370.5 -243 c 128,-1,10
 415 -260 415 -260 455 -271 c 128,-1,11
 495 -282 495 -282 532.5 -287.5 c 128,-1,12
 570 -293 570 -293 607 -293 c 0,13,14
 752 -293 752 -293 819 -210.5 c 128,-1,15
 886 -128 886 -128 886 45 c 2,16,-1
 886 178 l 1,17,18
 844 87 844 87 769 39.5 c 128,-1,19
 694 -8 694 -8 585 -8 c 0,20,21
 485 -8 485 -8 404.5 33 c 128,-1,22
 324 74 324 74 268 149 c 128,-1,23
 212 224 212 224 181.5 331 c 128,-1,24
 151 438 151 438 151 570 c 256,25,26
 151 702 151 702 181 808.5 c 128,-1,27
 211 915 211 915 267.5 990 c 128,-1,28
 324 1065 324 1065 404.5 1106 c 128,-1,29
 485 1147 485 1147 586 1147 c 0,30,31
 689 1147 689 1147 764.5 1103.5 c 128,-1,32
 840 1060 840 1060 886 971 c 1,33,-1
 904 1116 l 1,34,-1
 1070 1116 l 1,35,-1
 1070 72 l 2,36,37
 1070 -182 1070 -182 951.5 -311 c 128,-1,38
 833 -440 833 -440 601 -440 c 0,4,5
620 145 m 256,39,40
 752 145 752 145 819 253 c 128,-1,41
 886 361 886 361 886 569 c 256,42,43
 886 777 886 777 819 884 c 128,-1,44
 752 991 752 991 619 991 c 0,45,46
 487 991 487 991 416 884.5 c 128,-1,47
 345 778 345 778 345 570 c 0,48,49
 345 361 345 361 416.5 253 c 128,-1,50
 488 145 488 145 620 145 c 256,39,40
EndSplineSet
Validated: 1
EndChar

StartChar: gdotaccent
Encoding: 289 289 154
Width: 1233
Flags: W
LayerCount: 2
Fore
SplineSet
571 1348 m 2,0,1
 541 1348 541 1348 541 1378 c 2,2,-1
 541 1522 l 2,3,4
 541 1552 541 1552 571 1552 c 2,5,-1
 716 1552 l 2,6,7
 746 1552 746 1552 746 1522 c 2,8,-1
 746 1378 l 2,9,10
 746 1348 746 1348 716 1348 c 2,11,-1
 571 1348 l 2,0,1
601 -440 m 0,12,13
 525 -440 525 -440 442.5 -426 c 128,-1,14
 360 -412 360 -412 276 -385 c 1,15,-1
 276 -203 l 1,16,17
 326 -226 326 -226 370.5 -243 c 128,-1,18
 415 -260 415 -260 455 -271 c 128,-1,19
 495 -282 495 -282 532.5 -287.5 c 128,-1,20
 570 -293 570 -293 607 -293 c 0,21,22
 752 -293 752 -293 819 -210.5 c 128,-1,23
 886 -128 886 -128 886 45 c 2,24,-1
 886 178 l 1,25,26
 844 87 844 87 769 39.5 c 128,-1,27
 694 -8 694 -8 585 -8 c 0,28,29
 485 -8 485 -8 404.5 33 c 128,-1,30
 324 74 324 74 268 149 c 128,-1,31
 212 224 212 224 181.5 331 c 128,-1,32
 151 438 151 438 151 570 c 256,33,34
 151 702 151 702 181 808.5 c 128,-1,35
 211 915 211 915 267.5 990 c 128,-1,36
 324 1065 324 1065 404.5 1106 c 128,-1,37
 485 1147 485 1147 586 1147 c 0,38,39
 689 1147 689 1147 764.5 1103.5 c 128,-1,40
 840 1060 840 1060 886 971 c 1,41,-1
 904 1116 l 1,42,-1
 1070 1116 l 1,43,-1
 1070 72 l 2,44,45
 1070 -182 1070 -182 951.5 -311 c 128,-1,46
 833 -440 833 -440 601 -440 c 0,12,13
620 145 m 256,47,48
 752 145 752 145 819 253 c 128,-1,49
 886 361 886 361 886 569 c 256,50,51
 886 777 886 777 819 884 c 128,-1,52
 752 991 752 991 619 991 c 0,53,54
 487 991 487 991 416 884.5 c 128,-1,55
 345 778 345 778 345 570 c 0,56,57
 345 361 345 361 416.5 253 c 128,-1,58
 488 145 488 145 620 145 c 256,47,48
EndSplineSet
Validated: 1
EndChar

StartChar: h
Encoding: 104 104 155
Width: 1233
Flags: W
LayerCount: 2
Fore
SplineSet
195 1556 m 1,0,-1
 379 1556 l 1,1,-1
 379 952 l 1,2,3
 429 1049 429 1049 512 1098 c 256,4,5
 595 1147 595 1147 710 1147 c 0,6,7
 800 1147 800 1147 863 1118 c 128,-1,8
 926 1089 926 1089 967 1035 c 0,9,10
 1051 922 1051 922 1051 694 c 2,11,-1
 1051 0 l 1,12,-1
 866 0 l 1,13,-1
 866 694 l 2,14,15
 866 845 866 845 813 916 c 256,16,17
 760 987 760 987 646 987 c 0,18,19
 580 987 580 987 531.5 964 c 128,-1,20
 483 941 483 941 449 896 c 0,21,22
 379 805 379 805 379 633 c 2,23,-1
 379 0 l 1,24,-1
 195 0 l 1,25,-1
 195 1556 l 1,0,-1
EndSplineSet
Validated: 1
EndChar

StartChar: hbar
Encoding: 295 295 156
Width: 1233
Flags: W
LayerCount: 2
Fore
SplineSet
195 1270 m 1,0,-1
 70 1270 l 1,1,-1
 70 1434 l 1,2,-1
 195 1434 l 1,3,-1
 195 1556 l 1,4,-1
 379 1556 l 1,5,-1
 379 1434 l 1,6,-1
 732 1434 l 1,7,-1
 732 1270 l 1,8,-1
 379 1270 l 1,9,-1
 379 952 l 1,10,11
 428 1049 428 1049 512 1098 c 128,-1,12
 596 1147 596 1147 711 1147 c 0,13,14
 883 1147 883 1147 967 1035 c 128,-1,15
 1051 923 1051 923 1051 694 c 2,16,-1
 1051 0 l 1,17,-1
 866 0 l 1,18,-1
 866 694 l 2,19,20
 866 845 866 845 813.5 916 c 128,-1,21
 761 987 761 987 648 987 c 0,22,23
 517 987 517 987 448 896 c 128,-1,24
 379 805 379 805 379 633 c 2,25,-1
 379 0 l 1,26,-1
 195 0 l 1,27,-1
 195 1270 l 1,0,-1
EndSplineSet
Validated: 1
EndChar

StartChar: i
Encoding: 105 105 157
Width: 1233
Flags: W
LayerCount: 2
Fore
SplineSet
523 1323 m 2,0,1
 493 1323 493 1323 493 1353 c 2,2,-1
 493 1526 l 2,3,4
 493 1556 493 1556 523 1556 c 2,5,-1
 667 1556 l 2,6,7
 697 1556 697 1556 697 1526 c 2,8,-1
 697 1353 l 2,9,10
 697 1323 697 1323 667 1323 c 2,11,-1
 523 1323 l 2,0,1
859 -8 m 2,12,13
 779 -8 779 -8 715.5 17 c 128,-1,14
 652 42 652 42 604 98 c 0,15,16
 513 204 513 204 513 398 c 2,17,-1
 513 976 l 1,18,-1
 268 976 l 1,19,-1
 268 1120 l 1,20,-1
 697 1120 l 1,21,-1
 697 398 l 2,22,23
 697 273 697 273 743 211 c 0,24,25
 767 178 767 178 800.5 163 c 128,-1,26
 834 148 834 148 877 148 c 2,27,-1
 1092 148 l 1,28,-1
 1092 -8 l 1,29,-1
 859 -8 l 2,12,13
EndSplineSet
Validated: 1
EndChar

StartChar: dotlessi
Encoding: 305 305 158
Width: 1233
Flags: W
LayerCount: 2
Fore
SplineSet
859 -8 m 1,0,1
 779 -8 779 -8 715.5 17 c 128,-1,2
 652 42 652 42 604 98 c 0,3,4
 513 204 513 204 513 398 c 2,5,-1
 513 976 l 1,6,-1
 268 976 l 1,7,-1
 268 1120 l 1,8,-1
 697 1120 l 1,9,-1
 697 398 l 2,10,11
 697 273 697 273 743 211 c 0,12,13
 767 178 767 178 800.5 163 c 128,-1,14
 834 148 834 148 877 148 c 2,15,-1
 1092 148 l 1,16,-1
 1092 -8 l 1,17,-1
 859 -8 l 1,18,-1
 859 -8 l 1,0,1
EndSplineSet
Validated: 5
EndChar

StartChar: iacute
Encoding: 237 237 159
Width: 1233
Flags: W
LayerCount: 2
Fore
SplineSet
794 1647 m 1,0,-1
 992 1647 l 1,1,-1
 667 1271 l 1,2,-1
 513 1271 l 1,3,-1
 794 1647 l 1,0,-1
859 -8 m 2,4,5
 779 -8 779 -8 715.5 17 c 128,-1,6
 652 42 652 42 604 98 c 0,7,8
 513 204 513 204 513 398 c 2,9,-1
 513 976 l 1,10,-1
 268 976 l 1,11,-1
 268 1120 l 1,12,-1
 697 1120 l 1,13,-1
 697 398 l 2,14,15
 697 273 697 273 743 211 c 0,16,17
 767 178 767 178 800.5 163 c 128,-1,18
 834 148 834 148 877 148 c 2,19,-1
 1092 148 l 1,20,-1
 1092 -8 l 1,21,-1
 859 -8 l 2,4,5
EndSplineSet
Validated: 1
EndChar

StartChar: icircumflex
Encoding: 238 238 160
Width: 1233
Flags: W
LayerCount: 2
Fore
SplineSet
514 1648 m 1,0,-1
 661 1648 l 1,1,-1
 907 1272 l 1,2,-1
 768 1272 l 1,3,-1
 587 1517 l 1,4,-1
 407 1272 l 1,5,-1
 268 1272 l 1,6,-1
 514 1648 l 1,0,-1
859 -8 m 2,7,8
 779 -8 779 -8 715.5 17 c 128,-1,9
 652 42 652 42 604 98 c 0,10,11
 513 204 513 204 513 398 c 2,12,-1
 513 976 l 1,13,-1
 268 976 l 1,14,-1
 268 1120 l 1,15,-1
 697 1120 l 1,16,-1
 697 398 l 2,17,18
 697 273 697 273 743 211 c 0,19,20
 767 178 767 178 800.5 163 c 128,-1,21
 834 148 834 148 877 148 c 2,22,-1
 1092 148 l 1,23,-1
 1092 -8 l 1,24,-1
 859 -8 l 2,7,8
EndSplineSet
Validated: 1
EndChar

StartChar: idieresis
Encoding: 239 239 161
Width: 1233
Flags: W
LayerCount: 2
Fore
SplineSet
328 1350 m 2,0,1
 298 1350 298 1350 298 1380 c 2,2,-1
 298 1522 l 2,3,4
 298 1552 298 1552 328 1552 c 2,5,-1
 471 1552 l 2,6,7
 501 1552 501 1552 501 1522 c 2,8,-1
 501 1380 l 2,9,10
 501 1350 501 1350 471 1350 c 2,11,-1
 328 1350 l 2,0,1
720 1350 m 2,12,13
 690 1350 690 1350 690 1380 c 2,14,-1
 690 1522 l 2,15,16
 690 1552 690 1552 720 1552 c 2,17,-1
 862 1552 l 2,18,19
 892 1552 892 1552 892 1522 c 2,20,-1
 892 1380 l 2,21,22
 892 1350 892 1350 862 1350 c 2,23,-1
 720 1350 l 2,12,13
859 -8 m 2,24,25
 779 -8 779 -8 715.5 17 c 128,-1,26
 652 42 652 42 604 98 c 0,27,28
 513 204 513 204 513 398 c 2,29,-1
 513 976 l 1,30,-1
 268 976 l 1,31,-1
 268 1120 l 1,32,-1
 697 1120 l 1,33,-1
 697 398 l 2,34,35
 697 273 697 273 743 211 c 0,36,37
 767 178 767 178 800.5 163 c 128,-1,38
 834 148 834 148 877 148 c 2,39,-1
 1092 148 l 1,40,-1
 1092 -8 l 1,41,-1
 859 -8 l 2,24,25
EndSplineSet
Validated: 1
EndChar

StartChar: igrave
Encoding: 236 236 162
Width: 1233
Flags: W
LayerCount: 2
Fore
SplineSet
218 1647 m 1,0,-1
 416 1647 l 1,1,-1
 697 1271 l 1,2,-1
 543 1271 l 1,3,-1
 218 1647 l 1,0,-1
859 -8 m 2,4,5
 779 -8 779 -8 715.5 17 c 128,-1,6
 652 42 652 42 604 98 c 0,7,8
 513 204 513 204 513 398 c 2,9,-1
 513 976 l 1,10,-1
 268 976 l 1,11,-1
 268 1120 l 1,12,-1
 697 1120 l 1,13,-1
 697 398 l 2,14,15
 697 273 697 273 743 211 c 0,16,17
 767 178 767 178 800.5 163 c 128,-1,18
 834 148 834 148 877 148 c 2,19,-1
 1092 148 l 1,20,-1
 1092 -8 l 1,21,-1
 859 -8 l 2,4,5
EndSplineSet
Validated: 1
EndChar

StartChar: imacron
Encoding: 299 299 163
Width: 1233
Flags: W
LayerCount: 2
Fore
SplineSet
268 1468 m 1,0,-1
 866 1468 l 1,1,-1
 866 1320 l 1,2,-1
 268 1320 l 1,3,-1
 268 1468 l 1,0,-1
859 -8 m 2,4,5
 779 -8 779 -8 715.5 17 c 128,-1,6
 652 42 652 42 604 98 c 0,7,8
 513 204 513 204 513 398 c 2,9,-1
 513 976 l 1,10,-1
 268 976 l 1,11,-1
 268 1120 l 1,12,-1
 697 1120 l 1,13,-1
 697 398 l 2,14,15
 697 273 697 273 743 211 c 0,16,17
 767 178 767 178 800.5 163 c 128,-1,18
 834 148 834 148 877 148 c 2,19,-1
 1092 148 l 1,20,-1
 1092 -8 l 1,21,-1
 859 -8 l 2,4,5
EndSplineSet
Validated: 1
EndChar

StartChar: iogonek
Encoding: 303 303 164
Width: 1233
Flags: W
LayerCount: 2
Fore
SplineSet
526 1323 m 2,0,1
 493 1323 493 1323 493 1353 c 2,2,-1
 493 1526 l 2,3,4
 493 1556 493 1556 526 1556 c 2,5,-1
 664 1556 l 2,6,7
 697 1556 697 1556 697 1526 c 2,8,-1
 697 1353 l 2,9,10
 697 1323 697 1323 664 1323 c 2,11,-1
 526 1323 l 2,0,1
972 -261 m 0,12,13
 1034 -261 1034 -261 1096 -231 c 1,14,-1
 1096 -364 l 1,15,16
 1054 -375 1054 -375 1022 -379.5 c 128,-1,17
 990 -384 990 -384 953 -384 c 0,18,19
 841 -384 841 -384 782 -341.5 c 128,-1,20
 723 -299 723 -299 723 -210 c 0,21,22
 723 -187 723 -187 727.5 -164 c 128,-1,23
 732 -141 732 -141 743 -116.5 c 128,-1,24
 754 -92 754 -92 772 -65 c 128,-1,25
 790 -38 790 -38 816 -6 c 1,26,27
 751 0 751 0 698 25 c 128,-1,28
 645 50 645 50 604 98 c 0,29,30
 513 204 513 204 513 398 c 2,31,-1
 513 976 l 1,32,-1
 268 976 l 1,33,-1
 268 1120 l 1,34,-1
 697 1120 l 1,35,-1
 697 398 l 2,36,37
 697 273 697 273 743 211 c 0,38,39
 767 178 767 178 800.5 163 c 128,-1,40
 834 148 834 148 877 148 c 2,41,-1
 1092 148 l 1,42,-1
 1092 -8 l 1,43,-1
 936 -8 l 1,44,45
 896 -65 896 -65 879 -103 c 128,-1,46
 862 -141 862 -141 862 -173 c 0,47,48
 862 -215 862 -215 890 -238 c 128,-1,49
 918 -261 918 -261 972 -261 c 0,12,13
EndSplineSet
Validated: 1
EndChar

StartChar: itilde
Encoding: 297 297 165
Width: 1233
Flags: W
LayerCount: 2
Fore
SplineSet
268 1259 m 1,0,1
 268 1324 268 1324 281 1376.5 c 128,-1,2
 294 1429 294 1429 318.5 1465.5 c 128,-1,3
 343 1502 343 1502 379.5 1521.5 c 128,-1,4
 416 1541 416 1541 463 1541 c 0,5,6
 501 1541 501 1541 533 1527 c 128,-1,7
 565 1513 565 1513 602 1480 c 2,8,-1
 659 1425 l 2,9,10
 683 1402 683 1402 699 1394 c 128,-1,11
 715 1386 715 1386 729 1386 c 0,12,13
 746 1386 746 1386 760 1395 c 128,-1,14
 774 1404 774 1404 783 1423 c 0,15,16
 800 1459 800 1459 802 1541 c 1,17,-1
 927 1541 l 1,18,19
 927 1476 927 1476 914 1423.5 c 128,-1,20
 901 1371 901 1371 876.5 1334.5 c 128,-1,21
 852 1298 852 1298 815.5 1278.5 c 128,-1,22
 779 1259 779 1259 732 1259 c 0,23,24
 694 1259 694 1259 662 1273 c 128,-1,25
 630 1287 630 1287 593 1320 c 2,26,-1
 536 1375 l 2,27,28
 515 1395 515 1395 499 1404.5 c 128,-1,29
 483 1414 483 1414 466 1414 c 256,30,31
 449 1414 449 1414 435 1405 c 128,-1,32
 421 1396 421 1396 412 1377 c 0,33,34
 393 1338 393 1338 392 1259 c 1,35,-1
 268 1259 l 1,0,1
859 -8 m 2,36,37
 779 -8 779 -8 715.5 17 c 128,-1,38
 652 42 652 42 604 98 c 0,39,40
 513 204 513 204 513 398 c 2,41,-1
 513 976 l 1,42,-1
 268 976 l 1,43,-1
 268 1120 l 1,44,-1
 697 1120 l 1,45,-1
 697 398 l 2,46,47
 697 273 697 273 743 211 c 0,48,49
 767 178 767 178 800.5 163 c 128,-1,50
 834 148 834 148 877 148 c 2,51,-1
 1092 148 l 1,52,-1
 1092 -8 l 1,53,-1
 859 -8 l 2,36,37
EndSplineSet
Validated: 1
EndChar

StartChar: j
Encoding: 106 106 166
Width: 1233
Flags: W
LayerCount: 2
Fore
SplineSet
652 1323 m 2,0,1
 622 1323 622 1323 622 1353 c 2,2,-1
 622 1526 l 2,3,4
 622 1556 622 1556 652 1556 c 2,5,-1
 796 1556 l 2,6,7
 826 1556 826 1556 826 1526 c 2,8,-1
 826 1353 l 2,9,10
 826 1323 826 1323 796 1323 c 2,11,-1
 652 1323 l 2,0,1
238 -270 m 1,12,-1
 472 -270 l 2,13,14
 562 -270 562 -270 607 -208 c 0,15,16
 652 -145 652 -145 652 -20 c 2,17,-1
 652 977 l 1,18,-1
 335 977 l 1,19,-1
 335 1120 l 1,20,-1
 836 1120 l 1,21,-1
 836 -20 l 2,22,23
 836 -115 836 -115 814 -191 c 128,-1,24
 792 -267 792 -267 747 -321 c 256,25,26
 702 -375 702 -375 637.5 -400.5 c 128,-1,27
 573 -426 573 -426 492 -426 c 2,28,-1
 238 -426 l 1,29,-1
 238 -270 l 1,12,-1
EndSplineSet
Validated: 1
EndChar

StartChar: k
Encoding: 107 107 167
Width: 1233
Flags: W
LayerCount: 2
Fore
SplineSet
226 1556 m 1,0,-1
 416 1556 l 1,1,-1
 416 655 l 1,2,-1
 899 1120 l 1,3,-1
 1123 1120 l 1,4,-1
 682 698 l 1,5,-1
 1192 0 l 1,6,-1
 967 0 l 1,7,-1
 553 578 l 1,8,-1
 416 449 l 1,9,-1
 416 0 l 1,10,-1
 226 0 l 1,11,-1
 226 1556 l 1,0,-1
EndSplineSet
Validated: 1
EndChar

StartChar: uni0137
Encoding: 311 311 168
Width: 1233
Flags: W
LayerCount: 2
Fore
SplineSet
226 1556 m 1,0,-1
 416 1556 l 1,1,-1
 416 655 l 1,2,-1
 899 1120 l 1,3,-1
 1123 1120 l 1,4,-1
 682 698 l 1,5,-1
 1192 0 l 1,6,-1
 967 0 l 1,7,-1
 553 578 l 1,8,-1
 416 449 l 1,9,-1
 416 0 l 1,10,-1
 226 0 l 1,11,-1
 226 1556 l 1,0,-1
626 -199 m 1,12,-1
 865 -199 l 1,13,-1
 678 -544 l 1,14,-1
 532 -544 l 1,15,-1
 626 -199 l 1,12,-1
EndSplineSet
Validated: 1
EndChar

StartChar: l
Encoding: 108 108 169
Width: 1233
Flags: W
LayerCount: 2
Fore
SplineSet
821 -8 m 1,0,1
 741 -8 741 -8 677.5 17 c 128,-1,2
 614 42 614 42 566 98 c 0,3,4
 475 204 475 204 475 398 c 2,5,-1
 475 1412 l 1,6,-1
 180 1412 l 1,7,-1
 180 1556 l 1,8,-1
 659 1556 l 1,9,-1
 659 398 l 2,10,11
 659 273 659 273 705 211 c 0,12,13
 729 178 729 178 762.5 163 c 128,-1,14
 796 148 796 148 839 148 c 2,15,-1
 1054 148 l 1,16,-1
 1054 -8 l 1,17,-1
 821 -8 l 1,18,-1
 821 -8 l 1,0,1
EndSplineSet
Validated: 5
EndChar

StartChar: lacute
Encoding: 314 314 170
Width: 1233
Flags: W
LayerCount: 2
Fore
SplineSet
577 1880 m 1,0,-1
 763 1880 l 1,1,-1
 534 1616 l 1,2,-1
 380 1616 l 1,3,-1
 577 1880 l 1,0,-1
801 -8 m 2,4,5
 635 -8 635 -8 545 97.5 c 128,-1,6
 455 203 455 203 455 398 c 2,7,-1
 455 1412 l 1,8,-1
 160 1412 l 1,9,-1
 160 1556 l 1,10,-1
 639 1556 l 1,11,-1
 639 398 l 2,12,13
 639 148 639 148 819 148 c 2,14,-1
 1034 148 l 1,15,-1
 1034 -8 l 1,16,-1
 801 -8 l 2,4,5
EndSplineSet
Validated: 1
EndChar

StartChar: lcaron
Encoding: 318 318 171
Width: 1233
Flags: W
LayerCount: 2
Fore
SplineSet
801 -8 m 2,0,1
 635 -8 635 -8 545 97.5 c 128,-1,2
 455 203 455 203 455 398 c 2,3,-1
 455 1412 l 1,4,-1
 160 1412 l 1,5,-1
 160 1556 l 1,6,-1
 639 1556 l 1,7,-1
 639 398 l 2,8,9
 639 148 639 148 819 148 c 2,10,-1
 1034 148 l 1,11,-1
 1034 -8 l 1,12,-1
 801 -8 l 2,0,1
959 1556 m 1,13,-1
 1157 1556 l 1,14,-1
 1044 1180 l 1,15,-1
 890 1180 l 1,16,-1
 959 1556 l 1,13,-1
EndSplineSet
Validated: 1
EndChar

StartChar: uni013C
Encoding: 316 316 172
Width: 1233
Flags: W
LayerCount: 2
Fore
SplineSet
801 -8 m 2,0,1
 635 -8 635 -8 545 97.5 c 128,-1,2
 455 203 455 203 455 398 c 2,3,-1
 455 1412 l 1,4,-1
 160 1412 l 1,5,-1
 160 1556 l 1,6,-1
 639 1556 l 1,7,-1
 639 398 l 2,8,9
 639 148 639 148 819 148 c 2,10,-1
 1034 148 l 1,11,-1
 1034 -8 l 1,12,-1
 801 -8 l 2,0,1
497 -199 m 1,13,-1
 736 -199 l 1,14,-1
 549 -544 l 1,15,-1
 403 -544 l 1,16,-1
 497 -199 l 1,13,-1
EndSplineSet
Validated: 1
EndChar

StartChar: lslash
Encoding: 322 322 173
Width: 1233
Flags: W
LayerCount: 2
Fore
SplineSet
801 -8 m 1,0,1
 721 -8 721 -8 657.5 17 c 128,-1,2
 594 42 594 42 546 98 c 0,3,4
 455 204 455 204 455 398 c 2,5,-1
 455 690 l 1,6,-1
 156 481 l 1,7,-1
 76 592 l 1,8,-1
 455 856 l 1,9,-1
 455 1412 l 1,10,-1
 160 1412 l 1,11,-1
 160 1556 l 1,12,-1
 639 1556 l 1,13,-1
 639 981 l 1,14,-1
 954 1200 l 1,15,-1
 1034 1090 l 1,16,-1
 639 815 l 1,17,-1
 639 398 l 2,18,19
 639 273 639 273 685 211 c 0,20,21
 709 178 709 178 742.5 163 c 128,-1,22
 776 148 776 148 819 148 c 2,23,-1
 1034 148 l 1,24,-1
 1034 -8 l 1,25,-1
 801 -8 l 1,26,-1
 801 -8 l 1,0,1
EndSplineSet
Validated: 5
EndChar

StartChar: m
Encoding: 109 109 174
Width: 1233
Flags: W
LayerCount: 2
Fore
SplineSet
109 1120 m 1,0,-1
 260 1120 l 1,1,-1
 276 1024 l 1,2,3
 309 1084 309 1084 359 1116 c 0,4,5
 408 1147 408 1147 472 1147 c 0,6,7
 546 1147 546 1147 598 1112 c 0,8,9
 647 1078 647 1078 676 1006 c 1,10,11
 711 1079 711 1079 763 1113 c 256,12,13
 815 1147 815 1147 889 1147 c 0,14,15
 958 1147 958 1147 1006 1120.5 c 128,-1,16
 1054 1094 1054 1094 1080 1043 c 0,17,18
 1135 939 1135 939 1135 649 c 2,19,-1
 1135 0 l 1,20,-1
 967 0 l 1,21,-1
 967 641 l 2,22,23
 967 705 967 705 965.5 753 c 128,-1,24
 964 801 964 801 960.5 836.5 c 128,-1,25
 957 872 957 872 952 896.5 c 128,-1,26
 947 921 947 921 940 936 c 0,27,28
 929 962 929 962 906 977.5 c 128,-1,29
 883 993 883 993 841 993 c 0,30,31
 803 993 803 993 777 978.5 c 128,-1,32
 751 964 751 964 736 932 c 0,33,34
 719 897 719 897 712 828.5 c 128,-1,35
 705 760 705 760 705 641 c 2,36,-1
 705 0 l 1,37,-1
 537 0 l 1,38,-1
 537 641 l 2,39,40
 537 714 537 714 535 764.5 c 128,-1,41
 533 815 533 815 529 849 c 128,-1,42
 525 883 525 883 519.5 903.5 c 128,-1,43
 514 924 514 924 508 937 c 0,44,45
 495 963 495 963 470.5 978 c 128,-1,46
 446 993 446 993 407 993 c 0,47,48
 365 993 365 993 341.5 976.5 c 128,-1,49
 318 960 318 960 306 933 c 0,50,51
 299 918 299 918 293.5 895 c 128,-1,52
 288 872 288 872 284 837.5 c 128,-1,53
 280 803 280 803 278 755 c 128,-1,54
 276 707 276 707 276 641 c 2,55,-1
 276 0 l 1,56,-1
 109 0 l 1,57,-1
 109 1120 l 1,0,-1
EndSplineSet
Validated: 1
EndChar

StartChar: n
Encoding: 110 110 175
Width: 1233
Flags: W
LayerCount: 2
Fore
SplineSet
195 1120 m 1,0,-1
 361 1120 l 1,1,-1
 379 952 l 1,2,3
 429 1049 429 1049 512 1098 c 256,4,5
 595 1147 595 1147 710 1147 c 0,6,7
 800 1147 800 1147 863 1118 c 128,-1,8
 926 1089 926 1089 967 1035 c 0,9,10
 1051 922 1051 922 1051 694 c 2,11,-1
 1051 0 l 1,12,-1
 866 0 l 1,13,-1
 866 694 l 2,14,15
 866 845 866 845 813 916 c 256,16,17
 760 987 760 987 646 987 c 0,18,19
 580 987 580 987 531.5 964 c 128,-1,20
 483 941 483 941 449 896 c 0,21,22
 379 805 379 805 379 633 c 2,23,-1
 379 0 l 1,24,-1
 195 0 l 1,25,-1
 195 1120 l 1,0,-1
EndSplineSet
Validated: 1
EndChar

StartChar: nacute
Encoding: 324 324 176
Width: 1233
Flags: W
LayerCount: 2
Fore
SplineSet
776 1673 m 1,0,-1
 974 1673 l 1,1,-1
 649 1297 l 1,2,-1
 495 1297 l 1,3,-1
 776 1673 l 1,0,-1
195 1120 m 1,4,-1
 361 1120 l 1,5,-1
 379 952 l 1,6,7
 428 1049 428 1049 512 1098 c 128,-1,8
 596 1147 596 1147 711 1147 c 0,9,10
 883 1147 883 1147 967 1035 c 128,-1,11
 1051 923 1051 923 1051 694 c 2,12,-1
 1051 0 l 1,13,-1
 866 0 l 1,14,-1
 866 694 l 2,15,16
 866 845 866 845 813.5 916 c 128,-1,17
 761 987 761 987 648 987 c 0,18,19
 517 987 517 987 448 896 c 128,-1,20
 379 805 379 805 379 633 c 2,21,-1
 379 0 l 1,22,-1
 195 0 l 1,23,-1
 195 1120 l 1,4,-1
EndSplineSet
Validated: 1
EndChar

StartChar: ncaron
Encoding: 328 328 177
Width: 1233
Flags: W
LayerCount: 2
Fore
SplineSet
285 1673 m 1,0,-1
 424 1673 l 1,1,-1
 604 1428 l 1,2,-1
 785 1673 l 1,3,-1
 924 1673 l 1,4,-1
 678 1297 l 1,5,-1
 531 1297 l 1,6,-1
 285 1673 l 1,0,-1
195 1120 m 1,7,-1
 361 1120 l 1,8,-1
 379 952 l 1,9,10
 428 1049 428 1049 512 1098 c 128,-1,11
 596 1147 596 1147 711 1147 c 0,12,13
 883 1147 883 1147 967 1035 c 128,-1,14
 1051 923 1051 923 1051 694 c 2,15,-1
 1051 0 l 1,16,-1
 866 0 l 1,17,-1
 866 694 l 2,18,19
 866 845 866 845 813.5 916 c 128,-1,20
 761 987 761 987 648 987 c 0,21,22
 517 987 517 987 448 896 c 128,-1,23
 379 805 379 805 379 633 c 2,24,-1
 379 0 l 1,25,-1
 195 0 l 1,26,-1
 195 1120 l 1,7,-1
EndSplineSet
Validated: 1
EndChar

StartChar: uni0146
Encoding: 326 326 178
Width: 1233
Flags: W
LayerCount: 2
Fore
SplineSet
195 1120 m 1,0,-1
 361 1120 l 1,1,-1
 379 952 l 1,2,3
 428 1049 428 1049 512 1098 c 128,-1,4
 596 1147 596 1147 711 1147 c 0,5,6
 883 1147 883 1147 967 1035 c 128,-1,7
 1051 923 1051 923 1051 694 c 2,8,-1
 1051 0 l 1,9,-1
 866 0 l 1,10,-1
 866 694 l 2,11,12
 866 845 866 845 813.5 916 c 128,-1,13
 761 987 761 987 648 987 c 0,14,15
 517 987 517 987 448 896 c 128,-1,16
 379 805 379 805 379 633 c 2,17,-1
 379 0 l 1,18,-1
 195 0 l 1,19,-1
 195 1120 l 1,0,-1
550 -199 m 1,20,-1
 789 -199 l 1,21,-1
 602 -544 l 1,22,-1
 456 -544 l 1,23,-1
 550 -199 l 1,20,-1
EndSplineSet
Validated: 1
EndChar

StartChar: eng
Encoding: 331 331 179
Width: 1233
Flags: W
LayerCount: 2
Fore
SplineSet
502 -270 m 1,0,-1
 687 -270 l 2,1,2
 866 -270 866 -270 866 -20 c 2,3,-1
 866 694 l 2,4,5
 866 845 866 845 813.5 916 c 128,-1,6
 761 987 761 987 648 987 c 0,7,8
 517 987 517 987 448 896 c 128,-1,9
 379 805 379 805 379 633 c 2,10,-1
 379 0 l 1,11,-1
 195 0 l 1,12,-1
 195 1120 l 1,13,-1
 361 1120 l 1,14,-1
 379 952 l 1,15,16
 428 1049 428 1049 512 1098 c 128,-1,17
 596 1147 596 1147 711 1147 c 0,18,19
 883 1147 883 1147 967 1035 c 128,-1,20
 1051 923 1051 923 1051 694 c 2,21,-1
 1051 -20 l 2,22,23
 1051 -216 1051 -216 962 -321 c 128,-1,24
 873 -426 873 -426 707 -426 c 2,25,-1
 502 -426 l 1,26,-1
 502 -270 l 1,0,-1
EndSplineSet
Validated: 1
EndChar

StartChar: ntilde
Encoding: 241 241 180
Width: 1233
Flags: W
LayerCount: 2
Fore
SplineSet
287 1286 m 1,0,1
 289 1421 289 1421 339 1494 c 0,2,3
 390 1568 390 1568 480 1568 c 0,4,5
 519 1568 519 1568 552 1554 c 0,6,7
 582 1541 582 1541 621 1507 c 2,8,-1
 678 1452 l 2,9,10
 689 1442 689 1442 699.5 1434.5 c 128,-1,11
 710 1427 710 1427 716 1423 c 0,12,13
 726 1417 726 1417 732 1415 c 128,-1,14
 738 1413 738 1413 746 1413 c 0,15,16
 784 1413 784 1413 802 1450 c 0,17,18
 819 1486 819 1486 821 1568 c 1,19,-1
 946 1568 l 1,20,21
 944 1433 944 1433 894 1360 c 0,22,23
 843 1286 843 1286 753 1286 c 0,24,25
 714 1286 714 1286 681 1300 c 0,26,27
 651 1313 651 1313 612 1347 c 2,28,-1
 555 1402 l 2,29,30
 542 1414 542 1414 532.5 1421 c 128,-1,31
 523 1428 523 1428 517 1432 c 0,32,33
 508 1437 508 1437 501.5 1439 c 128,-1,34
 495 1441 495 1441 487 1441 c 0,35,36
 449 1441 449 1441 431 1404 c 0,37,38
 412 1365 412 1365 411 1286 c 1,39,-1
 287 1286 l 1,0,1
195 1120 m 1,40,-1
 361 1120 l 1,41,-1
 379 952 l 1,42,43
 429 1049 429 1049 512 1098 c 256,44,45
 595 1147 595 1147 710 1147 c 0,46,47
 800 1147 800 1147 863 1118 c 128,-1,48
 926 1089 926 1089 967 1035 c 0,49,50
 1051 922 1051 922 1051 694 c 2,51,-1
 1051 0 l 1,52,-1
 866 0 l 1,53,-1
 866 694 l 2,54,55
 866 845 866 845 813 916 c 256,56,57
 760 987 760 987 646 987 c 0,58,59
 580 987 580 987 531.5 964 c 128,-1,60
 483 941 483 941 449 896 c 0,61,62
 379 805 379 805 379 633 c 2,63,-1
 379 0 l 1,64,-1
 195 0 l 1,65,-1
 195 1120 l 1,40,-1
EndSplineSet
Validated: 1
EndChar

StartChar: o
Encoding: 111 111 181
Width: 1233
Flags: W
LayerCount: 2
Fore
SplineSet
616 -29 m 0,0,1
 501 -29 501 -29 411.5 8.5 c 128,-1,2
 322 46 322 46 260 121 c 0,3,4
 197 199 197 199 167 309.5 c 128,-1,5
 137 420 137 420 137 560 c 0,6,7
 137 844 137 844 260 996 c 0,8,9
 383 1147 383 1147 616 1147 c 0,10,11
 736 1147 736 1147 824.5 1108.5 c 128,-1,12
 913 1070 913 1070 973 996 c 0,13,14
 1096 844 1096 844 1096 561 c 0,15,16
 1096 418 1096 418 1065.5 307 c 128,-1,17
 1035 196 1035 196 973 121 c 0,18,19
 913 47 913 47 823.5 9 c 128,-1,20
 734 -29 734 -29 616 -29 c 0,0,1
616 127 m 0,21,22
 757 127 757 127 829 237 c 0,23,24
 901 346 901 346 901 559 c 256,25,26
 901 772 901 772 829 882 c 0,27,28
 757 991 757 991 616 991 c 0,29,30
 476 991 476 991 404 882 c 0,31,32
 332 772 332 772 332 559 c 256,33,34
 332 346 332 346 404 237 c 0,35,36
 476 127 476 127 616 127 c 0,21,22
EndSplineSet
Validated: 1
Substitution2: "Single Substitution lookup 16 subtable" ordmasculine
Substitution2: "'aalt' Access All Alternates in Latin lookup 0 subtable" ordmasculine
EndChar

StartChar: oacute
Encoding: 243 243 182
Width: 1233
Flags: W
LayerCount: 2
Fore
SplineSet
756 1673 m 1,0,-1
 954 1673 l 1,1,-1
 629 1297 l 1,2,-1
 475 1297 l 1,3,-1
 756 1673 l 1,0,-1
616 -29 m 0,4,5
 501 -29 501 -29 411.5 8.5 c 128,-1,6
 322 46 322 46 260 121 c 0,7,8
 197 199 197 199 167 309.5 c 128,-1,9
 137 420 137 420 137 560 c 0,10,11
 137 844 137 844 260 996 c 0,12,13
 383 1147 383 1147 616 1147 c 0,14,15
 736 1147 736 1147 824.5 1108.5 c 128,-1,16
 913 1070 913 1070 973 996 c 0,17,18
 1096 844 1096 844 1096 561 c 0,19,20
 1096 418 1096 418 1065.5 307 c 128,-1,21
 1035 196 1035 196 973 121 c 0,22,23
 913 47 913 47 823.5 9 c 128,-1,24
 734 -29 734 -29 616 -29 c 0,4,5
616 127 m 0,25,26
 757 127 757 127 829 237 c 0,27,28
 901 346 901 346 901 559 c 256,29,30
 901 772 901 772 829 882 c 0,31,32
 757 991 757 991 616 991 c 0,33,34
 476 991 476 991 404 882 c 0,35,36
 332 772 332 772 332 559 c 256,37,38
 332 346 332 346 404 237 c 0,39,40
 476 127 476 127 616 127 c 0,25,26
EndSplineSet
Validated: 1
EndChar

StartChar: ocircumflex
Encoding: 244 244 183
Width: 1233
Flags: W
LayerCount: 2
Fore
SplineSet
543 1673 m 1,0,-1
 690 1673 l 1,1,-1
 936 1297 l 1,2,-1
 797 1297 l 1,3,-1
 616 1542 l 1,4,-1
 436 1297 l 1,5,-1
 297 1297 l 1,6,-1
 543 1673 l 1,0,-1
616 -29 m 0,7,8
 501 -29 501 -29 411.5 8.5 c 128,-1,9
 322 46 322 46 260 121 c 0,10,11
 197 199 197 199 167 309.5 c 128,-1,12
 137 420 137 420 137 560 c 0,13,14
 137 844 137 844 260 996 c 0,15,16
 383 1147 383 1147 616 1147 c 0,17,18
 736 1147 736 1147 824.5 1108.5 c 128,-1,19
 913 1070 913 1070 973 996 c 0,20,21
 1096 844 1096 844 1096 561 c 0,22,23
 1096 418 1096 418 1065.5 307 c 128,-1,24
 1035 196 1035 196 973 121 c 0,25,26
 913 47 913 47 823.5 9 c 128,-1,27
 734 -29 734 -29 616 -29 c 0,7,8
616 127 m 0,28,29
 757 127 757 127 829 237 c 0,30,31
 901 346 901 346 901 559 c 256,32,33
 901 772 901 772 829 882 c 0,34,35
 757 991 757 991 616 991 c 0,36,37
 476 991 476 991 404 882 c 0,38,39
 332 772 332 772 332 559 c 256,40,41
 332 346 332 346 404 237 c 0,42,43
 476 127 476 127 616 127 c 0,28,29
EndSplineSet
Validated: 1
EndChar

StartChar: odieresis
Encoding: 246 246 184
Width: 1233
Flags: W
LayerCount: 2
Fore
SplineSet
349 1350 m 2,0,1
 319 1350 319 1350 319 1380 c 2,2,-1
 319 1522 l 2,3,4
 319 1552 319 1552 349 1552 c 2,5,-1
 492 1552 l 2,6,7
 522 1552 522 1552 522 1522 c 2,8,-1
 522 1380 l 2,9,10
 522 1350 522 1350 492 1350 c 2,11,-1
 349 1350 l 2,0,1
741 1350 m 2,12,13
 711 1350 711 1350 711 1380 c 2,14,-1
 711 1522 l 2,15,16
 711 1552 711 1552 741 1552 c 2,17,-1
 883 1552 l 2,18,19
 913 1552 913 1552 913 1522 c 2,20,-1
 913 1380 l 2,21,22
 913 1350 913 1350 883 1350 c 2,23,-1
 741 1350 l 2,12,13
616 -29 m 0,24,25
 501 -29 501 -29 411.5 8.5 c 128,-1,26
 322 46 322 46 260 121 c 0,27,28
 197 199 197 199 167 309.5 c 128,-1,29
 137 420 137 420 137 560 c 0,30,31
 137 844 137 844 260 996 c 0,32,33
 383 1147 383 1147 616 1147 c 0,34,35
 736 1147 736 1147 824.5 1108.5 c 128,-1,36
 913 1070 913 1070 973 996 c 0,37,38
 1096 844 1096 844 1096 561 c 0,39,40
 1096 418 1096 418 1065.5 307 c 128,-1,41
 1035 196 1035 196 973 121 c 0,42,43
 913 47 913 47 823.5 9 c 128,-1,44
 734 -29 734 -29 616 -29 c 0,24,25
616 127 m 0,45,46
 757 127 757 127 829 237 c 0,47,48
 901 346 901 346 901 559 c 256,49,50
 901 772 901 772 829 882 c 0,51,52
 757 991 757 991 616 991 c 0,53,54
 476 991 476 991 404 882 c 0,55,56
 332 772 332 772 332 559 c 256,57,58
 332 346 332 346 404 237 c 0,59,60
 476 127 476 127 616 127 c 0,45,46
EndSplineSet
Validated: 1
EndChar

StartChar: ograve
Encoding: 242 242 185
Width: 1233
Flags: W
LayerCount: 2
Fore
SplineSet
279 1673 m 1,0,-1
 477 1673 l 1,1,-1
 758 1297 l 1,2,-1
 604 1297 l 1,3,-1
 279 1673 l 1,0,-1
616 -29 m 0,4,5
 501 -29 501 -29 411.5 8.5 c 128,-1,6
 322 46 322 46 260 121 c 0,7,8
 197 199 197 199 167 309.5 c 128,-1,9
 137 420 137 420 137 560 c 0,10,11
 137 844 137 844 260 996 c 0,12,13
 383 1147 383 1147 616 1147 c 0,14,15
 736 1147 736 1147 824.5 1108.5 c 128,-1,16
 913 1070 913 1070 973 996 c 0,17,18
 1096 844 1096 844 1096 561 c 0,19,20
 1096 418 1096 418 1065.5 307 c 128,-1,21
 1035 196 1035 196 973 121 c 0,22,23
 913 47 913 47 823.5 9 c 128,-1,24
 734 -29 734 -29 616 -29 c 0,4,5
616 127 m 0,25,26
 757 127 757 127 829 237 c 0,27,28
 901 346 901 346 901 559 c 256,29,30
 901 772 901 772 829 882 c 0,31,32
 757 991 757 991 616 991 c 0,33,34
 476 991 476 991 404 882 c 0,35,36
 332 772 332 772 332 559 c 256,37,38
 332 346 332 346 404 237 c 0,39,40
 476 127 476 127 616 127 c 0,25,26
EndSplineSet
Validated: 1
EndChar

StartChar: ohorn
Encoding: 417 417 186
Width: 1233
Flags: W
LayerCount: 2
Fore
SplineSet
1182 1137 m 1,0,1
 1193 1095 1193 1095 1197.5 1063 c 128,-1,2
 1202 1031 1202 1031 1202 994 c 0,3,4
 1202 882 1202 882 1159.5 823 c 128,-1,5
 1117 764 1117 764 1028 764 c 0,6,7
 1013 764 1013 764 998.5 765.5 c 128,-1,8
 984 767 984 767 970 772 c 1,9,10
 991 676 991 676 991 558 c 0,11,12
 991 272 991 272 868 121.5 c 128,-1,13
 745 -29 745 -29 511 -29 c 0,14,15
 276 -29 276 -29 154 120.5 c 128,-1,16
 32 270 32 270 32 558 c 0,17,18
 32 701 32 701 63 811 c 128,-1,19
 94 921 94 921 155 995.5 c 128,-1,20
 216 1070 216 1070 305 1108.5 c 128,-1,21
 394 1147 394 1147 511 1147 c 0,22,23
 654 1147 654 1147 755.5 1090.5 c 128,-1,24
 857 1034 857 1034 916 922 c 1,25,26
 958 903 958 903 991 903 c 0,27,28
 1033 903 1033 903 1056 931 c 128,-1,29
 1079 959 1079 959 1079 1013 c 0,30,31
 1079 1075 1079 1075 1049 1137 c 1,32,-1
 1182 1137 l 1,0,1
511 127 m 0,33,34
 653 127 653 127 724.5 236 c 128,-1,35
 796 345 796 345 796 559 c 0,36,37
 796 774 796 774 724.5 882.5 c 128,-1,38
 653 991 653 991 511 991 c 0,39,40
 370 991 370 991 298.5 882.5 c 128,-1,41
 227 774 227 774 227 559 c 0,42,43
 227 345 227 345 298.5 236 c 128,-1,44
 370 127 370 127 511 127 c 0,33,34
EndSplineSet
Validated: 1
EndChar

StartChar: ohungarumlaut
Encoding: 337 337 187
Width: 1233
Flags: W
LayerCount: 2
Fore
SplineSet
535 1673 m 1,0,-1
 705 1673 l 1,1,-1
 481 1297 l 1,2,-1
 344 1297 l 1,3,-1
 535 1673 l 1,0,-1
868 1673 m 1,4,-1
 1047 1673 l 1,5,-1
 799 1297 l 1,6,-1
 664 1297 l 1,7,-1
 868 1673 l 1,4,-1
616 -29 m 0,8,9
 381 -29 381 -29 259 120.5 c 128,-1,10
 137 270 137 270 137 558 c 0,11,12
 137 701 137 701 168 811 c 128,-1,13
 199 921 199 921 260 995.5 c 128,-1,14
 321 1070 321 1070 410 1108.5 c 128,-1,15
 499 1147 499 1147 616 1147 c 256,16,17
 733 1147 733 1147 822.5 1108.5 c 128,-1,18
 912 1070 912 1070 972.5 995.5 c 128,-1,19
 1033 921 1033 921 1064.5 811 c 128,-1,20
 1096 701 1096 701 1096 558 c 0,21,22
 1096 272 1096 272 973 121.5 c 128,-1,23
 850 -29 850 -29 616 -29 c 0,8,9
616 127 m 0,24,25
 758 127 758 127 829.5 236 c 128,-1,26
 901 345 901 345 901 559 c 0,27,28
 901 774 901 774 829.5 882.5 c 128,-1,29
 758 991 758 991 616 991 c 0,30,31
 475 991 475 991 403.5 882.5 c 128,-1,32
 332 774 332 774 332 559 c 0,33,34
 332 345 332 345 403.5 236 c 128,-1,35
 475 127 475 127 616 127 c 0,24,25
EndSplineSet
Validated: 1
EndChar

StartChar: omacron
Encoding: 333 333 188
Width: 1233
Flags: W
LayerCount: 2
Fore
SplineSet
317 1495 m 1,0,-1
 915 1495 l 1,1,-1
 915 1347 l 1,2,-1
 317 1347 l 1,3,-1
 317 1495 l 1,0,-1
616 -29 m 0,4,5
 381 -29 381 -29 259 120.5 c 128,-1,6
 137 270 137 270 137 558 c 0,7,8
 137 701 137 701 168 811 c 128,-1,9
 199 921 199 921 260 995.5 c 128,-1,10
 321 1070 321 1070 410 1108.5 c 128,-1,11
 499 1147 499 1147 616 1147 c 256,12,13
 733 1147 733 1147 822.5 1108.5 c 128,-1,14
 912 1070 912 1070 972.5 995.5 c 128,-1,15
 1033 921 1033 921 1064.5 811 c 128,-1,16
 1096 701 1096 701 1096 558 c 0,17,18
 1096 272 1096 272 973 121.5 c 128,-1,19
 850 -29 850 -29 616 -29 c 0,4,5
616 127 m 0,20,21
 758 127 758 127 829.5 236 c 128,-1,22
 901 345 901 345 901 559 c 0,23,24
 901 774 901 774 829.5 882.5 c 128,-1,25
 758 991 758 991 616 991 c 0,26,27
 475 991 475 991 403.5 882.5 c 128,-1,28
 332 774 332 774 332 559 c 0,29,30
 332 345 332 345 403.5 236 c 128,-1,31
 475 127 475 127 616 127 c 0,20,21
EndSplineSet
Validated: 1
EndChar

StartChar: oslash
Encoding: 248 248 189
Width: 1233
Flags: W
LayerCount: 2
Fore
SplineSet
47 -20 m 1,0,-1
 217 180 l 1,1,2
 194 222 194 222 181 262 c 128,-1,3
 168 302 168 302 158 349 c 0,4,5
 147 400 147 400 142 450 c 128,-1,6
 137 500 137 500 137 559 c 0,7,8
 137 844 137 844 260 996 c 0,9,10
 383 1147 383 1147 615 1147 c 0,11,12
 664 1147 664 1147 710.5 1140.5 c 128,-1,13
 757 1134 757 1134 795 1120 c 0,14,15
 832 1107 832 1107 867.5 1086 c 128,-1,16
 903 1065 903 1065 934 1036 c 1,17,-1
 1081 1212 l 1,18,-1
 1174 1135 l 1,19,-1
 1010 940 l 1,20,21
 1051 875 1051 875 1074 778 c 0,22,23
 1085 729 1085 729 1090.5 674.5 c 128,-1,24
 1096 620 1096 620 1096 561 c 0,25,26
 1096 418 1096 418 1065.5 307 c 128,-1,27
 1035 196 1035 196 973 121 c 0,28,29
 850 -29 850 -29 615 -29 c 0,30,31
 560 -29 560 -29 516.5 -21 c 128,-1,32
 473 -13 473 -13 435 1 c 0,33,34
 394 16 394 16 361.5 37 c 128,-1,35
 329 58 329 58 299 90 c 1,36,-1
 139 -96 l 1,37,-1
 47 -20 l 1,0,-1
817 897 m 1,38,39
 782 946 782 946 733 968 c 0,40,41
 682 991 682 991 616 991 c 0,42,43
 477 991 477 991 403 884 c 0,44,45
 367 832 367 832 347.5 757 c 128,-1,46
 328 682 328 682 328 579 c 0,47,48
 328 551 328 551 329.5 524.5 c 128,-1,49
 331 498 331 498 335 469 c 0,50,51
 342 410 342 410 356 340 c 1,52,-1
 817 897 l 1,38,39
615 127 m 0,53,54
 757 127 757 127 829 237 c 0,55,56
 865 292 865 292 883 372.5 c 128,-1,57
 901 453 901 453 901 556 c 0,58,59
 901 586 901 586 899.5 612.5 c 128,-1,60
 898 639 898 639 895 667 c 0,61,62
 893 688 893 688 889 716 c 128,-1,63
 885 744 885 744 877 780 c 1,64,-1
 414 221 l 1,65,66
 436 193 436 193 456.5 177.5 c 128,-1,67
 477 162 477 162 501 151 c 0,68,69
 526 140 526 140 553 133.5 c 128,-1,70
 580 127 580 127 615 127 c 0,53,54
EndSplineSet
Validated: 1
EndChar

StartChar: oslashacute
Encoding: 511 511 190
Width: 1233
Flags: W
LayerCount: 2
Fore
SplineSet
756 1673 m 1,0,-1
 954 1673 l 1,1,-1
 629 1297 l 1,2,-1
 475 1297 l 1,3,-1
 756 1673 l 1,0,-1
47 -20 m 1,4,-1
 217 180 l 1,5,6
 178 252 178 252 157.5 348.5 c 128,-1,7
 137 445 137 445 137 562 c 0,8,9
 137 704 137 704 168 813 c 128,-1,10
 199 922 199 922 260 996 c 128,-1,11
 321 1070 321 1070 411 1108.5 c 128,-1,12
 501 1147 501 1147 618 1147 c 0,13,14
 716 1147 716 1147 795 1120 c 128,-1,15
 874 1093 874 1093 934 1036 c 1,16,-1
 1081 1212 l 1,17,-1
 1174 1135 l 1,18,-1
 1010 940 l 1,19,20
 1052 874 1052 874 1074 778 c 128,-1,21
 1096 682 1096 682 1096 560 c 0,22,23
 1096 270 1096 270 973.5 120.5 c 128,-1,24
 851 -29 851 -29 616 -29 c 0,25,26
 412 -29 412 -29 299 90 c 1,27,-1
 139 -96 l 1,28,-1
 47 -20 l 1,4,-1
817 897 m 1,29,30
 781 947 781 947 730.5 969 c 128,-1,31
 680 991 680 991 619 991 c 0,32,33
 548 991 548 991 494 963.5 c 128,-1,34
 440 936 440 936 403 884 c 128,-1,35
 366 832 366 832 347 756.5 c 128,-1,36
 328 681 328 681 328 584 c 0,37,38
 328 527 328 527 335 469.5 c 128,-1,39
 342 412 342 412 356 340 c 1,40,-1
 817 897 l 1,29,30
615 127 m 0,41,42
 757 127 757 127 829 236.5 c 128,-1,43
 901 346 901 346 901 552 c 0,44,45
 901 612 901 612 895 667 c 128,-1,46
 889 722 889 722 877 780 c 1,47,-1
 414 221 l 1,48,49
 486 127 486 127 615 127 c 0,41,42
EndSplineSet
Validated: 1
EndChar

